<svg width="37" height="37" viewBox="0 0 37 37" fill="none" xmlns="http://www.w3.org/2000/svg">
<path d="M8.41448 13.8116C8.47039 13.8116 8.5263 13.8116 8.58391 13.8115C9.42943 13.817 10.0323 13.9022 10.6832 14.4678C10.9958 14.7266 11.3344 14.9513 11.6691 15.1803C11.7911 15.2647 11.9113 15.3513 12.0315 15.4384C12.1058 15.4907 12.1801 15.543 12.2567 15.5968C12.3231 15.6444 12.3896 15.6921 12.458 15.7411C12.6387 15.8445 12.6387 15.8445 12.8141 15.7925C13.0865 15.6364 13.3472 15.4666 13.6072 15.2905C13.664 15.2524 13.7209 15.2143 13.7796 15.175C13.9606 15.0536 14.1414 14.9317 14.3222 14.8098C14.5038 14.6877 14.6854 14.5657 14.8672 14.4438C14.9801 14.368 15.0929 14.2921 15.2057 14.216C15.2566 14.1818 15.3075 14.1475 15.3599 14.1122C15.4271 14.0669 15.4271 14.0669 15.4957 14.0207C15.7546 13.8532 15.9831 13.8608 16.2832 13.8576C16.3633 13.8568 16.3633 13.8568 16.445 13.8559C16.5586 13.8549 16.6723 13.8541 16.7859 13.8535C16.9002 13.8527 17.0145 13.8512 17.1288 13.8491C18.1415 13.83 19.0577 13.9523 19.9679 14.4349C20.016 14.4597 20.064 14.4846 20.1135 14.5102C20.5322 14.7336 20.8965 14.9986 21.2461 15.3202C21.3024 15.3707 21.3587 15.4212 21.4166 15.4732C21.8263 15.8595 22.1248 16.2771 22.4024 16.7655C22.4358 16.8234 22.4693 16.8814 22.5037 16.9411C22.8373 17.5595 23.0201 18.241 23.125 18.9335C23.3386 18.6802 23.5011 18.4253 23.658 18.134C23.9077 17.6979 24.0907 17.5035 24.5704 17.3436C25.028 17.3048 25.3526 17.3559 25.7266 17.6327C26.0854 18.0751 26.3501 18.6032 26.6291 19.0976C26.7561 19.3225 26.8839 19.547 27.0116 19.7716C27.0374 19.817 27.0632 19.8624 27.0898 19.9092C27.3307 20.3326 27.576 20.7534 27.8223 21.1737C28.2128 21.8405 28.5975 22.5106 28.98 23.182C29.3135 23.7671 29.65 24.3503 29.9903 24.9315C30.3808 25.5984 30.7654 26.2684 31.148 26.9398C31.4815 27.5249 31.818 28.1082 32.1582 28.6893C32.5762 29.4032 32.9898 30.1195 33.3972 30.8395C33.6212 31.235 33.8479 31.6279 34.0863 32.0149C34.127 32.0822 34.1677 32.1495 34.2096 32.2188C34.2842 32.3417 34.3602 32.4638 34.438 32.5847C34.709 33.036 34.7538 33.4431 34.6875 33.9647C34.521 34.3235 34.3107 34.5016 33.9649 34.6874C33.7178 34.7288 33.4744 34.7264 33.2243 34.7241C33.1499 34.7245 33.0754 34.725 32.9988 34.7254C32.7494 34.7266 32.5002 34.7257 32.2508 34.7248C32.0721 34.7252 31.8933 34.7257 31.7145 34.7263C31.2794 34.7275 30.8443 34.7273 30.4092 34.7265C30.0555 34.7258 29.7018 34.7257 29.3482 34.726C29.2978 34.7261 29.2474 34.7261 29.1956 34.7262C29.0933 34.7263 28.991 34.7264 28.8886 34.7265C27.9296 34.7273 26.9706 34.7263 26.0115 34.7248C25.1888 34.7235 24.3661 34.7237 23.5434 34.725C22.5877 34.7266 21.6321 34.7272 20.6765 34.7263C20.5745 34.7262 20.4726 34.7261 20.3707 34.726C20.2955 34.726 20.2955 34.726 20.2187 34.7259C19.8655 34.7257 19.5123 34.7261 19.1591 34.7268C18.6837 34.7277 18.2082 34.727 17.7327 34.7253C17.5581 34.725 17.3835 34.7251 17.2089 34.7257C16.9707 34.7265 16.7327 34.7255 16.4945 34.7241C16.3906 34.725 16.3906 34.725 16.2845 34.726C15.8779 34.7212 15.6423 34.671 15.3204 34.3983C15.0823 34.1477 15.0016 33.9228 14.9681 33.5853C14.9922 32.9696 15.3272 32.4952 15.6402 31.9837C15.8 31.7211 15.9538 31.4551 16.1081 31.1892C16.2347 30.9713 16.3621 30.7538 16.4896 30.5363C16.8477 29.9234 17.1987 29.3064 17.5495 28.6893C17.596 28.6076 17.6425 28.5259 17.6904 28.4417C17.7317 28.3692 17.7729 28.2966 17.8154 28.2218C17.8946 28.0858 17.9792 27.953 18.0665 27.8221C17.9509 27.822 17.9509 27.822 17.8329 27.8218C15.9584 27.8192 14.0839 27.8149 12.2094 27.8088C11.3029 27.806 10.3964 27.8036 9.48996 27.8025C8.69993 27.8016 7.90992 27.7997 7.1199 27.7965C6.70152 27.7949 6.28316 27.7937 5.86477 27.7938C5.47104 27.7939 5.07732 27.7926 4.68359 27.7902C4.53904 27.7896 4.39449 27.7895 4.24994 27.7899C4.05259 27.7904 3.85533 27.7891 3.65799 27.7874C3.60077 27.7879 3.54354 27.7885 3.48459 27.7891C3.10997 27.7832 2.90066 27.7048 2.60161 27.4608C2.25362 27.0802 2.2713 26.7218 2.27514 26.2323C2.27464 26.1529 2.27413 26.0735 2.27361 25.9918C2.27234 25.7295 2.27318 25.4673 2.27416 25.205C2.27396 25.0219 2.27368 24.8388 2.27332 24.6557C2.27289 24.2716 2.27348 23.8875 2.27486 23.5034C2.27643 23.062 2.27593 22.6207 2.27433 22.1793C2.27285 21.7523 2.27302 21.3254 2.27387 20.8984C2.27406 20.718 2.27383 20.5375 2.27315 20.3571C2.26966 19.1672 2.30565 18.0999 2.87712 17.0274C2.91426 16.9554 2.91426 16.9554 2.95214 16.882C3.15688 16.4958 3.39944 16.1565 3.68559 15.826C3.72872 15.7687 3.77186 15.7115 3.81629 15.6524C4.95008 14.3084 6.71913 13.8096 8.41448 13.8116ZM7.83607 16.2088C6.70424 16.38 5.89428 16.8522 5.20317 17.7772C3.91074 19.9192 4.62505 23.5688 4.62505 25.4374C9.53766 25.4374 14.4503 25.4374 19.5118 25.4374C19.8933 24.7696 20.2749 24.1019 20.668 23.4139C20.7396 23.3066 20.7396 23.3066 20.8125 23.1971C20.8344 23.0389 20.8344 23.0389 20.8312 22.8624C20.8317 22.7945 20.8322 22.7267 20.8326 22.6568C20.8323 22.5834 20.832 22.51 20.8317 22.4344C20.8319 22.3203 20.8319 22.3203 20.8322 22.2039C20.8323 22.0424 20.832 21.881 20.8314 21.7195C20.8306 21.4753 20.8314 21.2311 20.8323 20.9868C20.8333 19.5229 20.7914 18.2892 19.7212 17.1872C19.0368 16.5415 18.271 16.2515 17.3438 16.1874C17.2522 16.1782 17.2522 16.1782 17.1587 16.1688C16.5817 16.134 16.2617 16.3091 15.8017 16.6407C15.7345 16.6869 15.6673 16.7331 15.5981 16.7806C15.3854 16.9274 15.1745 17.0767 14.9635 17.2262C14.7505 17.3745 14.537 17.5224 14.3235 17.6702C14.1912 17.7621 14.0592 17.8544 13.9276 17.9472C13.868 17.9891 13.8083 18.0311 13.7469 18.0743C13.6947 18.1112 13.6426 18.1481 13.5888 18.1861C13.1598 18.4683 12.7936 18.5231 12.2852 18.4276C11.7747 18.1929 11.3276 17.846 10.8709 17.5218C10.627 17.3486 10.3818 17.1772 10.1362 17.0063C9.9885 16.9026 9.84254 16.7966 9.69654 16.6905C9.03814 16.2231 8.63022 16.1427 7.83607 16.2088ZM24.7872 20.9569C24.764 20.9982 24.7408 21.0394 24.717 21.0819C24.2283 21.9518 23.7338 22.8177 23.2295 23.6786C22.9018 24.2386 22.579 24.8013 22.2579 25.3651C21.8595 26.0643 21.4569 26.7607 21.0502 27.4552C20.7264 28.009 20.4075 28.5655 20.0899 29.1229C18.7755 31.4295 18.7755 31.4295 18.379 32.0621C18.2713 32.219 18.2713 32.219 18.2832 32.3749C22.6235 32.3749 26.9638 32.3749 31.4356 32.3749C31.3307 32.1127 31.2278 31.8876 31.0912 31.644C31.0512 31.5726 31.0113 31.5012 30.9701 31.4277C30.927 31.3512 30.8838 31.2748 30.8394 31.196C30.7944 31.1159 30.7493 31.0358 30.7029 30.9532C30.317 30.2691 29.9223 29.5903 29.5251 28.9126C29.2581 28.4569 28.9938 27.9997 28.7301 27.5421C28.6852 27.464 28.6402 27.386 28.5938 27.3056C28.5026 27.1473 28.4115 26.9891 28.3203 26.8308C28.0943 26.4385 27.8679 26.0463 27.6416 25.6542C27.5513 25.4976 27.461 25.341 27.3707 25.1844C27.3259 25.1069 27.2812 25.0294 27.2352 24.9496C26.4673 23.6187 25.6995 22.2878 24.9317 20.9569C24.884 20.9569 24.8363 20.9569 24.7872 20.9569Z" fill="#97AFC5"/>
<path d="M16.2731 3.44594C16.4983 3.63503 16.7096 3.83122 16.91 4.04665C16.9581 4.09444 17.0063 4.14223 17.0559 4.19146C18.2359 5.41162 18.5394 6.91296 18.5193 8.55986C18.484 9.78415 17.9552 11.0174 17.1268 11.9236C17.0689 11.9881 17.0111 12.0525 16.9515 12.1189C15.9828 13.1451 14.6267 13.8475 13.2004 13.9061C13.0443 13.9078 12.8882 13.9079 12.7321 13.9064C12.6497 13.9057 12.5674 13.9051 12.4825 13.9044C11.1612 13.8773 9.87257 13.4034 8.8885 12.5017C8.82319 12.4422 8.75789 12.3827 8.69061 12.3213C8.02269 11.6842 7.55645 10.9786 7.22639 10.117C7.19788 10.0427 7.16938 9.96847 7.14001 9.89198C6.64679 8.36923 6.86056 6.721 7.57734 5.3171C7.78339 4.93245 8.02465 4.59339 8.31037 4.26345C8.3535 4.20616 8.39663 4.14887 8.44107 4.08984C9.03365 3.3874 9.84675 2.92325 10.6951 2.60134C10.7754 2.57004 10.8557 2.53874 10.9385 2.50649C12.7285 1.92198 14.7856 2.31607 16.2731 3.44594ZM10.0877 5.85781C9.37637 6.72251 9.2162 7.65461 9.32209 8.74392C9.49122 9.63991 10.0525 10.4311 10.79 10.9593C11.6631 11.5159 12.608 11.6336 13.6202 11.4426C14.5613 11.1605 15.3293 10.5036 15.8051 9.6526C16.2118 8.84054 16.2632 7.84445 16.0021 6.97341C15.6447 6.06352 14.9695 5.33699 14.0916 4.91384C13.6473 4.7309 13.2476 4.65917 12.7683 4.66542C12.6785 4.66632 12.6785 4.66632 12.5869 4.66724C11.5779 4.69486 10.7773 5.12911 10.0877 5.85781Z" fill="#D6A3B3"/>
<path d="M25.2929 23.1248C25.6527 23.2919 25.8201 23.5072 26.0155 23.8475C26.0523 24.0773 26.0523 24.0773 26.0529 24.3265C26.0539 24.4203 26.0548 24.5141 26.0557 24.6108C26.0552 24.7123 26.0546 24.8138 26.0539 24.9154C26.0541 25.0205 26.0544 25.1256 26.0548 25.2307C26.0552 25.4505 26.0546 25.6703 26.0532 25.8901C26.0516 26.1709 26.0525 26.4516 26.0543 26.7323C26.0553 26.9492 26.055 27.1662 26.0542 27.3831C26.054 27.4866 26.0543 27.59 26.0549 27.6935C26.0601 28.7031 26.0601 28.7031 25.7265 29.1229C25.3818 29.3917 25.1096 29.4598 24.6736 29.4393C24.2985 29.3808 24.0749 29.227 23.8359 28.9263C23.6066 28.5028 23.6616 28.0076 23.6647 27.5395C23.6645 27.4343 23.6642 27.3292 23.6638 27.224C23.6634 27.0043 23.664 26.7846 23.6654 26.5649C23.667 26.2841 23.6661 26.0033 23.6643 25.7225C23.6633 25.5055 23.6636 25.2886 23.6644 25.0717C23.6646 24.9682 23.6643 24.8647 23.6636 24.7611C23.6629 24.6163 23.6642 24.4714 23.6656 24.3265C23.6659 24.2442 23.6661 24.162 23.6663 24.0773C23.7243 23.7144 23.9112 23.4908 24.1728 23.2422C24.546 23.0689 24.8882 23.0703 25.2929 23.1248Z" fill="#D6A3B3"/>
<path d="M25.2931 29.5564C25.6461 29.7203 25.8519 29.9261 26.0158 30.2791C26.0703 30.6838 26.0716 31.026 25.8983 31.3992C25.593 31.7207 25.3198 31.9132 24.8655 31.948C24.5424 31.9334 24.2615 31.8404 24.0228 31.6183C23.6991 31.2387 23.678 30.9813 23.6832 30.4948C23.7192 30.1078 23.9021 29.9313 24.173 29.6739C24.5463 29.5006 24.8885 29.502 25.2931 29.5564Z" fill="#D6A3B3"/>
</svg>
