<svg width="33" height="33" viewBox="0 0 33 33" fill="none" xmlns="http://www.w3.org/2000/svg">
<g clip-path="url(#clip0_47_1451)">
<path d="M19.4328 -0.032135C19.5145 -0.033132 19.5962 -0.034129 19.6803 -0.0351562C20.2663 -0.0327173 20.7993 0.0540072 21.2428 0.471405C21.816 1.1536 21.7673 1.86081 21.7209 2.70712C21.7651 2.70577 21.8092 2.70442 21.8547 2.70303C22.0572 2.69763 22.2596 2.69431 22.4621 2.69101C22.5316 2.68885 22.601 2.68669 22.6726 2.68446C23.1196 2.67901 23.4033 2.72515 23.7834 2.96494C23.8259 3.00747 23.8685 3.05001 23.9123 3.09384C24.0972 3.11439 24.0972 3.11439 24.317 3.11235C24.3793 3.11301 24.3793 3.11301 24.4428 3.11368C24.5332 3.11456 24.6236 3.11514 24.714 3.11547C24.8577 3.116 25.0014 3.11732 25.1451 3.11885C25.4512 3.12197 25.7573 3.12408 26.0634 3.12607C26.4161 3.12838 26.7688 3.13111 27.1215 3.13483C27.2619 3.13611 27.4022 3.13666 27.5426 3.13717C28.6145 3.14531 29.5324 3.28806 30.3294 4.05661C31.0619 4.85505 31.2351 5.70702 31.2278 6.77245C31.2281 6.8748 31.2284 6.97715 31.2289 7.0795C31.2298 7.35856 31.2292 7.6376 31.2283 7.91666C31.2275 8.21845 31.2283 8.52024 31.2289 8.82204C31.2298 9.41233 31.2293 10.0026 31.2283 10.5929C31.2273 11.2807 31.2275 11.9686 31.2277 12.6564C31.2281 13.8838 31.2272 15.1112 31.2256 16.3386C31.224 17.5289 31.2236 18.7192 31.2243 19.9095C31.225 21.2068 31.2251 22.504 31.2242 23.8013C31.2241 23.9397 31.224 24.078 31.2239 24.2164C31.2238 24.2845 31.2238 24.3525 31.2237 24.4227C31.2234 24.9019 31.2236 25.3811 31.2238 25.8603C31.2241 26.4443 31.2238 27.0283 31.2225 27.6123C31.2219 27.9102 31.2215 28.208 31.222 28.5058C31.2225 28.7787 31.222 29.0515 31.2209 29.3243C31.2206 29.4228 31.2207 29.5213 31.2211 29.6198C31.225 30.593 31.0309 31.4242 30.3415 32.1501C29.6418 32.8053 28.9108 33.0303 27.9664 33.0251C27.8903 33.0254 27.8142 33.0258 27.7358 33.0261C27.5262 33.0269 27.3167 33.0268 27.1071 33.0263C26.8804 33.026 26.6538 33.0268 26.4271 33.0275C25.9837 33.0286 25.5403 33.0286 25.097 33.0283C24.7364 33.028 24.3759 33.0281 24.0154 33.0285C23.964 33.0285 23.9126 33.0286 23.8596 33.0286C23.7551 33.0287 23.6507 33.0288 23.5463 33.0289C22.5679 33.0298 21.5895 33.0294 20.6112 33.0287C19.7171 33.0281 18.823 33.0289 17.9288 33.0304C17.0096 33.032 16.0903 33.0326 15.1711 33.0322C14.6555 33.032 14.1399 33.0321 13.6242 33.0333C13.1853 33.0342 12.7464 33.0342 12.3075 33.0331C12.0838 33.0326 11.8601 33.0324 11.6364 33.0334C11.3934 33.0343 11.1504 33.0335 10.9074 33.0324C10.8374 33.033 10.7675 33.0336 10.6954 33.0343C9.91565 33.0268 9.19384 32.7372 8.61023 32.2168C7.82954 31.4113 7.64925 30.476 7.65462 29.395C7.65451 29.3131 7.6544 29.2312 7.65428 29.1469C7.654 28.9213 7.65451 28.6957 7.65516 28.47C7.65572 28.2261 7.65552 27.9822 7.65543 27.7383C7.65536 27.3162 7.65576 26.8942 7.65649 26.4721C7.65754 25.8619 7.65787 25.2516 7.65803 24.6414C7.65832 23.6513 7.65917 22.6611 7.66039 21.6709C7.66158 20.7094 7.66249 19.7478 7.66304 18.7862C7.66307 18.7269 7.6631 18.6676 7.66314 18.6065C7.66331 18.3089 7.66347 18.0113 7.66363 17.7137C7.66497 15.2466 7.66724 12.7796 7.67012 10.3126C7.60917 10.323 7.54823 10.3334 7.48544 10.3441C6.20119 10.5535 4.88505 10.2592 3.81492 9.5232C2.77558 8.75832 2.04138 7.61178 1.82405 6.33384C1.6466 4.97981 1.92041 3.64098 2.74675 2.53869C3.5733 1.49701 4.73169 0.803819 6.05879 0.644623C7.39177 0.552547 8.66739 0.80102 9.71827 1.67512C10.171 2.08485 10.6049 2.48348 10.8928 3.02939C10.8928 3.07193 10.8928 3.11447 10.8928 3.15829C11.4251 3.15584 11.9573 3.15201 12.4896 3.14644C12.7367 3.1439 12.9839 3.14182 13.2311 3.14083C13.4697 3.13985 13.7083 3.13763 13.9469 3.13456C14.0379 3.1336 14.1288 3.13309 14.2198 3.13304C14.3474 3.13288 14.4749 3.13099 14.6025 3.12903C14.6751 3.12845 14.7477 3.12788 14.8224 3.12729C15.0598 3.08665 15.1639 2.99591 15.34 2.83603C15.5738 2.71876 15.7578 2.69163 16.0181 2.69453C16.0839 2.69495 16.1497 2.69536 16.2176 2.69579C16.2856 2.69687 16.3536 2.69795 16.4237 2.69907C16.4929 2.69965 16.5622 2.70023 16.6335 2.70083C16.8039 2.70234 16.9743 2.70446 17.1447 2.70712C17.1425 2.63085 17.1402 2.55458 17.1379 2.476C17.1198 1.62263 17.1529 1.06325 17.7414 0.401413C18.2644 -0.0231973 18.7759 -0.0401548 19.4328 -0.032135ZM18.3814 1.18442C18.1434 1.47001 18.0959 1.65141 18.0939 2.02457C18.0926 2.10429 18.0912 2.18401 18.0899 2.26615C18.0882 2.43416 18.087 2.60217 18.0863 2.77019C18.0849 2.84983 18.0834 2.92946 18.0818 3.01151C18.081 3.12094 18.081 3.12094 18.0802 3.23258C18.0471 3.41611 18.0471 3.41611 17.9434 3.53658C17.738 3.63368 17.5772 3.63325 17.3502 3.63338C17.2641 3.6345 17.178 3.63564 17.0919 3.63678C16.9569 3.63743 16.822 3.63766 16.6871 3.63755C16.5563 3.63778 16.4255 3.63955 16.2948 3.64144C16.1777 3.64162 16.1777 3.64162 16.0583 3.6418C15.8544 3.66032 15.8544 3.66032 15.7015 3.77213C15.557 3.99472 15.5609 4.19845 15.5636 4.45541C15.5634 4.50594 15.5631 4.55646 15.5629 4.60852C15.5627 4.71514 15.5632 4.82175 15.5642 4.92836C15.5656 5.09136 15.5643 5.25418 15.5626 5.41717C15.5628 5.5209 15.5631 5.62463 15.5636 5.72836C15.5631 5.77698 15.5626 5.82559 15.562 5.87568C15.5656 6.07606 15.5792 6.22208 15.6862 6.39382C15.9543 6.5774 16.22 6.54521 16.5376 6.54219C16.607 6.54254 16.6764 6.54289 16.7479 6.54325C16.9775 6.54405 17.2071 6.54299 17.4368 6.54183C17.5962 6.54184 17.7556 6.54194 17.915 6.54212C18.2492 6.5422 18.5834 6.54139 18.9176 6.53993C19.3463 6.5381 19.775 6.53827 20.2037 6.5391C20.5329 6.53954 20.8621 6.53904 21.1914 6.53824C21.3494 6.53795 21.5075 6.53793 21.6656 6.53818C21.8865 6.53837 22.1072 6.53731 22.328 6.5359C22.4264 6.53633 22.4264 6.53633 22.5267 6.53678C22.617 6.53582 22.617 6.53582 22.7091 6.53484C22.7874 6.53461 22.7874 6.53461 22.8672 6.53437C23.0488 6.50319 23.137 6.44522 23.2678 6.3165C23.2931 6.12576 23.3024 5.95933 23.2997 5.76865C23.2999 5.6882 23.2999 5.6882 23.3 5.60613C23.2999 5.49279 23.2992 5.37945 23.2978 5.26611C23.296 5.09252 23.2965 4.91905 23.2974 4.74545C23.297 4.63534 23.2964 4.52524 23.2957 4.41513C23.2959 4.36316 23.2961 4.31119 23.2963 4.25765C23.2985 3.98912 23.2985 3.98912 23.1817 3.75698C23.0117 3.62535 22.8531 3.64781 22.6416 3.64547C22.5786 3.64419 22.5786 3.64419 22.5142 3.64289C22.38 3.64026 22.2459 3.63886 22.1116 3.63766C21.9777 3.63613 21.8437 3.63431 21.7097 3.63175C21.588 3.62947 21.4663 3.62818 21.3445 3.62695C21.1509 3.61033 21.04 3.59279 20.883 3.48056C20.8139 3.27323 20.8095 3.11923 20.8072 2.90124C20.8049 2.78702 20.8049 2.78702 20.8026 2.67049C20.7998 2.51038 20.7978 2.35025 20.7965 2.19011C20.7886 1.62229 20.7886 1.62229 20.4963 1.16025C19.935 0.753325 18.9174 0.731777 18.3814 1.18442ZM3.62619 3.02486C2.91215 3.91648 2.66871 4.94108 2.77168 6.05868C2.91872 7.10417 3.48796 7.99743 4.30647 8.65292C5.26497 9.32293 6.2824 9.5259 7.42691 9.38457C8.39256 9.18415 9.26774 8.5942 9.84944 7.80698C10.4902 6.82995 10.7243 5.76332 10.5061 4.60849C10.2154 3.50794 9.5178 2.63129 8.543 2.05479C6.85361 1.11921 4.87981 1.63632 3.62619 3.02486ZM11.3439 4.12509C11.4078 4.63556 11.4716 5.14603 11.5373 5.67197C12.5582 5.67197 13.5792 5.67197 14.6311 5.67197C14.6311 5.1615 14.6311 4.65103 14.6311 4.12509C13.5463 4.12509 12.4616 4.12509 11.3439 4.12509ZM24.2346 4.12509C24.2346 4.63556 24.2346 5.14603 24.2346 5.67197C24.3425 5.67223 24.4504 5.6725 24.5616 5.67277C24.9205 5.67403 25.2793 5.67676 25.6382 5.68048C25.8555 5.68268 26.0728 5.68431 26.2901 5.68457C26.5407 5.68517 26.7912 5.68782 27.0418 5.69085C27.1188 5.6906 27.1959 5.69034 27.2752 5.69008C27.8599 5.70015 28.2724 5.84051 28.7342 6.19968C29.1676 6.75691 29.2443 7.24199 29.2379 7.93794C29.2383 8.02922 29.2387 8.12051 29.2393 8.21179C29.2405 8.46116 29.2398 8.7105 29.2386 8.95987C29.2378 9.22937 29.2388 9.49887 29.2395 9.76838C29.2407 10.2958 29.2402 10.8231 29.239 11.3505C29.2381 11.7792 29.2379 12.2079 29.2381 12.6366C29.2381 12.6977 29.2381 12.7588 29.2382 12.8217C29.2382 12.9458 29.2383 13.0699 29.2384 13.194C29.2389 14.2907 29.2379 15.3873 29.2359 16.484C29.2341 17.5475 29.2336 18.6109 29.2346 19.6744C29.2357 20.8332 29.236 21.992 29.2348 23.1508C29.2347 23.2745 29.2346 23.3981 29.2345 23.5218C29.2344 23.5826 29.2344 23.6434 29.2343 23.7061C29.2339 24.1341 29.2341 24.5622 29.2346 24.9902C29.2351 25.5121 29.2346 26.034 29.233 26.5558C29.2322 26.8219 29.2318 27.0881 29.2325 27.3542C29.2332 27.5981 29.2326 27.8419 29.2311 28.0858C29.2307 28.2152 29.2314 28.3447 29.2322 28.4741C29.2268 29.0653 29.1438 29.5752 28.7382 30.0272C28.2761 30.4446 27.7332 30.5246 27.1317 30.5192C27.0629 30.5196 26.994 30.52 26.9231 30.5204C26.694 30.5214 26.4649 30.5206 26.2357 30.5198C26.0709 30.5201 25.906 30.5206 25.7411 30.5211C25.3407 30.5222 24.9402 30.522 24.5398 30.5213C24.2142 30.5207 23.8887 30.5206 23.5631 30.5209C23.4935 30.521 23.4935 30.521 23.4224 30.521C23.3281 30.5211 23.2337 30.5212 23.1394 30.5213C22.2559 30.522 21.3725 30.5212 20.4891 30.5198C19.7318 30.5186 18.9745 30.5188 18.2173 30.52C17.3368 30.5214 16.4563 30.5219 15.5758 30.5212C15.4818 30.5211 15.3879 30.521 15.2939 30.5209C15.2477 30.5209 15.2014 30.5208 15.1538 30.5208C14.8288 30.5206 14.5038 30.5209 14.1787 30.5216C13.7409 30.5224 13.3032 30.5218 12.8654 30.5203C12.7049 30.52 12.5443 30.5201 12.3838 30.5206C12.1644 30.5213 11.9451 30.5204 11.7257 30.5192C11.6308 30.52 11.6307 30.52 11.5338 30.5209C10.9476 30.5143 10.4701 30.331 10.0549 29.9063C9.78098 29.4988 9.66065 29.1507 9.65923 28.6583C9.65887 28.5894 9.65852 28.5205 9.65816 28.4496C9.65809 28.3743 9.65803 28.299 9.65797 28.2214C9.65749 28.101 9.65749 28.101 9.657 27.9781C9.65618 27.7554 9.65565 27.5327 9.65523 27.3101C9.65472 27.0699 9.65384 26.8297 9.653 26.5895C9.6516 26.1734 9.65043 25.7573 9.64941 25.3412C9.64795 24.7396 9.64614 24.1381 9.64424 23.5365C9.64116 22.5604 9.63838 21.5844 9.63576 20.6083C9.63323 19.6602 9.63056 18.712 9.62771 17.7639C9.62744 17.6762 9.62745 17.6762 9.62718 17.5868C9.62629 17.2936 9.62541 17.0004 9.62452 16.7072C9.61718 14.2749 9.6103 11.8426 9.60371 9.41025C9.52333 9.45798 9.52333 9.45798 9.44132 9.50667C9.37128 9.54797 9.30124 9.58926 9.22908 9.6318C9.15954 9.67293 9.08999 9.71406 9.01835 9.75643C8.83027 9.86142 8.83027 9.86142 8.63691 9.92587C8.63249 12.4931 8.62908 15.0604 8.62704 17.6277C8.6268 17.9308 8.62655 18.234 8.62629 18.5372C8.62624 18.5975 8.62619 18.6579 8.62614 18.7201C8.6253 19.697 8.62377 20.674 8.622 21.6509C8.62019 22.6535 8.61911 23.6561 8.61872 24.6587C8.61846 25.2773 8.61762 25.8958 8.61605 26.5144C8.61502 26.9387 8.61472 27.363 8.61497 27.7873C8.61509 28.032 8.6149 28.2767 8.61386 28.5214C8.61275 28.787 8.61313 29.0527 8.61366 29.3183C8.6131 29.3952 8.61254 29.4721 8.61196 29.5513C8.61583 30.2737 8.76409 30.9087 9.2676 31.4474C9.92286 32.061 10.6226 32.1077 11.4822 32.1064C11.5532 32.1065 11.6243 32.1067 11.6975 32.1068C11.9349 32.1072 12.1723 32.1072 12.4097 32.1071C12.5801 32.1073 12.7506 32.1075 12.9211 32.1078C13.3357 32.1083 13.7503 32.1085 14.1649 32.1085C14.502 32.1085 14.8391 32.1087 15.1762 32.1089C16.1329 32.1094 17.0896 32.1097 18.0463 32.1097C18.0978 32.1097 18.1494 32.1097 18.2024 32.1097C18.254 32.1097 18.3056 32.1097 18.3588 32.1097C19.1948 32.1097 20.0308 32.1103 20.8668 32.1112C21.7261 32.1121 22.5854 32.1126 23.4447 32.1125C23.9268 32.1125 24.4089 32.1126 24.891 32.1133C25.3014 32.1139 25.7118 32.1141 26.1222 32.1136C26.3314 32.1134 26.5406 32.1135 26.7498 32.114C26.977 32.1145 27.2043 32.1142 27.4315 32.1137C27.5297 32.1142 27.5297 32.1142 27.6299 32.1147C28.363 32.1112 29.0533 31.9928 29.6199 31.4927C30.0183 31.048 30.2447 30.5246 30.2451 29.929C30.2453 29.8874 30.2455 29.8458 30.2457 29.8029C30.2463 29.6636 30.2459 29.5244 30.2455 29.3851C30.2457 29.2841 30.246 29.1832 30.2463 29.0823C30.2469 28.805 30.2468 28.5277 30.2465 28.2505C30.2463 27.9514 30.2469 27.6523 30.2474 27.3533C30.2482 26.7674 30.2484 26.1815 30.2482 25.5956C30.2481 25.1194 30.2482 24.6431 30.2485 24.1669C30.2485 24.0653 30.2485 24.0653 30.2486 23.9616C30.2487 23.824 30.2487 23.6863 30.2488 23.5487C30.2495 22.2575 30.2494 20.9663 30.249 19.6752C30.2487 18.494 30.2494 17.3128 30.2506 16.1316C30.2519 14.9189 30.2524 13.7061 30.2521 12.4934C30.252 11.8125 30.2522 11.1316 30.2531 10.4507C30.2539 9.87098 30.254 9.29128 30.2532 8.71157C30.2528 8.41583 30.2527 8.1201 30.2535 7.82436C30.2542 7.55349 30.254 7.28263 30.2531 7.01176C30.2529 6.91391 30.2531 6.81606 30.2536 6.71821C30.2576 5.90676 30.1685 5.30296 29.5842 4.70517C29.0554 4.28142 28.5559 4.11641 27.8785 4.11777C27.7566 4.11778 27.7566 4.11778 27.6322 4.11779C27.5445 4.11812 27.4568 4.11845 27.3691 4.1188C27.2786 4.11892 27.1881 4.11901 27.0976 4.11907C26.8605 4.11932 26.6234 4.11995 26.3862 4.12067C26.1439 4.12133 25.9015 4.12162 25.6591 4.12194C25.1842 4.12263 24.7094 4.12377 24.2346 4.12509ZM11.4084 6.63876C11.2595 7.02161 11.1106 7.40447 10.9572 7.79892C10.7387 8.10864 10.7387 8.10864 10.6439 8.23878C10.4848 8.54268 10.5184 8.88938 10.5227 9.22426C10.5222 9.30818 10.5218 9.3921 10.5213 9.47856C10.5201 9.71022 10.5212 9.94181 10.5228 10.1735C10.5241 10.4238 10.5231 10.6741 10.5224 10.9244C10.5215 11.4141 10.5225 11.9039 10.5243 12.3937C10.5263 12.9641 10.5263 13.5346 10.5262 14.1051C10.5261 15.1228 10.5279 16.1406 10.5307 17.1584C10.5334 18.1459 10.5348 19.1334 10.5347 20.1209C10.5347 20.1818 10.5347 20.2426 10.5347 20.3053C10.5346 20.366 10.5346 20.4268 10.5346 20.4894C10.5345 21.614 10.5356 22.7386 10.5374 23.8632C10.538 24.2609 10.5382 24.6585 10.5382 25.0561C10.5384 25.5406 10.5392 26.025 10.541 26.5094C10.5419 26.7566 10.5425 27.0037 10.5423 27.2509C10.542 27.5187 10.5433 27.7865 10.5447 28.0544C10.5444 28.1326 10.5441 28.2108 10.5437 28.2914C10.5464 28.8042 10.5464 28.8042 10.7639 29.2618C11.0075 29.4816 11.1614 29.592 11.4875 29.5927C11.545 29.593 11.6025 29.5933 11.6617 29.5936C11.7571 29.5936 11.7571 29.5936 11.8543 29.5936C11.9216 29.5938 11.9888 29.594 12.058 29.5943C12.2847 29.595 12.5115 29.5952 12.7382 29.5955C12.9001 29.5959 13.0621 29.5963 13.224 29.5968C13.7111 29.598 14.1982 29.5987 14.6853 29.5993C14.9146 29.5995 15.1439 29.5999 15.3732 29.6002C16.1353 29.6013 16.8975 29.6023 17.6596 29.6027C17.8574 29.6028 18.0553 29.603 18.2531 29.6031C18.3023 29.6031 18.3514 29.6032 18.4021 29.6032C19.1987 29.6037 19.9953 29.6054 20.792 29.6075C21.6096 29.6096 22.4272 29.6107 23.2449 29.611C23.704 29.6111 24.1632 29.6117 24.6224 29.6133C25.0543 29.6148 25.4861 29.6151 25.918 29.6144C26.0767 29.6144 26.2353 29.6148 26.394 29.6157C26.6103 29.6168 26.8266 29.6164 27.043 29.6155C27.106 29.6162 27.169 29.6169 27.2339 29.6177C27.5971 29.6142 27.8204 29.5794 28.1018 29.3263C28.2749 29.0853 28.3193 28.9203 28.3196 28.6252C28.3204 28.5108 28.3204 28.5108 28.3213 28.394C28.3207 28.2687 28.3207 28.2687 28.3201 28.1408C28.3204 28.0509 28.3207 27.9611 28.3212 27.8712C28.3221 27.6243 28.3218 27.3774 28.3213 27.1305C28.321 26.8642 28.3218 26.5979 28.3225 26.3316C28.3236 25.8099 28.3237 25.2882 28.3233 24.7665C28.3231 24.3426 28.3232 23.9186 28.3235 23.4947C28.3235 23.4343 28.3236 23.374 28.3236 23.3119C28.3237 23.1894 28.3238 23.0669 28.3239 22.9444C28.3248 21.7952 28.3245 20.646 28.3237 19.4967C28.3231 18.445 28.3239 17.3934 28.3255 16.3417C28.327 15.2621 28.3277 14.1826 28.3272 13.103C28.327 12.4968 28.3272 11.8906 28.3283 11.2844C28.3292 10.7683 28.3293 10.2523 28.3282 9.73625C28.3276 9.47291 28.3275 9.20958 28.3285 8.94624C28.3293 8.70518 28.329 8.46416 28.3278 8.22311C28.3274 8.09455 28.3283 7.96599 28.3293 7.83744C28.3266 7.28253 28.3266 7.28253 28.0373 6.83212C27.8096 6.65721 27.6426 6.61397 27.3582 6.60965C27.2533 6.60749 27.2533 6.60749 27.1463 6.60528C27.0714 6.60487 26.9966 6.60445 26.9194 6.60402C26.842 6.60322 26.7645 6.60243 26.6847 6.6016C26.5211 6.60034 26.3575 6.59962 26.1939 6.59939C25.9434 6.59848 25.6932 6.59414 25.4428 6.58967C25.2838 6.58887 25.1247 6.58827 24.9657 6.5879C24.8908 6.58618 24.816 6.58446 24.7388 6.58269C24.3764 6.57026 24.3764 6.57026 24.072 6.73131C24.0244 6.80764 23.9792 6.88561 23.9369 6.96506C23.7609 7.21177 23.482 7.31279 23.2033 7.4122C22.9497 7.45428 22.7027 7.45575 22.4461 7.45288C22.3733 7.45334 22.3005 7.4538 22.2254 7.45427C21.9866 7.45536 21.7478 7.45411 21.5089 7.45273C21.342 7.45279 21.1751 7.45295 21.0082 7.45321C20.6591 7.45339 20.3102 7.45248 19.9612 7.45067C19.5588 7.44861 19.1564 7.44861 18.7541 7.44972C18.3653 7.45075 17.9766 7.4503 17.5878 7.44921C17.4231 7.44888 17.2584 7.4489 17.0937 7.44931C16.8634 7.44966 16.6332 7.44834 16.4029 7.44658C16.3352 7.447 16.2676 7.44742 16.1979 7.44786C15.7521 7.44208 15.3757 7.37776 15.0464 7.05655C14.9335 6.92526 14.8375 6.7938 14.76 6.63876C13.6539 6.63876 12.5479 6.63876 11.4084 6.63876Z" fill="#97AFC5"/>
<path d="M25.2263 11.912C26.8808 13.3578 27.7885 15.3506 27.9647 17.5215C27.9858 17.8814 27.9904 18.2356 27.9205 18.5907C27.9059 18.6703 27.9059 18.6703 27.891 18.7516C27.844 18.8847 27.844 18.8847 27.6506 19.0136C27.5087 19.0304 27.5087 19.0304 27.3418 19.0313C27.2792 19.032 27.2166 19.0326 27.1521 19.0332C27.0846 19.0332 27.0172 19.0331 26.9476 19.033C26.8783 19.0333 26.8089 19.0336 26.7374 19.0339C26.5907 19.0342 26.444 19.0343 26.2973 19.034C26.0724 19.0338 25.8475 19.0353 25.6226 19.0369C25.4802 19.0371 25.3377 19.0371 25.1953 19.0371C25.1279 19.0377 25.0604 19.0382 24.9909 19.0389C24.897 19.0383 24.897 19.0383 24.8012 19.0376C24.7461 19.0377 24.691 19.0377 24.6342 19.0378C24.4609 19.0083 24.4065 18.9566 24.299 18.8203C24.2137 18.6496 24.2339 18.5006 24.2388 18.3134C24.2722 16.9724 23.8697 15.7636 22.9375 14.7799C21.9512 13.8341 20.6707 13.3697 19.3155 13.3836C17.9713 13.4247 16.7294 13.9687 15.7993 14.937C15.1717 15.6826 14.7009 16.6331 14.6819 17.6201C14.6792 17.7171 14.6792 17.7171 14.6764 17.8161C14.673 17.9514 14.6702 18.0867 14.6678 18.222C14.6658 18.2866 14.6638 18.3512 14.6618 18.4177C14.6605 18.4764 14.6592 18.5351 14.6579 18.5956C14.6254 18.7898 14.5727 18.8711 14.4377 19.0136C14.2938 19.0468 14.2938 19.0468 14.124 19.048C14.0285 19.0496 14.0285 19.0496 13.9311 19.0511C13.8624 19.0508 13.7937 19.0505 13.7229 19.0502C13.6523 19.0506 13.5816 19.051 13.5088 19.0514C13.3594 19.0518 13.2099 19.0516 13.0604 19.0508C12.8315 19.0499 12.6027 19.0521 12.3738 19.0546C12.2287 19.0546 12.0835 19.0545 11.9384 19.0542C11.8698 19.055 11.8013 19.0559 11.7306 19.0568C11.2599 19.0508 11.2599 19.0508 11.0431 18.8711C10.9524 18.6812 10.924 18.5621 10.923 18.3528C10.9225 18.2877 10.9219 18.2226 10.9214 18.1556C10.9232 18.0519 10.9232 18.0519 10.925 17.9461C10.9258 17.8744 10.9266 17.8027 10.9274 17.7289C10.9772 15.619 11.8459 13.8301 13.2775 12.3105C13.3169 12.267 13.3563 12.2234 13.3969 12.1786C16.4687 8.91074 21.958 9.15025 25.2263 11.912ZM19.9162 10.7636C19.9162 11.2954 19.9162 11.8271 19.9162 12.375C20.2353 12.4388 20.2353 12.4388 20.5607 12.5039C21.3546 12.6734 22.0744 12.9544 22.7522 13.4062C22.9878 13.388 23.1 13.2745 23.2607 13.1099C23.3064 13.0636 23.3521 13.0173 23.3992 12.9695C23.4462 12.9209 23.4933 12.8722 23.5417 12.8221C23.5897 12.7732 23.6377 12.7243 23.6872 12.674C23.8057 12.5532 23.9236 12.4321 24.0412 12.3105C23.0505 11.2232 21.3079 10.9017 19.9162 10.7636ZM14.8244 12.2461C15.1822 12.6833 15.5827 13.0746 15.9846 13.4707C16.0363 13.4379 16.0879 13.4052 16.1412 13.3715C16.9253 12.8907 17.7642 12.5786 18.6795 12.4603C18.823 12.4465 18.823 12.4465 18.9494 12.375C18.9494 11.8432 18.9494 11.3115 18.9494 10.7636C17.509 10.7636 15.9719 11.4046 14.8244 12.2461ZM13.8697 13.0621C12.7409 14.3018 11.9039 15.9083 11.92 17.6198C11.9213 17.7608 11.9227 17.9017 11.924 18.0469C12.4983 18.0469 13.0726 18.0469 13.6643 18.0469C13.6696 17.9192 13.6749 17.7916 13.6804 17.6601C13.7768 16.3821 14.2644 15.0798 15.2111 14.1797C15.1218 13.9786 15.0177 13.8407 14.8627 13.6852C14.8201 13.6424 14.7774 13.5996 14.7335 13.5555C14.6891 13.5116 14.6446 13.4676 14.5988 13.4223C14.5544 13.3774 14.5099 13.3324 14.4641 13.2861C14.4215 13.2437 14.3789 13.2012 14.335 13.1575C14.296 13.1186 14.257 13.0798 14.2168 13.0397C14.0629 12.9112 14.0157 12.9283 13.8697 13.0621ZM24.635 13.0556C24.5898 13.1015 24.5445 13.1474 24.4979 13.1947C24.4489 13.2442 24.3999 13.2936 24.3494 13.3445C24.2982 13.3968 24.247 13.4491 24.1943 13.5029C24.1426 13.5552 24.0909 13.6074 24.0377 13.6613C23.9097 13.7908 23.782 13.9207 23.6545 14.0508C23.6924 14.1013 23.6924 14.1013 23.7312 14.1529C23.8011 14.2462 23.8711 14.3395 23.941 14.4328C24.0151 14.5315 24.0895 14.63 24.1641 14.7283C24.8964 15.7281 25.1378 16.8409 25.2658 18.0469C25.8401 18.0469 26.4144 18.0469 27.0061 18.0469C26.9413 16.1206 26.3197 14.4865 24.9992 13.0646C24.84 12.9194 24.7977 12.9136 24.635 13.0556Z" fill="#D6A3B3"/>
<path d="M13.1131 20.6799C13.1693 20.6796 13.2256 20.6794 13.2836 20.6791C13.4728 20.6784 13.6621 20.6782 13.8513 20.6779C13.9867 20.6775 14.1221 20.6771 14.2575 20.6766C14.6259 20.6755 14.9942 20.6748 15.3626 20.6743C15.5925 20.674 15.8225 20.6736 16.0525 20.6732C16.7716 20.672 17.4908 20.671 18.2099 20.6705C19.0409 20.6699 19.8718 20.6682 20.7027 20.6656C21.3445 20.6636 21.9863 20.6627 22.6281 20.6625C23.0117 20.6623 23.3952 20.6617 23.7788 20.6601C24.1395 20.6586 24.5001 20.6583 24.8608 20.659C24.9933 20.659 25.1258 20.6586 25.2583 20.6577C25.439 20.6566 25.6196 20.6571 25.8002 20.6579C25.8528 20.6572 25.9054 20.6565 25.9596 20.6558C26.2003 20.6585 26.3473 20.6809 26.5553 20.8061C26.6836 20.9472 26.6836 20.9472 26.7198 21.1727C26.6836 21.3983 26.6836 21.3983 26.5875 21.5393C26.3563 21.7063 26.1397 21.6916 25.8651 21.6884C25.8079 21.6888 25.7507 21.6892 25.6918 21.6895C25.4997 21.6904 25.3077 21.6894 25.1157 21.6885C24.9782 21.6887 24.8406 21.6891 24.7031 21.6895C24.3293 21.6904 23.9556 21.6897 23.5818 21.6886C23.1911 21.6878 22.8004 21.6882 22.4097 21.6884C21.7536 21.6886 21.0975 21.6877 20.4413 21.6862C19.6821 21.6845 18.9228 21.6844 18.1636 21.6851C17.434 21.6858 16.7044 21.6854 15.9749 21.6845C15.664 21.6842 15.3531 21.6842 15.0422 21.6845C14.6764 21.6848 14.3106 21.6841 13.9448 21.6827C13.8103 21.6824 13.6757 21.6823 13.5412 21.6827C13.3581 21.683 13.1751 21.6822 12.9919 21.6811C12.9114 21.6817 12.9114 21.6817 12.8293 21.6823C12.4671 21.6783 12.4671 21.6783 12.3312 21.5695C12.2027 21.4083 12.1898 21.28 12.1816 21.0761C12.2622 20.8948 12.2622 20.8948 12.375 20.7538C12.6223 20.6714 12.8553 20.6798 13.1131 20.6799Z" fill="#D6A3B3"/>
<path d="M13.0463 26.1584C13.1031 26.1581 13.1599 26.1579 13.2184 26.1577C13.4098 26.1569 13.6012 26.1567 13.7926 26.1564C13.9293 26.156 14.0661 26.1556 14.2028 26.1552C14.5752 26.154 14.9475 26.1534 15.3198 26.1528C15.5522 26.1525 15.7847 26.1521 16.0171 26.1517C16.7436 26.1505 17.4702 26.1496 18.1967 26.149C19.0365 26.1484 19.8764 26.1467 20.7162 26.1441C21.3646 26.1421 22.013 26.1412 22.6614 26.141C23.0491 26.1408 23.4367 26.1402 23.8243 26.1386C24.1888 26.1371 24.5533 26.1369 24.9178 26.1375C25.0518 26.1375 25.1857 26.1371 25.3197 26.1363C25.5022 26.1351 25.6847 26.1356 25.8672 26.1364C25.9206 26.1357 25.9739 26.135 26.0288 26.1343C26.2594 26.1369 26.398 26.1477 26.5875 26.2846C26.73 26.4935 26.7233 26.6303 26.6837 26.8768C26.4961 27.0829 26.3859 27.1316 26.1073 27.1669C26.0053 27.1682 25.9032 27.1682 25.8012 27.167C25.7449 27.1673 25.6885 27.1677 25.6304 27.168C25.4415 27.1689 25.2527 27.168 25.0638 27.167C24.9284 27.1672 24.793 27.1676 24.6576 27.168C24.2898 27.1689 23.922 27.1682 23.5542 27.1672C23.1695 27.1663 22.7848 27.1667 22.4001 27.1669C21.754 27.1671 21.1079 27.1662 20.4618 27.1647C19.7146 27.163 18.9674 27.1629 18.2202 27.1637C17.5018 27.1643 16.7833 27.1639 16.0648 27.163C15.7589 27.1627 15.453 27.1627 15.1471 27.163C14.7869 27.1633 14.4268 27.1626 14.0666 27.1612C13.9344 27.1609 13.8021 27.1609 13.6698 27.1612C13.4894 27.1616 13.3091 27.1608 13.1287 27.1596C13.0762 27.16 13.0237 27.1604 12.9696 27.1608C12.6758 27.1575 12.4766 27.1301 12.2462 26.9413C12.1641 26.7052 12.1602 26.6008 12.2664 26.3733C12.4757 26.1019 12.7295 26.1583 13.0463 26.1584Z" fill="#D6A3B3"/>
<path d="M12.995 23.436C13.0524 23.4356 13.1098 23.4353 13.169 23.4349C13.3621 23.434 13.5552 23.4344 13.7483 23.4349C13.8865 23.4345 14.0246 23.4341 14.1628 23.4336C14.5385 23.4324 14.9143 23.4325 15.2901 23.4328C15.6034 23.433 15.9168 23.4326 16.2301 23.4323C16.969 23.4314 17.7078 23.4315 18.4467 23.4322C19.21 23.4329 19.9732 23.432 20.7365 23.4303C21.391 23.4289 22.0455 23.4284 22.6999 23.4288C23.0912 23.429 23.4825 23.4289 23.8737 23.4278C24.2415 23.4268 24.6093 23.427 24.977 23.4282C25.1123 23.4285 25.2475 23.4283 25.3828 23.4276C25.5669 23.4268 25.7509 23.4275 25.935 23.4286C26.016 23.4277 26.016 23.4277 26.0986 23.4268C26.4581 23.4314 26.4581 23.4314 26.6203 23.5798C26.7067 23.769 26.7095 23.8997 26.6838 24.1055C26.6203 24.2444 26.6203 24.2444 26.4904 24.3633C26.2977 24.3892 26.1284 24.3984 25.9355 24.3965C25.8494 24.3971 25.8494 24.3971 25.7616 24.3978C25.5687 24.399 25.3757 24.3983 25.1827 24.3977C25.0447 24.3981 24.9066 24.3987 24.7686 24.3993C24.3931 24.4008 24.0176 24.4006 23.642 24.4C23.3289 24.3997 23.0157 24.4002 22.7026 24.4006C21.964 24.4017 21.2254 24.4015 20.4868 24.4004C19.7241 24.3993 18.9614 24.4004 18.1986 24.4024C17.5445 24.4042 16.8903 24.4046 16.2361 24.4041C15.8451 24.4038 15.4541 24.4039 15.0631 24.4052C14.6955 24.4064 14.3279 24.406 13.9603 24.4044C13.8252 24.4041 13.69 24.4044 13.5549 24.4052C13.3708 24.4062 13.1868 24.4052 13.0027 24.4038C12.9221 24.4049 12.9221 24.4049 12.8398 24.4061C12.585 24.4019 12.4659 24.3875 12.2753 24.2122C12.1818 24.041 12.1818 24.041 12.1858 23.8396C12.3252 23.4121 12.5892 23.433 12.995 23.436Z" fill="#D6A3B3"/>
<path d="M17.6604 14.7597C17.8597 14.9112 18.0215 15.0931 18.1881 15.2794C18.2768 15.3775 18.3664 15.475 18.4567 15.5717C18.4957 15.6152 18.5347 15.6588 18.5748 15.7036C18.6855 15.8076 18.6855 15.8076 18.8251 15.7734C18.8866 15.7502 18.8866 15.7502 18.9494 15.7265C19.4101 15.6829 19.7951 15.7008 20.174 15.9843C20.4611 16.2541 20.6599 16.5267 20.7113 16.9262C20.7182 17.3999 20.6565 17.7433 20.3256 18.0954C19.9544 18.4318 19.6272 18.5293 19.1287 18.5179C18.6834 18.4685 18.4058 18.2468 18.1261 17.9101C17.9538 17.6462 17.9013 17.4216 17.9061 17.1082C17.9065 17.0483 17.9069 16.9884 17.9073 16.9267C17.9182 16.7578 17.9182 16.7578 17.9648 16.633C17.9993 16.4938 17.9993 16.4938 17.8953 16.3832C17.8517 16.3442 17.8082 16.3052 17.7633 16.2651C17.7166 16.2214 17.6699 16.1777 17.6217 16.1328C17.5218 16.0423 17.4216 15.9522 17.3211 15.8624C16.9599 15.5236 16.9599 15.5236 16.9126 15.22C16.9514 15.0175 16.9514 15.0175 17.0521 14.8604C17.279 14.715 17.3931 14.7181 17.6604 14.7597ZM18.9897 16.794C18.8628 16.9521 18.8628 16.9521 18.889 17.1848C18.9285 17.4188 18.9285 17.4188 19.1428 17.5312C19.373 17.5259 19.373 17.5259 19.5939 17.4668C19.7461 17.2802 19.7461 17.2802 19.7108 17.0438C19.6811 16.8056 19.6811 16.8056 19.465 16.6933C19.2537 16.6608 19.1697 16.6756 18.9897 16.794Z" fill="#97AFC5"/>
<path d="M6.74356 2.89648C6.96109 2.96497 6.96109 2.96497 7.06962 3.05837C7.20312 3.3171 7.18331 3.57223 7.1824 3.85925C7.18274 3.92122 7.18307 3.98319 7.18342 4.04704C7.18384 4.17793 7.18375 4.30882 7.1832 4.43971C7.18265 4.64004 7.18451 4.84024 7.18655 5.04056C7.18666 5.16779 7.18662 5.29501 7.18643 5.42224C7.18751 5.51208 7.18751 5.51208 7.18862 5.60374C7.18416 6.01632 7.18416 6.01632 7.03765 6.22539C6.82961 6.35986 6.68752 6.35111 6.44547 6.31653C6.30474 6.22525 6.30474 6.22525 6.18766 6.05872C6.14829 5.84752 6.15 5.63886 6.15115 5.42451C6.15075 5.36269 6.15035 5.30087 6.14994 5.23718C6.14948 5.10656 6.14969 4.97594 6.1505 4.84533C6.1514 4.64568 6.1492 4.44623 6.14674 4.2466C6.14668 4.11958 6.1468 3.99256 6.14712 3.86555C6.14627 3.80599 6.14541 3.74643 6.14453 3.68506C6.14874 3.3936 6.15854 3.26205 6.33672 3.02172C6.50992 2.90051 6.50992 2.90051 6.74356 2.89648Z" fill="#97AFC5"/>
<path d="M6.96116 7.1544C7.12455 7.30146 7.15137 7.38703 7.17868 7.60558C7.15137 7.82413 7.12455 7.90969 6.96116 8.05675C6.72534 8.13365 6.61956 8.14226 6.39316 8.03661C6.25217 7.92784 6.25217 7.92784 6.18772 7.79894C6.16895 7.58307 6.16422 7.45362 6.27231 7.26317C6.48729 7.04819 6.68519 7.07966 6.96116 7.1544Z" fill="#97AFC5"/>
</g>
<defs>
<clipPath id="clip0_47_1451">
<rect width="33" height="33" fill="white"/>
</clipPath>
</defs>
</svg>
