<svg width="30" height="30" viewBox="0 0 30 30" fill="none" xmlns="http://www.w3.org/2000/svg">
<path d="M20.3027 0.0878911C19.084 0.351563 17.7188 1.0957 16.8809 1.94531C15.6035 3.24609 14.9414 4.81055 14.9414 6.52734V6.93164L15.6035 6.89648C16.8809 6.82617 17.7656 6.42773 18.7676 5.45508C20.2383 4.03125 20.9707 2.45508 20.9766 0.685547V4.76837e-07L20.8184 0.00585985C20.7246 0.00585985 20.4961 0.0468755 20.3027 0.0878911Z" fill="black"/>
<path d="M19.3652 7.35386C18.709 7.47104 17.9766 7.69956 16.7812 8.15659C15.709 8.56089 15.6562 8.57846 15.1465 8.57846C14.6602 8.57846 14.5664 8.56089 13.9746 8.32651C11.8828 7.50034 11.0098 7.2894 9.84375 7.34214C8.79492 7.38901 8.13867 7.57651 7.06641 8.13315C4.95703 9.21714 3.42187 11.4789 2.92383 14.2152C2.73633 15.2347 2.73633 17.139 2.92383 18.3402C3.45703 21.7972 4.66992 24.6449 6.75 27.346C8.37305 29.4496 9.7207 30.2347 11.2031 29.9359C11.6309 29.8539 11.959 29.7484 12.9668 29.3792C15.1699 28.5707 15.9668 28.5824 18.3574 29.4671C19.3535 29.8363 19.8281 29.9417 20.5195 29.9417C22.125 29.9417 23.1738 29.1507 24.9199 26.6078C25.8633 25.2308 26.6309 23.7777 27.0645 22.5472L27.2402 22.0374L26.8477 21.8207C25.459 21.0472 24.5449 20.1566 23.9473 18.9964C23.2031 17.555 23.0098 15.6742 23.4434 14.0335C23.5898 13.4652 23.877 12.8382 24.2227 12.3167C24.5684 11.7953 25.3887 10.9749 25.9629 10.5707C26.3379 10.307 26.4141 10.2249 26.373 10.1488C26.1387 9.72104 25.377 8.94761 24.8145 8.55503C23.9766 7.98081 22.875 7.54721 21.7734 7.35386C21.1523 7.24839 19.9395 7.24839 19.3652 7.35386Z" fill="black"/>
</svg>
