<svg width="1200" height="400" viewBox="0 0 1200 400" fill="none" xmlns="http://www.w3.org/2000/svg">
<g clip-path="url(#clip0_15_1752)">
<path d="M0 44.6667L15.3333 43.3333C30.6667 42 61.3333 39.3333 92 34.6667C122.667 30 153.333 23.3333 184.267 24C215.067 24.6667 246.267 32.6667 277.067 36.6667C308 40.6667 338.667 40.6667 369.333 38.6667C400 36.6667 430.667 32.6667 461.333 28.6667C492 24.6667 522.667 20.6667 553.6 22.6667C584.4 24.6667 615.6 32.6667 646.4 35.3333C677.333 38 708 35.3333 738.667 34.6667C769.333 34 800 35.3333 830.667 34.6667C861.333 34 892 31.3333 922.933 28C953.733 24.6667 984.933 20.6667 1015.73 22C1046.67 23.3333 1077.33 30 1108 34.6667C1138.67 39.3333 1169.33 42 1184.67 43.3333L1200 44.6667V0H1184.67C1169.33 0 1138.67 0 1108 0C1077.33 0 1046.67 0 1015.73 0C984.933 0 953.733 0 922.933 0C892 0 861.333 0 830.667 0C800 0 769.333 0 738.667 0C708 0 677.333 0 646.4 0C615.6 0 584.4 0 553.6 0C522.667 0 492 0 461.333 0C430.667 0 400 0 369.333 0C338.667 0 308 0 277.067 0C246.267 0 215.067 0 184.267 0C153.333 0 122.667 0 92 0C61.3333 0 30.6667 0 15.3333 0H0V44.6667Z" fill="#BCBECD"/>
<path d="M0 72.6667L15.3333 74.0001C30.6667 75.3334 61.3333 78.0001 92 77.3334C122.667 76.6667 153.333 72.6667 184.267 74.6667C215.067 76.6667 246.267 84.6667 277.067 84.6667C308 84.6667 338.667 76.6667 369.333 70.0001C400 63.3334 430.667 58.0001 461.333 53.3334C492 48.6667 522.667 44.6667 553.6 50.6667C584.4 56.6667 615.6 72.6667 646.4 78.6667C677.333 84.6667 708 80.6667 738.667 77.3334C769.333 74.0001 800 71.3334 830.667 70.6667C861.333 70.0001 892 71.3334 922.933 69.3334C953.733 67.3334 984.933 62.0001 1015.73 59.3334C1046.67 56.6667 1077.33 56.6667 1108 61.3334C1138.67 66.0001 1169.33 75.3334 1184.67 80.0001L1200 84.6667V43.3334L1184.67 42.0001C1169.33 40.6667 1138.67 38.0001 1108 33.3334C1077.33 28.6667 1046.67 22.0001 1015.73 20.6667C984.933 19.3334 953.733 23.3334 922.933 26.6667C892 30.0001 861.333 32.6667 830.667 33.3334C800 34.0001 769.333 32.6667 738.667 33.3334C708 34.0001 677.333 36.6667 646.4 34.0001C615.6 31.3334 584.4 23.3334 553.6 21.3334C522.667 19.3334 492 23.3334 461.333 27.3334C430.667 31.3334 400 35.3334 369.333 37.3334C338.667 39.3334 308 39.3334 277.067 35.3334C246.267 31.3334 215.067 23.3334 184.267 22.6667C153.333 22.0001 122.667 28.6667 92 33.3334C61.3333 38.0001 30.6667 40.6667 15.3333 42.0001L0 43.3334V72.6667Z" fill="#C5C1D0"/>
<path d="M0 124.667L15.3333 135.333C30.6667 146 61.3333 167.333 92 170.667C122.667 174 153.333 159.333 184.267 155.333C215.067 151.333 246.267 158 277.067 156C308 154 338.667 143.333 369.333 136C400 128.667 430.667 124.667 461.333 128.667C492 132.667 522.667 144.667 553.6 148.667C584.4 152.667 615.6 148.667 646.4 151.333C677.333 154 708 163.333 738.667 163.333C769.333 163.333 800 154 830.667 156C861.333 158 892 171.333 922.933 174.667C953.733 178 984.933 171.333 1015.73 171.333C1046.67 171.333 1077.33 178 1108 178.667C1138.67 179.333 1169.33 174 1184.67 171.333L1200 168.667V83.3334L1184.67 78.6667C1169.33 74 1138.67 64.6667 1108 60C1077.33 55.3334 1046.67 55.3334 1015.73 58C984.933 60.6667 953.733 66 922.933 68C892 70 861.333 68.6667 830.667 69.3334C800 70 769.333 72.6667 738.667 76C708 79.3334 677.333 83.3334 646.4 77.3334C615.6 71.3334 584.4 55.3334 553.6 49.3334C522.667 43.3334 492 47.3334 461.333 52C430.667 56.6667 400 62 369.333 68.6667C338.667 75.3334 308 83.3334 277.067 83.3334C246.267 83.3334 215.067 75.3334 184.267 73.3334C153.333 71.3334 122.667 75.3334 92 76C61.3333 76.6667 30.6667 74 15.3333 72.6667L0 71.3334V124.667Z" fill="#CEC5D3"/>
<path d="M0 144.667L15.3333 155.333C30.6667 166 61.3333 187.333 92 189.333C122.667 191.333 153.333 174 184.267 168.667C215.067 163.333 246.267 170 277.067 169.333C308 168.667 338.667 160.667 369.333 153.333C400 146 430.667 139.333 461.333 142C492 144.667 522.667 156.667 553.6 163.333C584.4 170 615.6 171.333 646.4 174C677.333 176.667 708 180.667 738.667 180C769.333 179.333 800 174 830.667 176C861.333 178 892 187.333 922.933 191.333C953.733 195.333 984.933 194 1015.73 194C1046.67 194 1077.33 195.333 1108 193.333C1138.67 191.333 1169.33 186 1184.67 183.333L1200 180.667V167.333L1184.67 170C1169.33 172.667 1138.67 178 1108 177.333C1077.33 176.667 1046.67 170 1015.73 170C984.933 170 953.733 176.667 922.933 173.333C892 170 861.333 156.667 830.667 154.667C800 152.667 769.333 162 738.667 162C708 162 677.333 152.667 646.4 150C615.6 147.333 584.4 151.333 553.6 147.333C522.667 143.333 492 131.333 461.333 127.333C430.667 123.333 400 127.333 369.333 134.667C338.667 142 308 152.667 277.067 154.667C246.267 156.667 215.067 150 184.267 154C153.333 158 122.667 172.667 92 169.333C61.3333 166 30.6667 144.667 15.3333 134L0 123.333V144.667Z" fill="#D7C8D4"/>
<path d="M0 164.667L15.3333 175.333C30.6667 186 61.3333 207.333 92 210.667C122.667 214 153.333 199.333 184.267 194.667C215.067 190 246.267 195.333 277.067 192C308 188.667 338.667 176.667 369.333 169.333C400 162 430.667 159.333 461.333 164C492 168.667 522.667 180.667 553.6 188.667C584.4 196.667 615.6 200.667 646.4 203.333C677.333 206 708 207.333 738.667 206.667C769.333 206 800 203.333 830.667 203.333C861.333 203.333 892 206 922.933 210C953.733 214 984.933 219.333 1015.73 219.333C1046.67 219.333 1077.33 214 1108 210C1138.67 206 1169.33 203.333 1184.67 202L1200 200.667V179.333L1184.67 182C1169.33 184.667 1138.67 190 1108 192C1077.33 194 1046.67 192.667 1015.73 192.667C984.933 192.667 953.733 194 922.933 190C892 186 861.333 176.667 830.667 174.667C800 172.667 769.333 178 738.667 178.667C708 179.333 677.333 175.333 646.4 172.667C615.6 170 584.4 168.667 553.6 162C522.667 155.333 492 143.333 461.333 140.667C430.667 138 400 144.667 369.333 152C338.667 159.333 308 167.333 277.067 168C246.267 168.667 215.067 162 184.267 167.333C153.333 172.667 122.667 190 92 188C61.3333 186 30.6667 164.667 15.3333 154L0 143.333V164.667Z" fill="#DFCCD5"/>
<path d="M0 208.667L15.3333 224C30.6667 239.333 61.3333 270 92 272C122.667 274 153.333 247.333 184.267 238.667C215.067 230 246.267 239.333 277.067 240.667C308 242 338.667 235.333 369.333 229.333C400 223.333 430.667 218 461.333 221.333C492 224.667 522.667 236.667 553.6 238.667C584.4 240.667 615.6 232.667 646.4 238.667C677.333 244.667 708 264.667 738.667 266.667C769.333 268.667 800 252.667 830.667 248C861.333 243.333 892 250 922.933 256.667C953.733 263.333 984.933 270 1015.73 273.333C1046.67 276.667 1077.33 276.667 1108 269.333C1138.67 262 1169.33 247.333 1184.67 240L1200 232.667V199.333L1184.67 200.667C1169.33 202 1138.67 204.667 1108 208.667C1077.33 212.667 1046.67 218 1015.73 218C984.933 218 953.733 212.667 922.933 208.667C892 204.667 861.333 202 830.667 202C800 202 769.333 204.667 738.667 205.333C708 206 677.333 204.667 646.4 202C615.6 199.333 584.4 195.333 553.6 187.333C522.667 179.333 492 167.333 461.333 162.667C430.667 158 400 160.667 369.333 168C338.667 175.333 308 187.333 277.067 190.667C246.267 194 215.067 188.667 184.267 193.333C153.333 198 122.667 212.667 92 209.333C61.3333 206 30.6667 184.667 15.3333 174L0 163.333V208.667Z" fill="#E6D0D5"/>
<path d="M0 228.667L15.3333 244C30.6667 259.333 61.3333 290 92 294.667C122.667 299.333 153.333 278 184.267 270.667C215.067 263.333 246.267 270 277.067 272C308 274 338.667 271.333 369.333 264C400 256.667 430.667 244.667 461.333 247.333C492 250 522.667 267.333 553.6 272.667C584.4 278 615.6 271.333 646.4 274C677.333 276.667 708 288.667 738.667 290C769.333 291.333 800 282 830.667 277.333C861.333 272.667 892 272.667 922.933 280C953.733 287.333 984.933 302 1015.73 308C1046.67 314 1077.33 311.333 1108 300.667C1138.67 290 1169.33 271.333 1184.67 262L1200 252.667V231.333L1184.67 238.667C1169.33 246 1138.67 260.667 1108 268C1077.33 275.333 1046.67 275.333 1015.73 272C984.933 268.667 953.733 262 922.933 255.333C892 248.667 861.333 242 830.667 246.667C800 251.333 769.333 267.333 738.667 265.333C708 263.333 677.333 243.333 646.4 237.333C615.6 231.333 584.4 239.333 553.6 237.333C522.667 235.333 492 223.333 461.333 220C430.667 216.667 400 222 369.333 228C338.667 234 308 240.667 277.067 239.333C246.267 238 215.067 228.667 184.267 237.333C153.333 246 122.667 272.667 92 270.667C61.3333 268.667 30.6667 238 15.3333 222.667L0 207.333V228.667Z" fill="#ECD5D6"/>
<path d="M0 344.667L15.3333 348C30.6667 351.333 61.3333 358 92 359.333C122.667 360.667 153.333 356.667 184.267 355.333C215.067 354 246.267 355.333 277.067 354.667C308 354 338.667 351.333 369.333 353.333C400 355.333 430.667 362 461.333 364C492 366 522.667 363.333 553.6 364C584.4 364.667 615.6 368.667 646.4 368.667C677.333 368.667 708 364.667 738.667 361.333C769.333 358 800 355.333 830.667 356C861.333 356.667 892 360.667 922.933 363.333C953.733 366 984.933 367.333 1015.73 366C1046.67 364.667 1077.33 360.667 1108 360C1138.67 359.333 1169.33 362 1184.67 363.333L1200 364.667V251.333L1184.67 260.667C1169.33 270 1138.67 288.667 1108 299.333C1077.33 310 1046.67 312.667 1015.73 306.667C984.933 300.667 953.733 286 922.933 278.667C892 271.333 861.333 271.333 830.667 276C800 280.667 769.333 290 738.667 288.667C708 287.333 677.333 275.333 646.4 272.667C615.6 270 584.4 276.667 553.6 271.333C522.667 266 492 248.667 461.333 246C430.667 243.333 400 255.333 369.333 262.667C338.667 270 308 272.667 277.067 270.667C246.267 268.667 215.067 262 184.267 269.333C153.333 276.667 122.667 298 92 293.333C61.3333 288.667 30.6667 258 15.3333 242.667L0 227.333V344.667Z" fill="#F1DAD6"/>
<path d="M0 372.667L15.3333 376C30.6667 379.333 61.3333 386 92 386C122.667 386 153.333 379.333 184.267 378C215.067 376.667 246.267 380.667 277.067 383.333C308 386 338.667 387.333 369.333 388.667C400 390 430.667 391.333 461.333 391.333C492 391.333 522.667 390 553.6 389.333C584.4 388.667 615.6 388.667 646.4 386C677.333 383.333 708 378 738.667 377.333C769.333 376.667 800 380.667 830.667 382.667C861.333 384.667 892 384.667 922.933 384.667C953.733 384.667 984.933 384.667 1015.73 385.333C1046.67 386 1077.33 387.333 1108 388C1138.67 388.667 1169.33 388.667 1184.67 388.667H1200V363.333L1184.67 362C1169.33 360.667 1138.67 358 1108 358.667C1077.33 359.333 1046.67 363.333 1015.73 364.667C984.933 366 953.733 364.667 922.933 362C892 359.333 861.333 355.333 830.667 354.667C800 354 769.333 356.667 738.667 360C708 363.333 677.333 367.333 646.4 367.333C615.6 367.333 584.4 363.333 553.6 362.667C522.667 362 492 364.667 461.333 362.667C430.667 360.667 400 354 369.333 352C338.667 350 308 352.667 277.067 353.333C246.267 354 215.067 352.667 184.267 354C153.333 355.333 122.667 359.333 92 358C61.3333 356.667 30.6667 350 15.3333 346.667L0 343.333V372.667Z" fill="#F5DFD7"/>
<path d="M0 400.667H15.3333C30.6667 400.667 61.3333 400.667 92 400.667C122.667 400.667 153.333 400.667 184.267 400.667C215.067 400.667 246.267 400.667 277.067 400.667C308 400.667 338.667 400.667 369.333 400.667C400 400.667 430.667 400.667 461.333 400.667C492 400.667 522.667 400.667 553.6 400.667C584.4 400.667 615.6 400.667 646.4 400.667C677.333 400.667 708 400.667 738.667 400.667C769.333 400.667 800 400.667 830.667 400.667C861.333 400.667 892 400.667 922.933 400.667C953.733 400.667 984.933 400.667 1015.73 400.667C1046.67 400.667 1077.33 400.667 1108 400.667C1138.67 400.667 1169.33 400.667 1184.67 400.667H1200V387.333H1184.67C1169.33 387.333 1138.67 387.333 1108 386.667C1077.33 386 1046.67 384.667 1015.73 384C984.933 383.333 953.733 383.333 922.933 383.333C892 383.333 861.333 383.333 830.667 381.333C800 379.333 769.333 375.333 738.667 376C708 376.667 677.333 382 646.4 384.667C615.6 387.333 584.4 387.333 553.6 388C522.667 388.667 492 390 461.333 390C430.667 390 400 388.667 369.333 387.333C338.667 386 308 384.667 277.067 382C246.267 379.333 215.067 375.333 184.267 376.667C153.333 378 122.667 384.667 92 384.667C61.3333 384.667 30.6667 378 15.3333 374.667L0 371.333V400.667Z" fill="#F7E5D9"/>
</g>
<defs>
<clipPath id="clip0_15_1752">
<rect width="1200" height="400" fill="white"/>
</clipPath>
</defs>
</svg>
