<svg width="24" height="24" viewBox="0 0 24 24" fill="none" xmlns="http://www.w3.org/2000/svg">
<g clip-path="url(#clip0_47_1112)">
<path d="M15.3907 0.743025C15.4667 0.742522 15.4667 0.742522 15.5443 0.742009C15.5998 0.741883 15.6552 0.741757 15.7123 0.741627C15.7709 0.741319 15.8294 0.741011 15.8897 0.740693C16.0839 0.739768 16.278 0.739221 16.4721 0.738754C16.5391 0.738564 16.6061 0.738371 16.6732 0.738175C16.9883 0.737282 17.3035 0.736616 17.6186 0.736225C17.9813 0.735768 18.344 0.734536 18.7066 0.732639C18.9876 0.73122 19.2686 0.73053 19.5496 0.730376C19.7171 0.730266 19.8845 0.729853 20.052 0.728667C20.2394 0.727361 20.4267 0.727569 20.614 0.727894C20.6687 0.727293 20.7234 0.726693 20.7797 0.726074C21.4867 0.730519 22.07 1.00281 22.5801 1.48216C22.9664 1.88355 23.2543 2.45233 23.2568 3.01565C23.2573 3.09173 23.2573 3.09173 23.2578 3.16935C23.258 3.22477 23.2581 3.28019 23.2582 3.3373C23.2585 3.39586 23.2588 3.45441 23.2592 3.51475C23.2601 3.70886 23.2606 3.90298 23.2611 4.09709C23.2613 4.16412 23.2615 4.23114 23.2617 4.29817C23.2626 4.61333 23.2632 4.92848 23.2636 5.24364C23.2641 5.60631 23.2653 5.96897 23.2672 6.33164C23.2686 6.61262 23.2693 6.8936 23.2695 7.17458C23.2696 7.34207 23.27 7.50954 23.2712 7.67702C23.2725 7.86436 23.2723 8.05168 23.272 8.23903C23.2729 8.32103 23.2729 8.32103 23.2738 8.40468C23.2693 9.11168 22.997 9.69498 22.5177 10.2051C22.0919 10.6149 21.5156 10.8797 20.9236 10.8818C20.8924 10.882 20.8612 10.8822 20.8291 10.8823C20.7248 10.8829 20.6204 10.883 20.5161 10.8832C20.4412 10.8835 20.3664 10.8838 20.2915 10.8842C20.0459 10.8851 19.8002 10.8856 19.5545 10.8861C19.4699 10.8863 19.3853 10.8865 19.3006 10.8867C18.9032 10.8876 18.5057 10.8882 18.1083 10.8886C17.6495 10.8891 17.1908 10.8903 16.7321 10.8922C16.3774 10.8936 16.0228 10.8943 15.6681 10.8945C15.4563 10.8946 15.2445 10.895 15.0327 10.8962C14.8335 10.8973 14.6343 10.8975 14.435 10.897C14.362 10.897 14.2889 10.8973 14.2159 10.8979C14.116 10.8987 14.0162 10.8984 13.9163 10.8978C13.8605 10.8979 13.8046 10.898 13.7471 10.8981C13.4969 10.8603 13.3617 10.7468 13.2026 10.5551C13.1135 10.3843 13.1014 10.2778 13.1011 10.0861C13.1008 10.055 13.1005 10.024 13.1002 9.992C13.0995 9.88857 13.1001 9.78521 13.1007 9.68179C13.1004 9.60738 13.1001 9.53298 13.0997 9.45857C13.0988 9.25681 13.0991 9.05507 13.0997 8.85332C13.1002 8.64169 13.0998 8.43006 13.0995 8.21843C13.0991 7.86276 13.0996 7.5071 13.1005 7.15143C13.1015 6.74132 13.1012 6.33123 13.1001 5.92113C13.0993 5.56829 13.0992 5.21546 13.0997 4.86261C13.0999 4.65222 13.1 4.44183 13.0994 4.23144C13.0988 4.03328 13.0992 3.83515 13.1003 3.637C13.1005 3.56467 13.1005 3.49234 13.1 3.42001C13.0959 2.62655 13.3112 2.00076 13.8572 1.41972C14.2585 1.0335 14.8273 0.745588 15.3907 0.743025ZM14.8476 2.64836C14.583 3.02636 14.6183 3.43109 14.6196 3.87781C14.6196 3.9373 14.6196 3.99678 14.6196 4.05807C14.6196 4.22036 14.6198 4.38265 14.6202 4.54495C14.6205 4.71486 14.6205 4.88478 14.6205 5.05469C14.6207 5.37608 14.6211 5.69747 14.6215 6.01886C14.6221 6.3849 14.6223 6.75094 14.6226 7.11699C14.6231 7.86964 14.6239 8.62228 14.6249 9.37492C15.4191 9.37712 16.2132 9.37877 17.0074 9.37978C17.3762 9.38026 17.7449 9.38092 18.1137 9.382C18.4352 9.38293 18.7567 9.38354 19.0782 9.38374C19.2484 9.38387 19.4185 9.38415 19.5887 9.38484C19.7789 9.38559 19.9691 9.38561 20.1593 9.38557C20.2154 9.3859 20.2714 9.38624 20.3292 9.38659C20.7445 9.38556 21.0847 9.36185 21.4218 9.09367C21.7628 8.71482 21.757 8.33548 21.7567 7.8484C21.7569 7.79965 21.757 7.7509 21.7572 7.70068C21.7577 7.54013 21.7577 7.37959 21.7578 7.21904C21.7579 7.10702 21.7581 6.99499 21.7583 6.88297C21.7585 6.64837 21.7586 6.41376 21.7586 6.17916C21.7586 5.87911 21.7592 5.57907 21.7601 5.27903C21.7606 5.04772 21.7607 4.81641 21.7606 4.58509C21.7607 4.4745 21.7609 4.3639 21.7613 4.2533C21.7617 4.09839 21.7616 3.94349 21.7613 3.78858C21.7616 3.74328 21.7618 3.69797 21.7621 3.65129C21.7603 3.25233 21.7282 2.89684 21.4687 2.57805C21.1002 2.24647 20.7423 2.2429 20.2662 2.24311C20.2165 2.24296 20.1668 2.2428 20.1155 2.24264C19.9515 2.24219 19.7874 2.2421 19.6233 2.24205C19.509 2.2419 19.3947 2.24174 19.2804 2.24158C19.0409 2.2413 18.8014 2.24121 18.5619 2.24124C18.2554 2.24124 17.9489 2.2406 17.6424 2.2398C17.4063 2.23927 17.1703 2.23918 16.9342 2.2392C16.8212 2.23915 16.7083 2.23894 16.5953 2.23858C16.4371 2.23812 16.2789 2.23825 16.1207 2.23854C16.0743 2.23827 16.0279 2.23801 15.9801 2.23774C15.5333 2.23976 15.1616 2.29944 14.8476 2.64836Z" fill="#BCBECD"/>
<path d="M3.01565 0.743025C3.09173 0.742522 3.09173 0.742522 3.16935 0.742009C3.22477 0.741883 3.28019 0.741757 3.3373 0.741627C3.39586 0.741319 3.45441 0.741011 3.51475 0.740693C3.70886 0.739768 3.90298 0.739221 4.09709 0.738754C4.16412 0.738564 4.23114 0.738371 4.29817 0.738175C4.61333 0.737282 4.92848 0.736616 5.24364 0.736225C5.60631 0.735768 5.96897 0.734536 6.33164 0.732639C6.61262 0.73122 6.89359 0.73053 7.17458 0.730376C7.34207 0.730266 7.50954 0.729853 7.67702 0.728667C7.86436 0.727361 8.05168 0.727569 8.23903 0.727894C8.29369 0.727293 8.34836 0.726693 8.40468 0.726074C9.11168 0.730519 9.69498 1.00281 10.2051 1.48216C10.6149 1.90798 10.8797 2.48427 10.8818 3.07627C10.882 3.10743 10.8822 3.1386 10.8823 3.1707C10.8829 3.27506 10.883 3.3794 10.8832 3.48376C10.8835 3.5586 10.8838 3.63345 10.8842 3.7083C10.8851 3.95399 10.8856 4.19967 10.8861 4.44536C10.8863 4.52998 10.8865 4.6146 10.8867 4.69921C10.8876 5.09666 10.8882 5.49411 10.8886 5.89156C10.8891 6.3503 10.8903 6.80903 10.8922 7.26777C10.8936 7.62243 10.8943 7.97709 10.8945 8.33176C10.8946 8.54356 10.895 8.75535 10.8962 8.96716C10.8973 9.16638 10.8975 9.36559 10.897 9.56482C10.897 9.63787 10.8973 9.71092 10.8979 9.78397C10.8987 9.88385 10.8984 9.98367 10.8978 10.0835C10.8979 10.1394 10.898 10.1952 10.8981 10.2528C10.8603 10.5029 10.7468 10.6382 10.5551 10.7973C10.3843 10.8863 10.2778 10.8985 10.0861 10.8987C10.055 10.899 10.024 10.8993 9.992 10.8996C9.88857 10.9004 9.78521 10.8998 9.68179 10.8992C9.60738 10.8994 9.53298 10.8998 9.45857 10.9002C9.25681 10.901 9.05507 10.9007 8.85332 10.9001C8.64169 10.8996 8.43006 10.9001 8.21843 10.9004C7.86276 10.9007 7.5071 10.9003 7.15143 10.8994C6.74132 10.8983 6.33123 10.8987 5.92113 10.8997C5.56829 10.9006 5.21546 10.9007 4.86261 10.9002C4.65222 10.8999 4.44183 10.8999 4.23144 10.9005C4.03328 10.901 3.83515 10.9006 3.637 10.8996C3.56467 10.8993 3.49234 10.8994 3.42001 10.8998C2.62655 10.9039 2.00076 10.6886 1.41972 10.1427C1.0335 9.7413 0.745588 9.17252 0.743025 8.60919C0.74269 8.55848 0.742354 8.50776 0.742009 8.4555C0.741883 8.40008 0.741757 8.34465 0.741627 8.28755C0.741319 8.22899 0.741011 8.17043 0.740693 8.1101C0.739768 7.91598 0.739221 7.72187 0.738754 7.52776C0.738564 7.46073 0.738372 7.3937 0.738175 7.32668C0.737283 7.01152 0.736615 6.69637 0.736225 6.38121C0.735768 6.01854 0.734536 5.65588 0.732639 5.29321C0.73122 5.01223 0.730531 4.73125 0.730376 4.45027C0.730266 4.28278 0.729853 4.11531 0.728666 3.94783C0.72736 3.76048 0.727569 3.57317 0.727894 3.38582C0.727293 3.33115 0.726693 3.27649 0.726074 3.22017C0.730519 2.51317 1.00281 1.92987 1.48216 1.41972C1.88355 1.0335 2.45233 0.745588 3.01565 0.743025ZM2.47258 2.64836C2.22719 2.99892 2.24292 3.3616 2.24311 3.77645C2.24296 3.8252 2.2428 3.87395 2.24264 3.92417C2.24219 4.08472 2.2421 4.24526 2.24205 4.40581C2.2419 4.51783 2.24174 4.62985 2.24158 4.74188C2.2413 4.97648 2.24121 5.21108 2.24124 5.44569C2.24124 5.74573 2.2406 6.04578 2.2398 6.34582C2.23927 6.57713 2.23918 6.80844 2.2392 7.03975C2.23915 7.15035 2.23894 7.26095 2.23858 7.37154C2.23812 7.52645 2.23826 7.68135 2.23854 7.83627C2.23827 7.88157 2.23801 7.92688 2.23774 7.97356C2.23958 8.37252 2.27169 8.72801 2.53117 9.0468C2.83137 9.31698 3.10103 9.38094 3.50124 9.38056C3.5533 9.38062 3.60535 9.38069 3.65898 9.38076C3.71539 9.38059 3.7718 9.38042 3.82992 9.38025C3.91982 9.38026 3.91982 9.38026 4.01154 9.38027C4.17529 9.38028 4.33904 9.38 4.50279 9.37968C4.67414 9.37938 4.84549 9.37936 5.01684 9.3793C5.34106 9.37916 5.66527 9.37877 5.98948 9.3783C6.3587 9.37778 6.72792 9.37752 7.09714 9.37728C7.8564 9.37679 8.61566 9.37597 9.37492 9.37492C9.37712 8.58768 9.37877 7.80045 9.37978 7.0132C9.38026 6.64764 9.38092 6.28209 9.382 5.91653C9.38293 5.59778 9.38354 5.27904 9.38374 4.96029C9.38387 4.79163 9.38415 4.62297 9.38484 4.45432C9.3856 4.26569 9.38561 4.07708 9.38557 3.88845C9.38607 3.80526 9.38607 3.80526 9.38659 3.72038C9.38553 3.29602 9.37084 2.91857 9.09367 2.57805C8.72525 2.24647 8.36726 2.2429 7.89124 2.24311C7.84151 2.24296 7.79178 2.2428 7.74054 2.24264C7.57647 2.24219 7.41241 2.2421 7.24834 2.24205C7.13403 2.2419 7.01973 2.24174 6.90542 2.24158C6.66593 2.2413 6.42644 2.24121 6.18694 2.24124C5.88043 2.24124 5.57392 2.2406 5.2674 2.2398C5.03135 2.23927 4.79529 2.23918 4.55924 2.2392C4.44625 2.23915 4.33326 2.23894 4.22027 2.23858C4.06209 2.23812 3.90392 2.23825 3.74574 2.23854C3.69931 2.23827 3.65289 2.23801 3.60505 2.23774C3.15833 2.23976 2.78661 2.29944 2.47258 2.64836Z" fill="#BCBECD"/>
<path d="M13.9139 13.1011C13.9449 13.1008 13.976 13.1005 14.008 13.1002C14.1114 13.0995 14.2148 13.1001 14.3182 13.1007C14.3926 13.1004 14.467 13.1001 14.5414 13.0997C14.7432 13.0988 14.9449 13.0991 15.1466 13.0997C15.3583 13.1002 15.5699 13.0998 15.7815 13.0995C16.1372 13.0991 16.4929 13.0996 16.8485 13.1005C17.2586 13.1015 17.6687 13.1012 18.0788 13.1001C18.4317 13.0993 18.7845 13.0992 19.1373 13.0997C19.3477 13.0999 19.5581 13.1 19.7685 13.0994C19.9667 13.0988 20.1648 13.0992 20.363 13.1003C20.4353 13.1005 20.5076 13.1005 20.58 13.1C21.3734 13.0959 21.9992 13.3112 22.5802 13.8572C22.9665 14.2585 23.2544 14.8273 23.2569 15.3907C23.2574 15.4667 23.2574 15.4667 23.258 15.5443C23.2581 15.5998 23.2582 15.6552 23.2583 15.7123C23.2586 15.7709 23.259 15.8294 23.2593 15.8897C23.2602 16.0839 23.2607 16.278 23.2612 16.4721C23.2614 16.5391 23.2616 16.6061 23.2618 16.6732C23.2627 16.9883 23.2633 17.3035 23.2637 17.6186C23.2642 17.9813 23.2654 18.344 23.2673 18.7066C23.2687 18.9876 23.2694 19.2686 23.2696 19.5496C23.2697 19.7171 23.2701 19.8845 23.2713 20.052C23.2726 20.2394 23.2724 20.4267 23.2721 20.614C23.273 20.696 23.273 20.696 23.2739 20.7797C23.2694 21.4867 22.9972 22.07 22.5178 22.5801C22.1164 22.9664 21.5476 23.2543 20.9843 23.2568C20.9082 23.2573 20.9082 23.2573 20.8306 23.2578C20.7752 23.258 20.7198 23.2581 20.6627 23.2582C20.6041 23.2585 20.5455 23.2588 20.4852 23.2592C20.2911 23.2601 20.097 23.2606 19.9029 23.2611C19.8358 23.2613 19.7688 23.2615 19.7018 23.2617C19.3866 23.2626 19.0715 23.2632 18.7563 23.2636C18.3937 23.2641 18.031 23.2653 17.6683 23.2672C17.3873 23.2686 17.1064 23.2693 16.8254 23.2695C16.6579 23.2696 16.4904 23.27 16.3229 23.2712C16.1356 23.2725 15.9483 23.2723 15.7609 23.272C15.7063 23.2726 15.6516 23.2732 15.5953 23.2738C14.9273 23.2696 14.2995 23.0157 13.8106 22.5556C13.4003 22.1138 13.1203 21.5287 13.1181 20.9236C13.118 20.8924 13.1178 20.8612 13.1176 20.8291C13.1171 20.7248 13.1169 20.6204 13.1167 20.5161C13.1164 20.4412 13.1161 20.3664 13.1158 20.2915C13.1148 20.0459 13.1143 19.8002 13.1139 19.5545C13.1137 19.4699 13.1135 19.3853 13.1133 19.3006C13.1124 18.9032 13.1117 18.5057 13.1113 18.1083C13.1109 17.6495 13.1096 17.1908 13.1078 16.7321C13.1063 16.3774 13.1056 16.0228 13.1055 15.6681C13.1054 15.4563 13.105 15.2445 13.1038 15.0327C13.1027 14.8335 13.1025 14.6343 13.103 14.435C13.103 14.362 13.1027 14.2889 13.1021 14.2159C13.1012 14.116 13.1016 14.0162 13.1022 13.9163C13.1021 13.8605 13.102 13.8046 13.1018 13.7471C13.1397 13.4969 13.2532 13.3617 13.4449 13.2026C13.6157 13.1135 13.7221 13.1014 13.9139 13.1011ZM14.625 14.6249C14.6228 15.4122 14.6212 16.1994 14.6202 16.9866C14.6197 17.3522 14.619 17.7178 14.618 18.0833C14.617 18.4021 14.6164 18.7208 14.6162 19.0396C14.6161 19.2082 14.6158 19.3769 14.6151 19.5455C14.6144 19.7342 14.6144 19.9228 14.6144 20.1114C14.6141 20.1669 14.6137 20.2223 14.6134 20.2795C14.6144 20.7038 14.6291 21.0813 14.9063 21.4218C15.2747 21.7534 15.6327 21.7569 16.1087 21.7567C16.1833 21.757 16.1833 21.757 16.2594 21.7572C16.4235 21.7577 16.5876 21.7577 16.7516 21.7578C16.8659 21.7579 16.9802 21.7581 17.0945 21.7583C17.334 21.7585 17.5735 21.7586 17.813 21.7586C18.1195 21.7586 18.426 21.7592 18.7326 21.7601C18.9686 21.7606 19.2047 21.7607 19.4407 21.7606C19.5537 21.7607 19.6667 21.7609 19.7797 21.7613C19.9379 21.7617 20.096 21.7616 20.2542 21.7613C20.3007 21.7616 20.3471 21.7618 20.3949 21.7621C20.7843 21.7603 21.1069 21.7192 21.4219 21.4687C21.7629 21.0898 21.7571 20.7105 21.7568 20.2234C21.757 20.1746 21.7572 20.1259 21.7573 20.0757C21.7578 19.9151 21.7579 19.7546 21.7579 19.594C21.7581 19.482 21.7582 19.37 21.7584 19.258C21.7587 19.0234 21.7588 18.7888 21.7587 18.5542C21.7587 18.2541 21.7594 17.9541 21.7602 17.654C21.7607 17.4227 21.7608 17.1914 21.7608 16.9601C21.7608 16.8495 21.761 16.7389 21.7614 16.6283C21.7618 16.4734 21.7617 16.3185 21.7614 16.1636C21.7617 16.1183 21.762 16.073 21.7622 16.0263C21.7604 15.6273 21.7283 15.2718 21.4688 14.953C21.1686 14.6829 20.8989 14.6189 20.4987 14.6193C20.4467 14.6192 20.3946 14.6192 20.341 14.6191C20.2846 14.6193 20.2282 14.6194 20.17 14.6196C20.1101 14.6196 20.0502 14.6196 19.9884 14.6196C19.8247 14.6196 19.6609 14.6198 19.4972 14.6202C19.3258 14.6205 19.1545 14.6205 18.9831 14.6205C18.6589 14.6207 18.3347 14.6211 18.0105 14.6215C17.6413 14.6221 17.272 14.6223 16.9028 14.6226C16.1436 14.6231 15.3843 14.6239 14.625 14.6249Z" fill="#BCBECD"/>
<path d="M3.07627 13.1181C3.10743 13.118 3.1386 13.1178 3.1707 13.1176C3.27506 13.1171 3.3794 13.1169 3.48376 13.1167C3.5586 13.1164 3.63345 13.1161 3.7083 13.1158C3.95399 13.1148 4.19967 13.1143 4.44536 13.1139C4.52998 13.1137 4.6146 13.1135 4.69921 13.1133C5.09666 13.1124 5.49411 13.1117 5.89156 13.1113C6.3503 13.1109 6.80903 13.1096 7.26777 13.1078C7.62243 13.1063 7.97709 13.1056 8.33176 13.1055C8.54356 13.1054 8.75535 13.105 8.96716 13.1038C9.16638 13.1027 9.36559 13.1025 9.56482 13.103C9.63787 13.103 9.71092 13.1027 9.78397 13.1021C9.88385 13.1012 9.98367 13.1016 10.0835 13.1022C10.1394 13.1021 10.1952 13.102 10.2528 13.1018C10.5029 13.1397 10.6382 13.2532 10.7973 13.4449C10.8863 13.6157 10.8985 13.7221 10.8987 13.9139C10.899 13.9449 10.8993 13.976 10.8996 14.008C10.9004 14.1114 10.8998 14.2148 10.8992 14.3182C10.8994 14.3926 10.8998 14.467 10.9002 14.5414C10.901 14.7432 10.9007 14.9449 10.9001 15.1466C10.8996 15.3583 10.9001 15.5699 10.9004 15.7815C10.9007 16.1372 10.9003 16.4929 10.8994 16.8485C10.8983 17.2586 10.8987 17.6687 10.8997 18.0788C10.9006 18.4317 10.9007 18.7845 10.9002 19.1373C10.8999 19.3477 10.8999 19.5581 10.9005 19.7685C10.901 19.9667 10.9006 20.1648 10.8996 20.363C10.8993 20.4353 10.8994 20.5076 10.8998 20.58C10.9039 21.3734 10.6886 21.9992 10.1427 22.5802C9.7413 22.9665 9.17252 23.2544 8.60919 23.2569C8.53312 23.2574 8.53312 23.2574 8.4555 23.258C8.40008 23.2581 8.34465 23.2582 8.28755 23.2583C8.22899 23.2586 8.17043 23.259 8.1101 23.2593C7.91598 23.2602 7.72187 23.2607 7.52776 23.2612C7.46073 23.2614 7.3937 23.2616 7.32668 23.2618C7.01152 23.2627 6.69637 23.2633 6.38121 23.2637C6.01854 23.2642 5.65588 23.2654 5.29321 23.2673C5.01223 23.2687 4.73125 23.2694 4.45027 23.2696C4.28278 23.2697 4.11531 23.2701 3.94783 23.2713C3.76048 23.2726 3.57317 23.2724 3.38582 23.2721C3.33115 23.2727 3.27649 23.2733 3.22017 23.2739C2.55223 23.2697 1.92437 23.0158 1.43547 22.5557C1.04922 22.1398 0.745643 21.5598 0.743025 20.9843C0.74269 20.9336 0.742354 20.8829 0.742009 20.8306C0.741883 20.7752 0.741757 20.7198 0.741627 20.6627C0.741319 20.6041 0.741011 20.5455 0.740693 20.4852C0.739768 20.2911 0.739221 20.097 0.738754 19.9029C0.738564 19.8358 0.738372 19.7688 0.738175 19.7018C0.737283 19.3866 0.736615 19.0715 0.736225 18.7563C0.735768 18.3937 0.734536 18.031 0.732639 17.6683C0.73122 17.3873 0.730531 17.1064 0.730376 16.8254C0.730266 16.6579 0.729853 16.4904 0.728667 16.3229C0.727361 16.1356 0.727569 15.9483 0.727894 15.7609C0.727293 15.7063 0.726693 15.6516 0.726074 15.5953C0.730519 14.8883 1.00281 14.305 1.48216 13.7948C1.90798 13.3851 2.48427 13.1203 3.07627 13.1181ZM2.47258 15.0235C2.22719 15.374 2.24292 15.7367 2.24311 16.1516C2.24296 16.2003 2.2428 16.2491 2.24264 16.2993C2.24219 16.4598 2.2421 16.6204 2.24205 16.7809C2.2419 16.8929 2.24174 17.005 2.24158 17.117C2.2413 17.3516 2.24121 17.5862 2.24124 17.8208C2.24124 18.1209 2.2406 18.4209 2.2398 18.7209C2.23927 18.9522 2.23918 19.1836 2.2392 19.4149C2.23915 19.5255 2.23894 19.6361 2.23858 19.7467C2.23812 19.9016 2.23826 20.0565 2.23854 20.2114C2.23827 20.2567 2.23801 20.302 2.23774 20.3487C2.23958 20.7476 2.27169 21.1031 2.53117 21.4219C2.8996 21.7535 3.25759 21.7571 3.7336 21.7568C3.8082 21.7571 3.8082 21.7571 3.8843 21.7573C4.04837 21.7578 4.21244 21.7579 4.37651 21.7579C4.49081 21.7581 4.60512 21.7582 4.71942 21.7584C4.95892 21.7587 5.19841 21.7588 5.4379 21.7587C5.74442 21.7587 6.05093 21.7594 6.35745 21.7602C6.5935 21.7607 6.82955 21.7608 7.06561 21.7608C7.1786 21.7608 7.29159 21.761 7.40458 21.7614C7.56276 21.7618 7.72093 21.7617 7.87911 21.7614C7.92554 21.7617 7.97196 21.762 8.01979 21.7622C8.40918 21.7605 8.7318 21.7194 9.0468 21.4688C9.41217 21.0628 9.38182 20.6434 9.38025 20.1222C9.38026 20.0329 9.38026 20.0329 9.38027 19.9419C9.38028 19.7796 9.38 19.6173 9.37968 19.455C9.37938 19.2851 9.37936 19.1152 9.3793 18.9453C9.37916 18.6239 9.37877 18.3025 9.3783 17.9811C9.37778 17.6151 9.37752 17.249 9.37728 16.883C9.37679 16.1303 9.37597 15.3777 9.37492 14.625C8.58076 14.6228 7.7866 14.6212 6.99244 14.6202C6.62367 14.6197 6.25491 14.619 5.88615 14.618C5.56464 14.617 5.24312 14.6164 4.92161 14.6162C4.75146 14.6161 4.58132 14.6158 4.41117 14.6151C4.22096 14.6144 4.03077 14.6144 3.84056 14.6144C3.78449 14.6141 3.72842 14.6137 3.67065 14.6134C3.19832 14.6145 2.80706 14.6518 2.47258 15.0235Z" fill="#BCBECD"/>
</g>
<defs>
<clipPath id="clip0_47_1112">
<rect width="24" height="24" fill="white"/>
</clipPath>
</defs>
</svg>
