<svg width="35" height="35" viewBox="0 0 35 35" fill="none" xmlns="http://www.w3.org/2000/svg">
<path d="M15.5432 5.98569C15.5998 5.98611 15.6565 5.98652 15.7148 5.98696C16.3695 6.0036 16.8813 6.22002 17.4316 6.56247C17.4422 6.48422 17.4422 6.48422 17.453 6.40439C17.5059 6.19738 17.5339 6.13936 17.705 6.01559C17.9122 5.98906 17.9122 5.98906 18.1641 5.98836C18.2087 5.98816 18.2532 5.98796 18.2992 5.98776C18.3933 5.98762 18.4875 5.988 18.5817 5.98886C18.7254 5.98995 18.8691 5.98887 19.0128 5.98756C19.1045 5.98769 19.1961 5.98795 19.2877 5.98836C19.3709 5.98859 19.4541 5.98882 19.5398 5.98906C19.7762 6.01809 19.867 6.04873 20.0293 6.22067C20.1059 6.38394 20.1059 6.38394 20.1665 6.57502C20.2022 6.67858 20.2022 6.67858 20.2386 6.78424C20.2868 6.92905 20.3336 7.07433 20.3791 7.22003C20.5103 7.61095 20.5103 7.61095 20.7939 7.89334C20.97 7.96355 21.1455 8.01574 21.3281 8.06638C21.4433 8.11188 21.5579 8.15905 21.6718 8.2079C21.7272 8.23108 21.7827 8.25425 21.8399 8.27813C21.8952 8.3013 21.9504 8.32448 22.0074 8.34836C22.0646 8.37206 22.1217 8.39577 22.1806 8.42019C22.2354 8.44319 22.2903 8.46619 22.3468 8.48988C22.4203 8.52057 22.4203 8.52057 22.4953 8.55187C22.6269 8.61325 22.6269 8.61325 22.832 8.74997C23.2632 8.73008 23.6375 8.51001 24.0192 8.32579C24.5542 8.07677 24.5542 8.07677 24.8828 8.13473C25.2233 8.33503 25.4876 8.58376 25.7642 8.86372C25.8075 8.90701 25.8508 8.9503 25.8953 8.99491C25.9861 9.08587 26.0767 9.17699 26.1671 9.26827C26.3059 9.40833 26.4453 9.54782 26.5847 9.68724C26.673 9.77586 26.7612 9.86451 26.8494 9.9532C26.8912 9.995 26.9329 10.0368 26.9759 10.0799C27.3536 10.4619 27.3536 10.4619 27.3696 10.8037C27.3665 11.1326 27.2576 11.3346 27.0936 11.6133C26.7973 12.1218 26.7973 12.1218 26.7553 12.6927C26.8769 13.0613 27.0652 13.3928 27.2605 13.7268C27.3747 13.9328 27.4471 14.1354 27.5189 14.3597C27.5387 14.4211 27.5585 14.4825 27.579 14.5458C27.6172 14.6972 27.6172 14.6972 27.6172 14.9023C27.6546 14.9124 27.6921 14.9224 27.7306 14.9328C28.1087 15.0397 28.4769 15.1672 28.8434 15.3082C28.8878 15.3246 28.9323 15.3411 28.9781 15.358C29.2414 15.4617 29.3859 15.5486 29.5312 15.791C29.5582 15.9513 29.5582 15.9513 29.5599 16.1304C29.5616 16.2313 29.5616 16.2313 29.5632 16.3343C29.5632 16.4427 29.5632 16.4427 29.5633 16.5534C29.5638 16.628 29.5643 16.7027 29.5648 16.7796C29.5656 16.9375 29.5658 17.0953 29.5655 17.2532C29.5654 17.4946 29.5682 17.7359 29.5713 17.9773C29.5716 18.1307 29.5718 18.2841 29.5718 18.4375C29.5735 18.5457 29.5735 18.5457 29.5752 18.6561C29.5705 19.1548 29.5705 19.1548 29.3792 19.4185C29.2019 19.5421 29.0491 19.6294 28.8468 19.7038C28.7838 19.7273 28.7207 19.7509 28.6558 19.7752C28.5908 19.7984 28.5258 19.8216 28.4588 19.8456C28.3602 19.8824 28.3602 19.8824 28.2595 19.9199C27.7771 20.0976 27.7771 20.0976 27.6172 20.0976C27.596 20.2182 27.596 20.2182 27.5744 20.3412C27.507 20.6447 27.4036 20.929 27.2882 21.217C27.2708 21.2618 27.2534 21.3065 27.2355 21.3526C27.1527 21.56 27.0712 21.737 26.9458 21.9233C26.8128 22.1274 26.7517 22.2454 26.7285 22.4902C26.8186 22.7948 26.9578 23.076 27.1074 23.3554C27.3031 23.7246 27.4587 24.0522 27.3437 24.4726C27.2154 24.6868 27.044 24.8468 26.8652 25.0195C26.7999 25.0862 26.7348 25.1531 26.6699 25.2202C26.4862 25.4096 26.3005 25.5969 26.114 25.7834C25.9971 25.9005 25.8807 26.0181 25.7644 26.1357C25.6896 26.2107 25.6148 26.2856 25.5399 26.3605C25.4882 26.413 25.4882 26.413 25.4355 26.4665C25.2043 26.6961 25.027 26.8427 24.7033 26.8932C24.3041 26.8447 23.9641 26.6407 23.6075 26.4627C23.1682 26.2485 23.1682 26.2485 22.6953 26.3183C22.5134 26.3991 22.5134 26.3991 22.3321 26.502C22.0832 26.6335 21.8412 26.7438 21.573 26.8276C21.5211 26.8439 21.4693 26.8603 21.4159 26.8772C21.314 26.9084 21.2115 26.9379 21.1085 26.9655C20.9028 27.0292 20.7581 27.0791 20.6253 27.2538C20.552 27.3953 20.4938 27.5358 20.4394 27.6855C20.4214 27.7329 20.4035 27.7802 20.3849 27.829C20.3153 28.018 20.2496 28.2081 20.1857 28.3992C20.0866 28.6787 20.0157 28.8382 19.7558 28.9843C19.4628 29.0235 19.1693 29.0196 18.874 29.0186C18.7308 29.0185 18.5879 29.0214 18.4447 29.0244C18.3534 29.0248 18.2621 29.0249 18.1707 29.0249C18.0466 29.0257 18.0466 29.0257 17.92 29.0264C17.705 28.9843 17.705 28.9843 17.5392 28.8237C17.4316 28.6425 17.4316 28.6425 17.4316 28.4375C17.3657 28.4712 17.2998 28.505 17.2319 28.5397C17.1447 28.584 17.0574 28.6282 16.9702 28.6725C16.9052 28.7058 16.9052 28.7058 16.8388 28.7399C16.18 29.0727 15.3907 29.0832 14.6713 28.9376C13.9818 28.7012 13.4129 28.2789 12.9883 27.6855C12.9671 27.608 12.946 27.5304 12.9242 27.4505C12.9002 27.3927 12.8762 27.3349 12.8515 27.2754C12.7046 27.2234 12.5603 27.2005 12.4067 27.175C11.7751 27.0403 11.1995 26.5259 10.8184 26.0251C10.5957 25.6791 10.5957 25.6791 10.5957 25.498C10.5125 25.5037 10.4293 25.5093 10.3436 25.5151C9.58217 25.5127 8.81448 25.1871 8.2565 24.6753C7.85626 24.2519 7.59411 23.7852 7.43833 23.2251C7.32748 22.9113 7.09567 22.8209 6.81508 22.6683C6.1355 22.2635 5.77143 21.6227 5.52774 20.8891C5.31057 19.989 5.49905 19.1082 5.9686 18.3246C6.17759 18.0142 6.4079 17.8002 6.69919 17.5683C6.69919 17.5232 6.69919 17.4781 6.69919 17.4316C6.6301 17.3766 6.56102 17.3216 6.48984 17.265C5.85239 16.7308 5.52535 15.9395 5.44282 15.1253C5.41118 14.1262 5.73113 13.3562 6.40866 12.6336C6.61076 12.435 6.80588 12.3122 7.05808 12.185C7.35093 12.0208 7.43458 11.8954 7.52805 11.5741C7.54699 11.503 7.56594 11.432 7.58546 11.3588C7.78652 10.7443 8.27095 10.2405 8.81833 9.91208C9.30484 9.67379 9.76248 9.48949 10.3094 9.49765C10.3904 9.49857 10.3904 9.49857 10.4731 9.49952C10.5338 9.50071 10.5338 9.50071 10.5957 9.50192C10.6168 9.43425 10.6168 9.43425 10.6384 9.3652C10.9688 8.64442 11.5468 8.16183 12.2659 7.85676C12.4602 7.78611 12.6453 7.7413 12.8515 7.72458C12.8769 7.63364 12.8769 7.63364 12.9028 7.54086C13.1336 6.9293 13.7057 6.48578 14.2871 6.22067C14.7098 6.04847 15.0876 5.97991 15.5432 5.98569ZM18.5937 7.10934C18.5921 7.71424 18.5909 8.31914 18.5902 8.92405C18.5898 9.2049 18.5893 9.48575 18.5886 9.7666C18.5878 10.0374 18.5874 10.3082 18.5872 10.579C18.5871 10.6826 18.5869 10.7861 18.5865 10.8897C18.586 11.0342 18.5859 11.1788 18.586 11.3233C18.5858 11.4057 18.5857 11.4882 18.5855 11.5731C18.5726 11.7521 18.5726 11.7521 18.6621 11.8261C18.8127 11.8548 18.9638 11.8815 19.115 11.9073C20.5288 12.1747 21.7529 12.9458 22.6307 14.0919C23.5797 15.4849 23.8948 17.0688 23.6056 18.7246C23.2407 20.2651 22.3201 21.5572 20.986 22.3991C20.3224 22.7985 19.6164 23.007 18.857 23.1367C18.6696 23.1534 18.6696 23.1534 18.5937 23.2422C18.5873 23.3869 18.5857 23.5318 18.586 23.6766C18.5859 23.722 18.5859 23.7673 18.5859 23.8141C18.586 23.9646 18.5865 24.1151 18.587 24.2657C18.5872 24.3698 18.5873 24.4739 18.5873 24.578C18.5876 24.8526 18.5883 25.1271 18.589 25.4017C18.5897 25.6816 18.59 25.9616 18.5904 26.2416C18.5911 26.7912 18.5923 27.3409 18.5937 27.8906C18.7516 27.8906 18.9095 27.8906 19.0722 27.8906C19.0929 27.8409 19.1137 27.7912 19.135 27.74C19.1953 27.5953 19.256 27.4509 19.3171 27.3066C19.3803 27.1526 19.4401 26.9972 19.496 26.8404C19.5225 26.7682 19.5491 26.696 19.5764 26.6217C19.5995 26.5553 19.6226 26.489 19.6463 26.4206C19.7962 26.187 19.9806 26.1264 20.2343 26.0449C20.3014 26.0231 20.3014 26.0231 20.3698 26.0009C20.4647 25.9709 20.5598 25.9414 20.655 25.9122C21.2208 25.7379 21.7313 25.5162 22.2461 25.2235C22.7086 24.9621 22.7086 24.9621 22.9687 24.9511C23.1749 25.0096 23.1749 25.0096 23.396 25.1007C23.4738 25.132 23.5516 25.1634 23.6318 25.1957C23.873 25.2997 24.1095 25.4107 24.3426 25.5319C24.4731 25.5799 24.4731 25.5799 24.5971 25.5197C24.7834 25.4071 24.9189 25.2722 25.0718 25.1172C25.1326 25.056 25.1934 24.9947 25.2561 24.9316C25.319 24.8676 25.3819 24.8035 25.4467 24.7375C25.5113 24.6722 25.576 24.607 25.6406 24.5418C25.7985 24.3823 25.956 24.2225 26.1133 24.0625C26.0946 24.0211 26.076 23.9798 26.0568 23.9372C25.9723 23.7486 25.8889 23.5595 25.8056 23.3703C25.7616 23.2728 25.7616 23.2728 25.7167 23.1733C25.4387 22.5379 25.4387 22.5379 25.498 22.2168C25.575 22.0516 25.6534 21.9025 25.7458 21.7468C25.9501 21.384 26.1233 21.0226 26.2671 20.6317C26.2927 20.5634 26.2927 20.5634 26.3189 20.4937C26.3961 20.2827 26.4588 20.0808 26.5074 19.8608C26.5857 19.5237 26.6346 19.3375 26.9341 19.1454C27.1818 19.0379 27.4291 18.9514 27.6855 18.8672C27.9111 18.7769 28.1367 18.6867 28.3691 18.5937C28.3691 17.8718 28.3691 17.15 28.3691 16.4062C27.8836 16.2124 27.8836 16.2124 27.3977 16.0197C27.3372 15.9953 27.2766 15.9708 27.2142 15.9456C27.1523 15.9209 27.0903 15.8962 27.0265 15.8707C26.8107 15.764 26.6964 15.6712 26.6016 15.4482C26.5861 15.3961 26.5706 15.344 26.5546 15.2903C26.5365 15.2317 26.5184 15.1732 26.4997 15.1128C26.4807 15.0504 26.4618 14.988 26.4422 14.9237C26.2178 14.2154 25.9323 13.5544 25.5506 12.9159C25.4204 12.5875 25.5043 12.3326 25.6326 12.0189C25.6894 11.8888 25.7472 11.7591 25.8056 11.6296C25.9071 11.4012 26.0087 11.1728 26.1133 10.9375C25.617 10.4412 25.1207 9.94489 24.6093 9.43356C24.1854 9.57489 23.8196 9.7133 23.4251 9.9062C23.1009 10.0378 22.9217 10.0851 22.5887 9.95026C22.4998 9.90286 22.4115 9.85447 22.3236 9.80527C22.2265 9.75395 22.1293 9.70295 22.032 9.65226C21.983 9.62674 21.9341 9.60122 21.8836 9.57492C21.3525 9.30826 20.7965 9.11118 20.2215 8.96359C19.7819 8.82956 19.7819 8.82956 19.6576 8.59616C19.6192 8.48889 19.5842 8.38038 19.5508 8.27145C19.4984 8.1291 19.4442 7.98745 19.3901 7.84574C19.3345 7.69909 19.2809 7.55183 19.2274 7.40441C19.1634 7.19126 19.1634 7.19126 19.0722 7.10934C18.9128 7.10655 18.7532 7.10644 18.5937 7.10934ZM14.3231 7.54861C13.9188 7.96532 13.6814 8.41707 13.6676 8.99804C13.6885 9.4676 13.8227 9.79774 14.082 10.1855C14.2516 10.4399 14.2504 10.5682 14.2187 10.8691C14.1119 11.0357 14.1119 11.0357 13.9453 11.1425C13.6655 11.1883 13.5275 11.184 13.2916 11.0229C12.8261 10.476 12.6368 9.78255 12.5097 9.09177C11.8987 9.37283 11.647 9.86806 11.4064 10.476C11.3476 10.5957 11.3476 10.5957 11.2109 10.664C11.0877 10.6637 10.9644 10.663 10.8412 10.6595C10.1472 10.6407 9.68885 10.6936 9.13877 11.1511C8.72967 11.5456 8.53928 11.9019 8.50644 12.4713C8.53044 13.063 8.8262 13.4847 9.21247 13.9098C9.33199 14.0569 9.36521 14.1666 9.36521 14.3554C9.3144 14.5541 9.27279 14.6611 9.11313 14.7912C8.87326 14.8561 8.70175 14.8687 8.47653 14.7656C8.00713 14.3711 7.73404 13.8971 7.5195 13.33C7.01206 13.6235 6.79022 14.0035 6.63083 14.5605C6.54388 15.1213 6.68903 15.6166 7.00975 16.0802C7.47785 16.6511 7.9575 16.8678 8.68161 16.9531C9.03527 16.9702 9.38808 16.9691 9.74198 16.9664C9.84206 16.9662 9.94214 16.966 10.0422 16.9659C10.3031 16.9653 10.5639 16.964 10.8247 16.9625C11.0919 16.9611 11.3591 16.9605 11.6263 16.9598C12.1486 16.9583 12.671 16.956 13.1933 16.9531C13.1685 16.9069 13.1436 16.8607 13.118 16.8132C13.0861 16.7522 13.0542 16.6912 13.0214 16.6284C12.9735 16.538 12.9735 16.538 12.9246 16.4457C12.8508 16.2677 12.8296 16.1823 12.8686 15.9961C12.9883 15.791 12.9883 15.791 13.2147 15.6842C13.5828 15.6405 13.5828 15.6405 13.8086 15.791C13.9167 15.923 14.0152 16.0599 14.114 16.199C14.3632 16.5295 14.6986 16.7923 15.1074 16.8847C15.6642 16.9392 16.1456 16.9428 16.6113 16.6113C16.6832 16.562 16.7551 16.5126 16.8292 16.4618C17.2062 16.0848 17.4384 15.6353 17.4417 15.0982C17.4422 15.0425 17.4426 14.9867 17.4432 14.9293C17.4433 14.8687 17.4435 14.8081 17.4437 14.7457C17.4444 14.6492 17.4444 14.6492 17.4451 14.5509C17.4464 14.3381 17.4472 14.1254 17.4479 13.9127C17.4482 13.8399 17.4485 13.7671 17.4487 13.6921C17.4502 13.3066 17.4511 12.9211 17.4518 12.5355C17.4525 12.1383 17.4549 11.7412 17.4576 11.344C17.4594 11.0377 17.46 10.7315 17.4602 10.4252C17.4605 10.2789 17.4613 10.1325 17.4626 9.9862C17.4643 9.78072 17.4642 9.57532 17.4637 9.36984C17.4646 9.31009 17.4655 9.25033 17.4664 9.18877C17.4621 8.6721 17.3197 8.18788 17.0044 7.77158C16.27 7.0539 15.1686 6.86025 14.3231 7.54861ZM18.5937 12.9883C18.5931 13.0602 18.5924 13.1322 18.5918 13.2063C18.589 13.4776 18.5845 13.7488 18.5795 14.0201C18.5776 14.1367 18.5762 14.2533 18.5752 14.3699C18.5654 15.4861 18.43 16.4345 17.6111 17.265C17.5518 17.32 17.4926 17.375 17.4316 17.4316C17.5303 17.6584 17.6557 17.8036 17.8289 17.9785C18.3743 18.5774 18.5302 19.2815 18.547 20.0691C18.5484 20.1247 18.5498 20.1804 18.5513 20.2377C18.5557 20.4146 18.5598 20.5915 18.5638 20.7684C18.5668 20.8887 18.5697 21.009 18.5728 21.1293C18.5801 21.4234 18.587 21.7175 18.5937 22.0117C18.6915 22.0019 18.7893 21.9918 18.8871 21.9815C18.9415 21.976 18.996 21.9704 19.0521 21.9646C20.1846 21.8111 21.1357 20.9844 21.816 20.1163C22.5096 19.0961 22.7344 17.8891 22.5586 16.6797C22.3675 15.8352 22.014 15.1544 21.4648 14.4922C21.4014 14.4081 21.4014 14.4081 21.3366 14.3223C20.7518 13.63 19.821 13.1464 18.9355 12.9883C18.8216 12.9866 18.7076 12.9863 18.5937 12.9883ZM7.08798 18.8159C6.75279 19.2407 6.57915 19.7259 6.60466 20.2677C6.68364 20.7859 6.91665 21.2547 7.31442 21.6015C7.3821 21.6241 7.44978 21.6466 7.5195 21.6699C7.54277 21.6178 7.56603 21.5657 7.59 21.5121C7.8178 21.0268 8.05687 20.58 8.47653 20.2343C8.75635 20.1395 8.87716 20.1372 9.15158 20.2386C9.29685 20.3711 9.29685 20.3711 9.36093 20.5676C9.36565 20.8034 9.34396 20.9183 9.22849 21.123C9.17632 21.1724 9.12415 21.2217 9.07041 21.2726C8.72968 21.6291 8.52682 22.0272 8.50217 22.5244C8.53321 23.0886 8.77451 23.5008 9.17722 23.8873C9.70223 24.3126 10.1658 24.3649 10.8292 24.3224C11.0578 24.3124 11.1835 24.3162 11.3719 24.4518C11.4883 24.6149 11.5558 24.7578 11.6211 24.9469C11.7673 25.3314 11.9149 25.5779 12.2798 25.7805C12.3557 25.8227 12.4316 25.8648 12.5097 25.9082C12.5247 25.8371 12.5397 25.7661 12.5551 25.6929C12.7118 24.9895 12.9021 24.3482 13.4668 23.8574C13.7361 23.8189 13.8809 23.8161 14.1119 23.9642C14.2669 24.206 14.2647 24.3244 14.2187 24.6093C14.1241 24.7888 14.0181 24.9576 13.9092 25.1287C13.6322 25.5806 13.6398 26.0179 13.7402 26.5234C13.867 26.8944 14.0599 27.1526 14.3554 27.4121C14.402 27.46 14.4485 27.508 14.4964 27.5573C14.9205 27.828 15.4082 27.93 15.9063 27.8607C16.5049 27.7175 16.8872 27.4018 17.2134 26.8887C17.4225 26.4775 17.4519 26.1197 17.4515 25.6676C17.4519 25.6033 17.4524 25.539 17.4529 25.4728C17.4542 25.2608 17.4544 25.0488 17.4546 24.8369C17.455 24.6889 17.4555 24.5409 17.456 24.3929C17.4568 24.0829 17.457 23.7728 17.4569 23.4627C17.4569 23.0666 17.4588 22.6705 17.4612 22.2744C17.4627 21.9687 17.463 21.6631 17.4629 21.3574C17.463 21.2115 17.4636 21.0655 17.4647 20.9195C17.466 20.7147 17.4656 20.51 17.4648 20.3052C17.4656 20.2456 17.4664 20.1861 17.4672 20.1247C17.4619 19.609 17.3191 19.1246 17.0044 18.7091C16.5039 18.22 16.0499 18.0847 15.3565 18.0925C14.8168 18.1417 14.4767 18.3768 14.1205 18.7732C14.0391 18.8727 13.9579 18.9724 13.8769 19.0722C13.7011 19.2646 13.5961 19.3267 13.33 19.3457C13.1463 19.3115 13.1463 19.3115 12.9883 19.209C12.8814 18.9953 12.8814 18.9953 12.8515 18.7304C12.9193 18.5326 13.0159 18.3613 13.125 18.1836C13.1475 18.1384 13.1701 18.0933 13.1933 18.0468C12.6181 18.0437 12.0428 18.0412 11.4675 18.0398C11.2003 18.0391 10.9331 18.0381 10.666 18.0365C10.4075 18.035 10.1491 18.0342 9.89073 18.0339C9.79271 18.0336 9.69469 18.0331 9.59667 18.0324C8.60721 18.0252 7.80084 18.062 7.08798 18.8159Z" fill="#97AFC5"/>
<path d="M18.79 0.507404C18.9691 0.555999 19.0563 0.62973 19.1927 0.754856C19.2402 0.798227 19.2876 0.841599 19.3365 0.886284C19.6188 1.15571 19.8925 1.43304 20.1658 1.71162C20.4388 1.98782 20.7185 2.24872 21.0157 2.49882C21.1897 2.65933 21.193 2.74827 21.2254 2.99069C21.2225 3.16304 21.2165 3.25018 21.1066 3.38504C20.7723 3.65807 20.4192 3.8808 20.0462 4.09726C19.9246 4.16873 19.8031 4.24029 19.6817 4.31195C19.5947 4.36317 19.5947 4.36317 19.5061 4.41542C19.2462 4.57118 18.9942 4.73784 18.7433 4.90769C18.5119 5.03515 18.3299 5.07716 18.0723 5.01583C17.8651 4.89587 17.7954 4.80138 17.7048 4.58004C17.7048 4.32522 17.7459 4.20536 17.9014 4.00326C18.1887 3.74233 18.5366 3.55034 18.867 3.34957C17.3866 3.17171 15.8764 3.31785 14.4236 3.62301C14.3677 3.63462 14.3117 3.64623 14.2541 3.65819C10.6084 4.4442 7.48341 6.82212 5.46852 9.91208C3.42559 13.172 2.84743 17.0285 3.6647 20.7678C4.52302 24.4962 6.89958 27.6321 10.1127 29.6508C10.1739 29.6886 10.2352 29.7263 10.2983 29.7651C10.6464 29.9991 10.6464 29.9991 10.6959 30.2231C10.7016 30.6478 10.7016 30.6478 10.5186 30.8685C10.2849 30.9853 10.1712 30.9934 9.91188 30.9668C9.73803 30.8834 9.58603 30.8004 9.42482 30.6976C9.3577 30.656 9.3577 30.656 9.28923 30.6135C8.86318 30.3451 8.46075 30.049 8.06617 29.7363C7.97378 29.6637 7.97378 29.6637 7.87952 29.5897C4.76004 27.0914 2.73706 23.5318 2.17018 19.5678C1.72647 15.4477 2.70245 11.2964 5.29121 8.0128C5.50261 7.75073 5.72271 7.49709 5.94703 7.24606C5.99673 7.19003 5.99673 7.19003 6.04744 7.13287C8.36712 4.52851 11.5359 2.83015 14.9705 2.25582C15.0548 2.2412 15.1391 2.22657 15.226 2.2115C16.4022 2.03095 17.611 2.03622 18.7986 2.05075C18.7607 2.01858 18.7228 1.98642 18.6838 1.95328C18.6343 1.91072 18.5847 1.86816 18.5337 1.82431C18.4599 1.76126 18.4599 1.76126 18.3847 1.69693C18.1727 1.49812 18.1173 1.39107 18.0894 1.09799C18.096 0.898792 18.112 0.825336 18.2175 0.649379C18.4103 0.533724 18.5645 0.495663 18.79 0.507404Z" fill="#D6A3B3"/>
<path d="M25.0879 4.03314C25.2617 4.11652 25.4137 4.19948 25.575 4.30231C25.6197 4.33007 25.6644 4.35782 25.7105 4.38642C26.1366 4.65485 26.539 4.9509 26.9336 5.26361C27.026 5.33618 27.026 5.33618 27.1202 5.41021C30.3421 7.9905 32.3944 11.7059 32.8664 15.8174C33.2563 19.7603 32.2211 23.8153 29.7363 26.9335C29.6897 26.9933 29.6431 27.053 29.5951 27.1146C29.0044 27.8565 28.3582 28.594 27.6172 29.1894C27.5422 29.2515 27.4673 29.3136 27.3923 29.3758C24.1574 32.0359 20.3418 33.0252 16.2012 32.9492C16.2391 32.9813 16.277 33.0135 16.316 33.0466C16.3655 33.0892 16.415 33.1317 16.4661 33.1756C16.5152 33.2176 16.5644 33.2597 16.6151 33.303C16.8271 33.5018 16.8825 33.6088 16.9104 33.9019C16.9038 34.1011 16.8878 34.1746 16.7822 34.3505C16.5894 34.4662 16.4352 34.5043 16.2096 34.4924C16.0315 34.4441 15.9452 34.3719 15.8094 34.2475C15.762 34.2041 15.7146 34.1607 15.6657 34.1161C15.4167 33.8782 15.1736 33.6349 14.9323 33.3892C14.6574 33.1094 14.3849 32.8325 14.0844 32.5799C13.832 32.3638 13.8179 32.3355 13.7744 32.0092C13.7773 31.8369 13.7833 31.7497 13.8932 31.6149C14.2275 31.3418 14.5806 31.1191 14.9536 30.9027C15.0752 30.8312 15.1967 30.7596 15.3181 30.688C15.3761 30.6538 15.434 30.6197 15.4937 30.5845C15.7536 30.4287 16.0056 30.2621 16.2564 30.0922C16.4879 29.9648 16.6699 29.9227 16.9275 29.9841C17.1347 30.104 17.2044 30.1985 17.2949 30.4199C17.2949 30.6747 17.2538 30.7945 17.0984 30.9966C16.811 31.2576 16.4632 31.4496 16.1328 31.6503C17.6132 31.8282 19.1234 31.6821 20.5762 31.3769C20.6321 31.3653 20.6881 31.3537 20.7457 31.3417C22.6732 30.9261 24.4789 30.0307 26.0449 28.8476C26.1094 28.799 26.1739 28.7505 26.2404 28.7005C26.6998 28.3428 27.1253 27.9475 27.5488 27.5488C27.6217 27.4815 27.6217 27.4815 27.696 27.4129C28.1298 26.9985 28.4872 26.5225 28.8477 26.0449C28.8919 25.9869 28.8919 25.9869 28.9369 25.9278C31.1353 23.0311 32.0741 19.244 31.5989 15.65C31.059 11.9711 29.1911 8.50531 26.1985 6.24761C25.7126 5.88744 25.2166 5.55196 24.7015 5.23477C24.3534 5.00077 24.3534 5.00077 24.3039 4.77682C24.2982 4.35213 24.2982 4.35213 24.4812 4.13141C24.7149 4.01456 24.8285 4.00646 25.0879 4.03314Z" fill="#D6A3B3"/>
<path d="M11.04 19.6445C11.3542 19.7006 11.4334 19.7704 11.621 20.0291C11.6666 20.1491 11.7091 20.2703 11.7492 20.3922C11.9172 20.8888 12.1825 21.249 12.6507 21.4988C13.1245 21.6791 13.6696 21.696 14.149 21.5314C14.3736 21.4219 14.5728 21.3049 14.7672 21.1476C14.9568 21.0168 15.0939 21.0169 15.3188 21.0261C15.4491 21.0544 15.4491 21.0544 15.62 21.1997C15.7442 21.4377 15.7755 21.542 15.7226 21.8064C15.4582 22.3267 14.865 22.5461 14.3554 22.7634C13.6413 22.9722 12.7591 22.9032 12.0902 22.5997C11.3031 22.1584 10.7834 21.5416 10.5043 20.6814C10.4433 20.4477 10.4159 20.2682 10.4589 20.0291C10.6361 19.7767 10.7352 19.699 11.04 19.6445Z" fill="#97AFC5"/>
<path d="M15.1716 12.6424C15.4664 12.8532 15.6948 13.0257 15.7569 13.3986C15.7128 13.6632 15.6544 13.7712 15.4493 13.9455C15.0456 14.0305 14.8487 13.9309 14.5051 13.7105C14.4426 13.6669 14.3802 13.6232 14.3158 13.5783C13.9201 13.3118 13.4471 13.3559 12.9884 13.3986C12.5233 13.5367 12.1404 13.7968 11.8946 14.2189C11.8007 14.4471 11.7168 14.6755 11.6399 14.91C11.5459 15.1233 11.4813 15.2012 11.2794 15.3127C10.9789 15.3564 10.8507 15.3476 10.6001 15.1717C10.4169 14.9108 10.4133 14.8077 10.4591 14.4923C10.666 13.6674 11.1315 13.0246 11.8383 12.555C12.892 11.9357 14.145 12.0005 15.1716 12.6424Z" fill="#97AFC5"/>
</svg>
