<svg width="963" height="1145" viewBox="0 0 963 1145" fill="none" xmlns="http://www.w3.org/2000/svg">
<path d="M306 647.45V1107.55C305.973 1117.47 302.011 1126.98 294.979 1134C287.946 1141.02 278.416 1144.97 268.47 1145H37.5296C27.5843 1144.97 18.0539 1141.02 11.0215 1134C3.98905 1126.98 0.0265327 1117.47 0 1107.55V647.45C0.0265327 637.526 3.98905 628.016 11.0215 620.998C18.0539 613.981 27.5843 610.026 37.5296 610H268.47C278.416 610.026 287.946 613.981 294.979 620.998C302.011 628.016 305.973 637.526 306 647.45ZM268.47 709.109H37.5296V1051.71H268.47V709.109ZM90.5401 661.694C90.5401 666.661 92.5171 671.423 96.0362 674.935C99.5552 678.447 104.328 680.419 109.305 680.419H196.762C201.739 680.419 206.512 678.447 210.031 674.935C213.55 671.423 215.527 666.661 215.527 661.694C215.527 656.728 213.55 651.965 210.031 648.454C206.512 644.942 201.739 642.969 196.762 642.969H109.305C104.328 642.969 99.5552 644.942 96.0362 648.454C92.5171 651.965 90.5401 656.728 90.5401 661.694ZM171.731 1098.35C171.731 1094.67 170.636 1091.06 168.582 1087.99C166.529 1084.92 163.611 1082.53 160.197 1081.12C156.782 1079.71 153.024 1079.34 149.398 1080.05C145.772 1080.77 142.44 1082.54 139.824 1085.15C137.208 1087.76 135.424 1091.08 134.699 1094.69C133.974 1098.31 134.339 1102.06 135.749 1105.47C137.159 1108.88 139.551 1111.8 142.621 1113.85C145.692 1115.91 149.303 1117.01 153 1117.01C155.458 1117.02 157.893 1116.54 160.166 1115.6C162.438 1114.67 164.503 1113.29 166.243 1111.56C167.983 1109.83 169.363 1107.77 170.305 1105.5C171.247 1103.24 171.731 1100.81 171.731 1098.35Z" fill="#D5A0B0"/>
<path fill-rule="evenodd" clip-rule="evenodd" d="M714.244 449.45L693.147 486.284C687.32 496.47 674.432 499.937 664.331 494.067L605.741 459.955C576.01 493.791 535.795 518.035 490.157 527.392V574.2C490.157 585.96 480.736 595.467 469.082 595.467H426.889C415.234 595.467 405.813 585.96 405.813 574.2V527.392C360.175 518.035 319.96 493.791 290.229 459.955L231.639 494.067C221.538 499.937 208.65 496.47 202.823 486.284L181.726 449.45C175.899 439.284 179.366 426.269 189.446 420.421L248.27 386.139C241.273 365 237.084 342.521 237.084 319C237.084 295.479 241.273 273.021 248.27 251.861L189.446 217.6C179.366 211.731 175.899 198.737 181.726 188.55L202.823 151.716C208.65 141.551 221.538 138.063 231.639 143.933L290.229 178.045C319.96 144.209 360.175 119.965 405.813 110.608V63.8C405.813 52.0395 415.234 42.5333 426.889 42.5333H469.082C480.736 42.5333 490.157 52.0395 490.157 63.8V110.608C535.795 119.965 576.01 144.209 605.741 178.045L664.331 143.933C674.432 138.063 687.32 141.551 693.147 151.716L714.244 188.55C720.071 198.737 716.604 211.731 706.524 217.6L647.7 251.861C654.697 273.021 658.887 295.479 658.887 319C658.887 342.521 654.697 365 647.7 386.139L706.524 420.421C716.604 426.269 720.071 439.284 714.244 449.45ZM745.888 394.199L696.486 365.446C699.251 350.347 701.08 334.929 701.08 319C701.08 303.093 699.251 287.653 696.486 272.554L745.888 243.801C766.071 232.062 772.961 206.031 761.307 185.7L719.135 112.033C707.502 91.702 681.684 84.7054 661.524 96.4658L611.611 125.495C588.303 105.504 561.804 89.1497 532.35 78.6227V42.5333C532.35 19.0549 513.465 0 490.157 0H405.813C382.505 0 363.62 19.0549 363.62 42.5333V78.6227C334.166 89.1497 307.668 105.504 284.359 125.495L234.446 96.4658C214.286 84.7054 188.468 91.702 176.835 112.033L134.663 185.7C123.009 206.031 129.921 232.062 150.082 243.801L199.484 272.554C196.719 287.653 194.89 303.093 194.89 319C194.89 334.929 196.719 350.347 199.484 365.446L150.082 394.199C129.921 405.938 123.009 431.969 134.663 452.3L176.835 525.967C188.468 546.298 214.286 553.295 234.446 541.534L284.359 512.505C307.668 532.496 334.166 548.872 363.62 559.377V595.467C363.62 618.945 382.505 638 405.813 638H490.157C513.465 638 532.35 618.945 532.35 595.467V559.377C561.804 548.872 588.303 532.496 611.611 512.505L661.524 541.534C681.684 553.295 707.502 546.298 719.135 525.967L761.307 452.3C772.961 431.969 766.071 405.938 745.888 394.199ZM447.985 382.8C413.044 382.8 384.717 354.239 384.717 319C384.717 283.782 413.044 255.2 447.985 255.2C482.926 255.2 511.253 283.782 511.253 319C511.253 354.239 482.926 382.8 447.985 382.8ZM447.985 212.667C389.736 212.667 342.545 260.261 342.545 319C342.545 377.739 389.736 425.333 447.985 425.333C506.234 425.333 553.446 377.739 553.446 319C553.446 260.261 506.234 212.667 447.985 212.667Z" fill="#BDBECD"/>
<path d="M732.675 965.85C785.239 965.85 827.85 923.239 827.85 870.675C827.85 818.111 785.239 775.5 732.675 775.5C680.111 775.5 637.5 818.111 637.5 870.675C637.5 923.239 680.111 965.85 732.675 965.85Z" stroke="#A2BDD3" stroke-width="40" stroke-linecap="round" stroke-linejoin="round"/>
<path d="M937.696 916.777C941.167 901.576 943 885.752 943 869.5C943 752.692 848.308 658 731.5 658C614.692 658 520 752.692 520 869.5C520 986.308 614.692 1081 731.5 1081C775.217 1081 798.717 1081 802 1081" stroke="#A2BDD3" stroke-width="40" stroke-linecap="round" stroke-linejoin="round"/>
<path d="M816.1 916.5C836.467 947.833 856.05 961.502 879.55 961.502C903.05 961.502 930.303 948.245 937.696 916.777" stroke="#A2BDD3" stroke-width="40" stroke-linecap="round" stroke-linejoin="round"/>
</svg>
