<svg width="894" height="887" viewBox="0 0 894 887" fill="none" xmlns="http://www.w3.org/2000/svg">
<path fill-rule="evenodd" clip-rule="evenodd" d="M66.6667 400C66.6667 372.033 66.6668 347.177 67.0968 325H732.903C733.333 347.177 733.333 372.033 733.333 400V466.667C733.333 592.373 733.333 655.23 694.28 694.28C655.23 733.333 592.373 733.333 466.667 733.333H333.333C207.625 733.333 144.772 733.333 105.719 694.28C66.6668 655.23 66.6667 592.373 66.6667 466.667V400ZM566.667 466.667C585.077 466.667 600 451.743 600 433.333C600 414.923 585.077 400 566.667 400C548.257 400 533.333 414.923 533.333 433.333C533.333 451.743 548.257 466.667 566.667 466.667ZM566.667 600C585.077 600 600 585.077 600 566.667C600 548.257 585.077 533.333 566.667 533.333C548.257 533.333 533.333 548.257 533.333 566.667C533.333 585.077 548.257 600 566.667 600ZM433.333 433.333C433.333 451.743 418.41 466.667 400 466.667C381.59 466.667 366.667 451.743 366.667 433.333C366.667 414.923 381.59 400 400 400C418.41 400 433.333 414.923 433.333 433.333ZM433.333 566.667C433.333 585.077 418.41 600 400 600C381.59 600 366.667 585.077 366.667 566.667C366.667 548.257 381.59 533.333 400 533.333C418.41 533.333 433.333 548.257 433.333 566.667ZM233.333 466.667C251.743 466.667 266.667 451.743 266.667 433.333C266.667 414.923 251.743 400 233.333 400C214.924 400 200 414.923 200 433.333C200 451.743 214.924 466.667 233.333 466.667ZM233.333 600C251.743 600 266.667 585.077 266.667 566.667C266.667 548.257 251.743 533.333 233.333 533.333C214.924 533.333 200 548.257 200 566.667C200 585.077 214.924 600 233.333 600Z" fill="#BDBECD"/>
<path d="M258.333 83.3333C258.333 69.5263 247.14 58.3333 233.333 58.3333C219.526 58.3333 208.333 69.5263 208.333 83.3333V135.975C160.356 139.817 128.859 149.246 105.719 172.386C82.5789 195.526 73.1503 227.022 69.3086 275H730.69C726.85 227.022 717.42 195.526 694.28 172.386C671.14 149.246 639.643 139.817 591.667 135.975V83.3333C591.667 69.5263 580.473 58.3333 566.667 58.3333C552.86 58.3333 541.667 69.5263 541.667 83.3333V133.763C519.49 133.333 494.633 133.333 466.667 133.333H333.333C305.366 133.333 280.509 133.333 258.333 133.763V83.3333Z" fill="#D5A0B0"/>
<circle cx="685" cy="678" r="204" fill="white" stroke="#A2BDD3" stroke-width="10"/>
<path d="M744.186 672.356L750.163 673.546C761.3 675.765 771.639 681.224 779.793 689.37L779.794 689.372C790.644 700.222 796.75 714.942 796.75 730.282V773.156C796.75 781.781 789.747 788.77 781.125 788.77H589.875C581.253 788.77 574.25 781.781 574.25 773.156V730.282C574.25 714.942 580.357 700.221 591.218 689.37C599.336 681.26 609.605 675.812 620.696 673.57L626.686 672.36V678.471V700.529V704.065L623.352 705.243C612.906 708.934 605.436 718.894 605.436 730.558C605.436 745.37 617.473 757.403 632.311 757.403C647.149 757.403 659.186 745.37 659.186 730.558C659.186 718.894 651.716 708.934 641.271 705.243L637.936 704.065V700.529V685.233V675.638L645.801 681.135C657.047 688.995 670.737 693.608 685.5 693.608C700.215 693.608 713.854 689.034 725.081 681.224L732.936 675.759V685.328V700.539V704.066L729.614 705.25C719.202 708.959 711.75 718.902 711.75 730.558H706.75L706.748 732.779C709.618 732.692 711.75 730.564 711.75 730.564V730.564V730.567L711.75 730.578L711.75 730.623L711.75 730.8L711.749 731.472L711.747 733.874L711.739 741.169L711.732 748.465L711.73 750.87L711.729 751.544L711.729 751.721L711.729 751.767V751.778L711.729 751.781V751.782V751.786C711.723 754.869 714.234 757.397 717.352 757.403C720.45 757.408 722.973 754.893 722.979 751.789L723 730.558L744.186 672.356ZM744.186 672.356V678.45V700.518V704.054L747.519 705.232C757.956 708.923 765.436 718.884 765.436 730.558C765.436 736.407 765.447 741.706 765.458 745.543C765.463 747.461 765.468 749.014 765.472 750.088L765.477 751.325L765.478 751.647L765.479 751.729L765.479 751.75L765.479 751.755V751.757V751.757L765.479 751.762C765.496 754.848 762.997 757.383 759.886 757.403M744.186 672.356L759.886 757.403M759.886 757.403C756.774 757.412 754.248 754.899 754.229 751.819V751.818L754.229 751.817L754.229 751.814V751.812L754.229 751.791L754.228 751.71L754.227 751.387L754.222 750.148C754.218 749.071 754.213 747.513 754.207 745.588C754.197 741.738 754.186 736.422 754.186 730.558C754.186 721.949 747.221 714.943 738.593 714.943C729.967 714.943 723.003 721.946 723 730.553L759.886 757.403ZM619.785 662.31L626.34 661.12L623.366 655.158C618.731 645.868 616.125 635.4 616.125 624.304C616.125 586.065 647.213 555 685.5 555C723.787 555 754.875 586.065 754.875 624.304C754.875 635.4 752.269 645.868 747.634 655.158L744.66 661.12L751.215 662.31C764.958 664.804 777.731 671.427 787.749 681.435C800.718 694.393 808 711.961 808 730.282V773.156C808 787.978 795.974 800 781.125 800H780.864H780.601H780.338H780.073H779.806H779.538H779.269H778.999H778.728H778.455H778.181H777.905H777.629H777.351H777.072H776.791H776.51H776.227H775.943H775.657H775.371H775.083H774.794H774.504H774.212H773.92H773.626H773.331H773.035H772.738H772.439H772.14H771.839H771.537H771.234H770.929H770.624H770.318H770.01H769.701H769.391H769.08H768.768H768.455H768.141H767.825H767.509H767.191H766.873H766.553H766.232H765.91H765.587H765.263H764.938H764.612H764.285H763.957H763.628H763.298H762.967H762.634H762.301H761.967H761.632H761.296H760.959H760.621H760.281H759.941H759.6H759.258H758.915H758.572H758.227H757.881H757.534H757.187H756.838H756.489H756.138H755.787H755.435H755.082H754.728H754.373H754.017H753.661H753.303H752.945H752.586H752.226H751.865H751.503H751.141H750.777H750.413H750.048H749.682H749.315H748.948H748.579H748.21H747.841H747.47H747.098H746.726H746.353H745.979H745.605H745.23H744.854H744.477H744.099H743.721H743.342H742.962H742.582H742.201H741.819H741.436H741.053H740.669H740.285H739.899H739.513H739.127H738.739H738.351H737.963H737.573H737.183H736.793H736.401H736.01H735.617H735.224H734.83H734.436H734.041H733.645H733.249H732.853H732.455H732.057H731.659H731.26H730.86H730.46H730.059H729.658H729.256H728.854H728.451H728.048H727.644H727.239H726.834H726.429H726.023H725.617H725.21H724.802H724.394H723.986H723.577H723.168H722.758H722.348H721.937H721.526H721.114H720.702H720.29H719.877H719.463H719.05H718.636H718.221H717.806H717.391H716.975H716.559H716.143H715.726H715.309H714.891H714.473H714.055H713.636H713.217H712.798H712.378H711.958H711.538H711.117H710.697H710.275H709.854H709.432H709.01H708.588H708.165H707.742H707.319H706.895H706.472H706.048H705.623H705.199H704.774H704.349H703.924H703.499H703.073H702.647H702.221H701.795H701.369H700.942H700.515H700.088H699.661H699.234H698.806H698.379H697.951H697.523H697.095H696.666H696.238H695.81H695.381H694.952H694.523H694.094H693.665H693.236H692.807H692.377H691.948H691.519H691.089H690.659H690.23H689.8H689.37H688.94H688.51H688.08H687.65H687.22H686.79H686.36H685.93H685.5H685.07H684.64H684.21H683.78H683.35H682.92H682.49H682.06H681.63H681.2H680.77H680.341H679.911H679.481H679.052H678.623H678.193H677.764H677.335H676.906H676.477H676.048H675.619H675.19H674.762H674.334H673.905H673.477H673.049H672.621H672.194H671.766H671.339H670.912H670.485H670.058H669.631H669.205H668.779H668.353H667.927H667.501H667.076H666.651H666.226H665.801H665.377H664.952H664.528H664.105H663.681H663.258H662.835H662.412H661.99H661.568H661.146H660.725H660.303H659.882H659.462H659.042H658.622H658.202H657.783H657.364H656.945H656.527H656.109H655.691H655.274H654.857H654.441H654.025H653.609H653.194H652.779H652.364H651.95H651.537H651.123H650.71H650.298H649.886H649.474H649.063H648.652H648.242H647.832H647.423H647.014H646.606H646.198H645.79H645.383H644.977H644.571H644.166H643.761H643.356H642.952H642.549H642.146H641.744H641.342H640.941H640.54H640.14H639.74H639.341H638.943H638.545H638.147H637.751H637.355H636.959H636.564H636.17H635.776H635.383H634.99H634.599H634.207H633.817H633.427H633.037H632.649H632.261H631.873H631.487H631.101H630.715H630.331H629.947H629.564H629.181H628.799H628.418H628.038H627.658H627.279H626.901H626.523H626.146H625.77H625.395H625.021H624.647H624.274H623.902H623.53H623.159H622.79H622.421H622.052H621.685H621.318H620.952H620.587H620.223H619.859H619.497H619.135H618.774H618.414H618.055H617.697H617.339H616.983H616.627H616.272H615.918H615.565H615.213H614.862H614.511H614.162H613.813H613.466H613.119H612.773H612.428H612.085H611.742H611.4H611.059H610.719H610.379H610.041H609.704H609.368H609.033H608.699H608.366H608.033H607.702H607.372H607.043H606.715H606.388H606.062H605.737H605.413H605.09H604.768H604.447H604.127H603.809H603.491H603.175H602.859H602.545H602.232H601.92H601.609H601.299H600.99H600.682H600.376H600.071H599.766H599.463H599.161H598.86H598.561H598.262H597.965H597.669H597.374H597.08H596.788H596.496H596.206H595.917H595.629H595.343H595.057H594.773H594.49H594.209H593.928H593.649H593.371H593.095H592.819H592.545H592.272H592.001H591.731H591.462H591.194H590.927H590.662H590.399H590.136H589.875C575.026 800 563 787.978 563 773.156V730.282C563 711.961 570.282 694.393 583.251 681.435C593.269 671.427 606.042 664.804 619.785 662.31ZM647.936 730.558C647.936 721.933 640.933 714.943 632.311 714.943C623.689 714.943 616.686 721.933 616.686 730.558C616.686 739.184 623.689 746.173 632.311 746.173C640.933 746.173 647.936 739.184 647.936 730.558ZM743.625 624.304C743.625 592.252 717.583 566.23 685.5 566.23C653.417 566.23 627.375 592.252 627.375 624.304C627.375 656.367 653.418 682.378 685.5 682.378C717.582 682.378 743.625 656.367 743.625 624.304Z" fill="#A2BDD3" stroke="#A2BDD3" stroke-width="10"/>
</svg>
