<svg width="31" height="31" viewBox="0 0 31 31" fill="none" xmlns="http://www.w3.org/2000/svg">
<path d="M15.4998 10.6562C17.4616 10.6562 19.0519 9.06585 19.0519 7.10409C19.0519 5.14232 17.4616 3.552 15.4998 3.552C13.5381 3.552 11.9478 5.14232 11.9478 7.10409C11.9478 9.06585 13.5381 10.6562 15.4998 10.6562Z" stroke="#D6A3B3" stroke-width="2"/>
<path d="M17.3566 14.6121L15.4998 16.4688L13.6431 14.6121C12.1717 13.1407 9.78632 13.1407 8.31495 14.6121C6.84358 16.0834 6.84358 18.4688 8.31495 19.9402L15.4998 27.1251L22.6847 19.9402C24.1561 18.4688 24.1561 16.0834 22.6847 14.6121C21.2134 13.1407 18.828 13.1407 17.3566 14.6121Z" stroke="#97AFC5" stroke-width="2" stroke-linejoin="round"/>
</svg>
