<svg width="34" height="36" viewBox="0 0 34 36" fill="none" xmlns="http://www.w3.org/2000/svg">
<path d="M27.0607 6.69146C27.8247 7.37402 28.5333 8.10265 29.1363 8.93671C29.2174 9.0487 29.3 9.15932 29.383 9.2699C31.7526 12.4794 32.6631 16.6295 32.1386 20.5772C31.7554 23.225 30.7769 25.7146 29.1524 27.8274C29.1076 27.8872 29.0628 27.947 29.0167 28.0086C28.6478 28.4921 28.2384 28.9376 27.8243 29.3809C27.7459 29.4648 27.7459 29.4648 27.666 29.5505C26.7475 30.5098 25.6461 31.2893 24.5039 31.9475C24.4646 31.9705 24.4253 31.9936 24.3848 32.0173C20.995 33.9942 16.7878 34.4192 13.0338 33.4194C9.86577 32.5259 6.91289 30.6505 4.93608 27.9476C4.84653 27.8258 4.75518 27.7056 4.66352 27.5855C4.22494 27.0034 3.86392 26.3943 3.5291 25.7453C3.45889 25.6096 3.38697 25.475 3.31464 25.3405C1.52635 21.9444 1.24319 17.6532 2.32503 13.9841C2.88115 12.1946 3.66392 10.5475 4.78129 9.05066C4.82546 8.99136 4.86963 8.93207 4.91514 8.87098C7.42521 5.5967 11.0964 3.49543 15.1407 2.97186C15.1883 2.96539 15.236 2.95893 15.285 2.95227C19.5484 2.44083 23.8251 3.85896 27.0607 6.69146ZM14.4766 5.33583C14.4218 5.34742 14.3669 5.35901 14.3105 5.37096C11.8483 5.90861 9.68009 7.12277 7.86548 8.88981C7.78032 8.97265 7.69433 9.05459 7.60822 9.1364C5.28715 11.4006 4.01045 14.7855 3.9014 18.0164C3.8326 21.7538 5.25644 25.138 7.76957 27.8274C7.808 27.8701 7.84644 27.9127 7.88604 27.9567C8.2343 28.3313 8.64141 28.6392 9.04419 28.95C9.15312 29.0346 9.26064 29.1211 9.36799 29.2078C11.9722 31.2259 15.5265 32.0437 18.7515 31.6013C20.9432 31.2655 23.0822 30.4411 24.836 29.0431C24.9229 28.9759 24.9229 28.9759 25.0116 28.9073C27.8068 26.7 29.5676 23.4845 30.0143 19.9194C30.3982 16.5143 29.456 13.0337 27.3965 10.32C27.2549 10.1409 27.1099 9.96639 26.961 9.79362C26.9127 9.73711 26.8644 9.68061 26.8147 9.62239C26.6665 9.45197 26.5159 9.28449 26.3633 9.1182C26.313 9.06335 26.2626 9.00849 26.2108 8.95198C25.7668 8.48421 25.2801 8.08839 24.7696 7.69981C24.7143 7.6575 24.6591 7.61518 24.6023 7.57159C22.3998 5.94588 19.7609 5.11854 17.0498 5.11632C16.9997 5.11628 16.9495 5.11623 16.8978 5.11618C16.0764 5.11737 15.2827 5.16321 14.4766 5.33583Z" fill="#97AFC5"/>
<path d="M21.6183 21.1462C22.6868 22.0813 23.5858 23.4408 23.7978 24.8848C23.8219 25.2897 23.7132 25.6579 23.508 26.0037C23.1735 26.3839 22.8503 26.6523 22.3404 26.7025C21.6669 26.7193 21.0688 26.615 20.4222 26.4308C20.162 26.357 19.9004 26.2886 19.6388 26.22C19.588 26.2066 19.5371 26.1932 19.4847 26.1794C17.7699 25.7323 16.0706 25.7695 14.3616 26.22C14.284 26.2404 14.284 26.2404 14.2049 26.2611C13.9457 26.3295 13.6873 26.3997 13.4294 26.4732C12.7138 26.6713 11.8304 26.8764 11.115 26.5778C10.7154 26.3185 10.3966 25.9283 10.2558 25.4665C10.0327 24.4047 10.6967 23.2956 11.2229 22.424C11.4387 22.1035 11.6859 21.8225 11.9533 21.5459C12.0113 21.4859 12.0692 21.4259 12.1289 21.3641C14.7523 18.8053 18.8745 18.8613 21.6183 21.1462ZM13.3562 23.3062C12.9836 23.7323 12.9836 23.7323 12.8166 24.2476C13.2451 24.1721 13.6697 24.0865 14.0935 23.9874C16.3943 23.4529 18.5584 23.6017 20.8349 24.2136C20.9914 24.255 20.9914 24.255 21.1838 24.2476C20.8621 23.3381 20.093 22.6518 19.2819 22.1923C17.2402 21.2216 14.8923 21.5926 13.3562 23.3062Z" fill="#D6A3B3"/>
<path d="M20.611 11.651C20.8305 11.8636 20.966 12.0955 21.1174 12.3601C21.3196 12.6687 21.4956 12.7948 21.8478 12.9005C22.2431 12.918 22.5463 12.8379 22.8439 12.5628C22.9333 12.4127 23.0118 12.2593 23.0901 12.1029C23.2385 11.8471 23.4459 11.6825 23.7072 11.5496C24.1793 11.5011 24.5259 11.5149 24.9025 11.8198C25.1412 12.131 25.2199 12.3879 25.2016 12.7831C25.0683 13.5198 24.5646 14.1486 23.9923 14.5938C23.2067 15.128 22.3264 15.3247 21.3871 15.1634C20.4626 14.927 19.7057 14.421 19.2038 13.5836C18.9652 13.1503 18.8452 12.7885 18.926 12.2926C19.0393 12.0009 19.1876 11.8068 19.4323 11.6172C19.8371 11.4952 20.2214 11.4748 20.611 11.651Z" fill="#97AFC5"/>
<path d="M10.5214 11.6637C10.7669 11.8891 10.927 12.0953 11.0734 12.3982C11.2066 12.6392 11.3589 12.7515 11.6069 12.8605C11.9529 12.9548 12.2432 12.8828 12.5634 12.7359C12.7858 12.5298 12.9061 12.3111 13.0523 12.046C13.1963 11.8088 13.3716 11.6727 13.6134 11.5497C14.0855 11.5012 14.4321 11.515 14.8087 11.8199C15.0474 12.1311 15.1261 12.388 15.1078 12.7832C14.9745 13.5199 14.4708 14.1487 13.8985 14.5939C13.117 15.1252 12.2781 15.3123 11.3447 15.1635C10.4522 14.9559 9.72861 14.5121 9.20154 13.7364C8.91836 13.264 8.74107 12.852 8.83215 12.2927C8.94552 12.001 9.09385 11.8069 9.3385 11.6173C9.74771 11.4939 10.1336 11.4701 10.5214 11.6637Z" fill="#97AFC5"/>
</svg>
