<svg width="13" height="25" viewBox="0 0 13 25" fill="none" xmlns="http://www.w3.org/2000/svg">
<path d="M8.55078 0.0683594C7.14453 0.288086 6.1582 0.766602 5.34766 1.62109C4.66406 2.34375 4.23926 3.18848 4 4.29688C3.90723 4.7168 3.89746 4.9707 3.87793 6.94336L3.8584 9.13086H1.92969H0.00585938V11.3525V13.5742L1.9248 13.584L3.83887 13.5986L3.85352 19.2969L3.86328 25H6.1582H8.45312V19.2871V13.5742H10.3574C11.4072 13.5742 12.2617 13.5693 12.2617 13.5596C12.3936 12.6709 12.8281 9.19434 12.8135 9.16504C12.8037 9.14551 11.8174 9.13086 10.6211 9.13086H8.44824L8.46289 7.30957C8.47754 5.53223 8.48242 5.48828 8.59473 5.20508C8.82422 4.63379 9.30273 4.29199 10.0254 4.19922C10.2207 4.1748 10.9678 4.15039 11.6904 4.15039H12.9941L12.9844 2.1582L12.9697 0.170898L12.335 0.112305C11.2949 0.0195312 9.03906 -0.00976562 8.55078 0.0683594Z" fill="black"/>
</svg>
