<svg width="32" height="32" viewBox="0 0 32 32" fill="none" xmlns="http://www.w3.org/2000/svg">
<path d="M29.0821 7.23037C29.5465 7.61478 29.8512 8.09976 29.922 8.70303C29.9403 8.89935 29.9386 8.99685 29.8751 9.1874C29.9176 9.19771 29.9602 9.20803 30.004 9.21865C30.4068 9.42433 30.6672 9.81525 30.8299 10.2294C31.1322 11.2033 30.6498 12.3453 30.3939 13.2914C30.3589 13.4216 30.3239 13.5519 30.289 13.6821C30.1973 14.0236 30.1052 14.3651 30.0131 14.7065C29.921 15.048 29.8293 15.3897 29.7375 15.7313C29.5806 16.3153 29.4231 16.8991 29.2649 17.4827C29.1782 17.803 29.092 18.1234 29.0065 18.444C28.9718 18.5741 28.9368 18.7042 28.9017 18.8342C28.8616 18.9831 28.8218 19.1321 28.7825 19.2812C28.5156 20.2631 27.9437 20.8446 27.1876 21.4999C27.1042 21.5728 27.0209 21.6457 26.9376 21.7187C26.8976 21.7535 26.8577 21.7883 26.8165 21.8241C26.6682 21.9544 26.5216 22.0864 26.3751 22.2187C26.149 22.4226 25.9211 22.6241 25.6915 22.8241C25.4896 23.0015 25.2905 23.182 25.0914 23.3625C24.9511 23.4878 24.8081 23.6092 24.6642 23.7304C24.137 24.1959 24.0748 24.6903 24.032 25.3605C24.0197 25.5736 24.0095 25.7867 24.0001 25.9999C24.0594 26.0063 24.1187 26.0128 24.1798 26.0194C24.3751 26.0624 24.3751 26.0624 24.5001 26.2499C24.5168 26.4416 24.5168 26.4416 24.5183 26.6803C24.5187 26.7238 24.5191 26.7673 24.5195 26.8122C24.5207 26.9561 24.521 27.0999 24.5211 27.2438C24.5215 27.3438 24.5219 27.4438 24.5224 27.5439C24.5231 27.7536 24.5233 27.9632 24.5233 28.1729C24.5232 28.4416 24.525 28.7102 24.5271 28.9789C24.5285 29.1855 24.5287 29.3921 24.5287 29.5987C24.5288 29.6977 24.5294 29.7968 24.5303 29.8958C24.5316 30.0344 24.5312 30.1728 24.5305 30.3114C24.5306 30.3902 24.5308 30.4691 24.531 30.5503C24.4937 30.7914 24.4376 30.8494 24.2501 30.9999C24.1029 31.0314 24.1029 31.0314 23.937 31.0317C23.8424 31.0327 23.8424 31.0327 23.7458 31.0338C23.677 31.0333 23.6081 31.0328 23.5372 31.0323C23.4644 31.0327 23.3916 31.0331 23.3166 31.0336C23.0757 31.0347 22.8348 31.034 22.5938 31.0331C22.4266 31.0333 22.2595 31.0335 22.0923 31.0338C21.7417 31.0343 21.3912 31.0337 21.0406 31.0325C20.6355 31.0311 20.2303 31.0316 19.8252 31.033C19.4772 31.0341 19.1292 31.0342 18.7812 31.0336C18.5734 31.0332 18.3656 31.0332 18.1579 31.034C17.9262 31.0346 17.6946 31.0336 17.463 31.0323C17.3941 31.0328 17.3253 31.0333 17.2544 31.0338C17.1913 31.0331 17.1282 31.0324 17.0632 31.0317C17.0085 31.0316 16.9537 31.0315 16.8973 31.0314C16.6996 30.9891 16.6242 30.9064 16.5001 30.7499C16.4683 30.5507 16.4683 30.5507 16.4677 30.3124C16.4673 30.2689 16.4669 30.2254 16.4664 30.1805C16.4653 30.0369 16.466 29.8935 16.4669 29.7499C16.4667 29.65 16.4665 29.55 16.4662 29.4501C16.4658 29.2408 16.4663 29.0315 16.4675 28.8222C16.4689 28.554 16.4681 28.2859 16.4666 28.0177C16.4657 27.8113 16.466 27.605 16.4666 27.3987C16.4668 27.2998 16.4666 27.201 16.466 27.1021C16.4654 26.9638 16.4664 26.8257 16.4677 26.6874C16.4679 26.6088 16.4681 26.5301 16.4683 26.4491C16.5001 26.2499 16.5001 26.2499 16.6115 26.0976C16.7501 25.9999 16.7501 25.9999 17.0001 25.9999C16.9993 25.9008 16.9993 25.9008 16.9984 25.7998C16.9933 25.1737 16.9896 24.5477 16.9871 23.9216C16.9858 23.5998 16.9841 23.278 16.9812 22.9563C16.9785 22.645 16.977 22.3338 16.9764 22.0226C16.9759 21.9046 16.975 21.7865 16.9737 21.6685C16.9589 20.339 17.2323 19.199 18.1405 18.1745C18.7386 17.5678 19.4463 17.18 20.1864 16.7714C20.5395 16.5764 20.8877 16.3739 21.2345 16.1679C21.2892 16.1354 21.3439 16.103 21.4003 16.0696C21.6928 15.896 21.9848 15.7217 22.2766 15.5471C22.4325 15.4538 22.5886 15.3607 22.7446 15.2677C22.8579 15.2001 22.9709 15.1321 23.084 15.0642C23.187 15.0027 23.187 15.0027 23.2921 14.9401C23.3534 14.9034 23.4147 14.8666 23.4778 14.8288C23.6251 14.7499 23.6251 14.7499 23.7501 14.7499C23.7652 14.6737 23.7803 14.5974 23.7958 14.5189C23.8824 14.1307 24.0132 13.7595 24.1436 13.3842C24.1703 13.3069 24.1969 13.2296 24.2243 13.1499C24.2958 12.9421 24.3678 12.7344 24.4399 12.5268C24.4846 12.398 24.5292 12.2693 24.5738 12.1405C24.7368 11.6699 24.9003 11.1995 25.0642 10.7293C25.1529 10.4748 25.2411 10.2203 25.329 9.96563C25.4285 9.67751 25.5288 9.3897 25.63 9.10217C25.6654 9.0013 25.7005 8.90032 25.7352 8.79924C26.1565 7.57698 26.1565 7.57698 26.7227 7.22646C26.7679 7.19762 26.8131 7.16878 26.8597 7.13906C27.5557 6.75898 28.4235 6.76731 29.0821 7.23037ZM27.5665 8.00771C27.5057 8.02729 27.5057 8.02729 27.4437 8.04726C27.0924 8.25532 26.9405 8.59588 26.8177 8.96914C26.8018 9.01531 26.7858 9.06148 26.7694 9.10905C26.7166 9.26252 26.665 9.41635 26.6134 9.57021C26.5762 9.67891 26.539 9.78758 26.5018 9.89622C26.4205 10.1334 26.3396 10.3707 26.2589 10.608C26.1146 11.0318 25.9674 11.4544 25.8199 11.8771C25.7426 12.0989 25.6654 12.3208 25.5881 12.5426C25.5373 12.6884 25.4865 12.8341 25.4357 12.9798C25.3641 13.1852 25.2928 13.3908 25.2215 13.5963C25.2 13.6579 25.1785 13.7194 25.1563 13.7828C25.1268 13.8684 25.1268 13.8684 25.0966 13.9558C25.0794 14.0053 25.0622 14.0548 25.0444 14.1058C24.9985 14.2552 24.9683 14.4091 24.9376 14.5624C25.1438 14.6037 25.3501 14.6449 25.5626 14.6874C25.5793 14.6354 25.5959 14.5834 25.6131 14.5298C25.7709 14.0378 25.929 13.5459 26.0875 13.0542C26.1689 12.8014 26.2502 12.5485 26.3313 12.2956C26.4096 12.0512 26.4883 11.8068 26.5671 11.5625C26.597 11.4697 26.6268 11.3769 26.6565 11.284C27.2044 9.5704 27.2044 9.5704 28.0001 9.1249C28.2661 9.00841 28.5308 8.94178 28.8126 8.8749C28.7973 8.61546 28.7773 8.47154 28.6134 8.26553C28.2734 7.99351 27.9938 7.86049 27.5665 8.00771ZM28.5665 10.0077C28.526 10.0208 28.4854 10.0338 28.4437 10.0473C28.1013 10.25 27.954 10.5687 27.8363 10.9342C27.8224 10.9764 27.8086 11.0185 27.7943 11.0619C27.7487 11.2011 27.7044 11.3407 27.6602 11.4804C27.6122 11.6302 27.564 11.78 27.5157 11.9298C27.4817 12.0356 27.4477 12.1415 27.4139 12.2474C27.302 12.5957 27.1842 12.9414 27.062 13.2862C26.9772 13.5262 26.8942 13.7668 26.8114 14.0074C26.7709 14.1238 26.7295 14.24 26.6874 14.3558C26.3695 15.2108 26.3695 15.2108 26.5546 16.0846C26.7274 16.4896 26.6446 16.9424 26.5047 17.3476C26.2391 17.9503 25.7752 18.2294 25.2218 18.536C24.9618 18.6812 24.7046 18.8311 24.4469 18.9802C24.1735 19.1384 23.8994 19.2956 23.6253 19.4528C23.3966 19.5864 23.172 19.7262 22.9485 19.8684C22.7229 19.9829 22.5612 19.9723 22.3126 19.9374C22.1251 19.8124 22.1251 19.8124 22.0704 19.6054C22.0615 19.3419 22.0961 19.2701 22.2501 19.0624C22.398 18.9565 22.398 18.9565 22.5728 18.8624C22.6373 18.8272 22.7018 18.7919 22.7683 18.7555C22.8714 18.7005 22.8714 18.7005 22.9767 18.6444C23.1187 18.5668 23.2607 18.4891 23.4027 18.4113C23.5074 18.3543 23.5074 18.3543 23.6141 18.2962C24.7987 17.7428 24.7987 17.7428 25.6034 16.8075C25.6522 16.4358 25.6022 16.1782 25.3751 15.8749C25.1109 15.6408 24.85 15.5604 24.5001 15.5624C24.3367 15.6164 24.2142 15.6681 24.0665 15.7499C24.0246 15.7719 23.9828 15.794 23.9396 15.8167C23.3999 16.1066 22.8785 16.4304 22.3551 16.7484C21.933 17.0041 21.5063 17.2506 21.0782 17.496C20.8229 17.643 20.5678 17.7902 20.3126 17.9374C20.2665 17.9639 20.2203 17.9904 20.1728 18.0177C19.1952 18.5822 18.4734 19.2793 18.1251 20.3749C17.9906 21.0573 17.9832 21.7367 17.9879 22.4293C17.9881 22.5215 17.9882 22.6136 17.9883 22.7057C17.9889 23.0421 17.9907 23.3784 17.9923 23.7147C17.9949 24.4688 17.9974 25.2229 18.0001 25.9999C19.6501 25.9999 21.3001 25.9999 23.0001 25.9999C23.0207 25.443 23.0413 24.8862 23.0626 24.3124C23.3585 23.6022 23.6075 23.1512 24.1778 22.6752C24.3269 22.5504 24.4699 22.4202 24.6134 22.289C24.8244 22.0981 25.0396 21.9159 25.2618 21.7382C25.6407 21.432 25.9923 21.0989 26.3465 20.7648C26.5092 20.6115 26.6744 20.4621 26.8438 20.3163C26.8996 20.2671 26.8996 20.2671 26.9564 20.2169C27.0288 20.1542 27.1029 20.0936 27.1786 20.0348C27.8186 19.4903 27.9447 18.2863 28.1515 17.5026C28.1833 17.3829 28.2151 17.2632 28.247 17.1435C28.3304 16.8297 28.4136 16.5158 28.4966 16.2019C28.5956 15.8279 28.695 15.4542 28.7944 15.0804C28.8753 14.776 28.956 14.4716 29.0361 14.167C29.1701 13.6584 29.3044 13.1501 29.4471 12.6438C29.5024 12.4474 29.5568 12.2507 29.6112 12.054C29.6363 11.9643 29.6619 11.8746 29.688 11.7851C29.8912 11.1096 29.8912 11.1096 29.7501 10.4374C29.5571 10.1908 29.3521 10.0544 29.0626 9.9374C28.858 9.9374 28.7512 9.94407 28.5665 10.0077ZM17.5001 26.9999C17.5001 27.9899 17.5001 28.9799 17.5001 29.9999C19.4801 29.9999 21.4601 29.9999 23.5001 29.9999C23.5001 29.0099 23.5001 28.0199 23.5001 26.9999C21.5201 26.9999 19.5401 26.9999 17.5001 26.9999Z" fill="#97AFC5"/>
<path d="M5.4022 7.29287C5.87511 7.70343 6.08462 8.23395 6.27696 8.81581C6.30166 8.88828 6.32637 8.96074 6.35182 9.0354C6.41817 9.23044 6.48382 9.42571 6.54914 9.62109C6.61727 9.82432 6.68631 10.0272 6.75531 10.2302C6.83913 10.4768 6.92291 10.7235 7.00632 10.9703C7.18035 11.4851 7.35745 11.9986 7.53794 12.5111C7.55993 12.5736 7.58191 12.6361 7.60456 12.7004C7.68728 12.9353 7.77009 13.1702 7.85336 13.4049C7.90921 13.5624 7.9647 13.7201 8.02012 13.8778C8.04445 13.9458 8.04445 13.9458 8.06926 14.0152C8.13646 14.2072 8.18936 14.3877 8.22074 14.589C8.23035 14.6421 8.23996 14.6952 8.24986 14.7499C8.38639 14.8284 8.38639 14.8284 8.56236 14.8749C8.70837 14.9524 8.85237 15.0314 8.99595 15.1132C9.03928 15.1377 9.08261 15.1622 9.12725 15.1875C9.54438 15.4249 9.9576 15.6689 10.3702 15.9141C10.7137 16.1182 11.0583 16.3204 11.4042 16.5206C11.5253 16.591 11.6464 16.6613 11.7674 16.7316C11.8455 16.7769 11.9237 16.822 12.0019 16.867C13.455 17.7027 14.4668 18.6096 14.9374 20.2499C15.009 20.5315 15.0083 20.8083 15.007 21.097C15.007 21.1501 15.007 21.2032 15.007 21.2579C15.0069 21.4327 15.0065 21.6075 15.006 21.7824C15.0058 21.9038 15.0058 22.0253 15.0057 22.1468C15.0055 22.466 15.0048 22.7852 15.0041 23.1045C15.0035 23.4304 15.0032 23.7564 15.0029 24.0823C15.0022 24.7215 15.0012 25.3607 14.9999 25.9999C15.0592 26.0063 15.1185 26.0128 15.1795 26.0194C15.3749 26.0624 15.3749 26.0624 15.4999 26.2499C15.5166 26.4416 15.5166 26.4416 15.518 26.6803C15.5184 26.7238 15.5189 26.7673 15.5193 26.8122C15.5205 26.9561 15.5207 27.0999 15.5209 27.2438C15.5213 27.3438 15.5217 27.4438 15.5221 27.5439C15.5229 27.7536 15.5231 27.9632 15.523 28.1729C15.523 28.4416 15.5247 28.7102 15.5269 28.9789C15.5283 29.1855 15.5285 29.3921 15.5284 29.5987C15.5286 29.6977 15.5291 29.7968 15.5301 29.8958C15.5313 30.0344 15.531 30.1728 15.5302 30.3114C15.5304 30.3902 15.5306 30.469 15.5308 30.5503C15.4934 30.7914 15.4374 30.8494 15.2499 30.9999C15.1027 31.0314 15.1027 31.0314 14.9367 31.0316C14.8421 31.0327 14.8421 31.0327 14.7456 31.0338C14.6767 31.0333 14.6079 31.0328 14.537 31.0322C14.4278 31.0329 14.4278 31.0329 14.3164 31.0336C14.0755 31.0347 13.8346 31.0339 13.5936 31.0331C13.4264 31.0333 13.2592 31.0335 13.092 31.0338C12.7415 31.0343 12.3909 31.0337 12.0404 31.0325C11.6352 31.0311 11.2301 31.0316 10.8249 31.0329C10.4769 31.0341 10.129 31.0342 9.78096 31.0336C9.57317 31.0332 9.36541 31.0332 9.15762 31.034C8.92597 31.0346 8.69439 31.0336 8.46275 31.0322C8.39391 31.0328 8.32507 31.0333 8.25415 31.0338C8.19106 31.0331 8.12797 31.0324 8.06297 31.0316C8.00822 31.0315 7.95346 31.0315 7.89705 31.0314C7.69938 30.9891 7.62393 30.9064 7.49986 30.7499C7.46811 30.5507 7.46811 30.5507 7.46751 30.3124C7.46707 30.2689 7.46663 30.2253 7.46618 30.1805C7.46508 30.0369 7.46581 29.8935 7.46666 29.7499C7.46649 29.65 7.46624 29.55 7.46593 29.4501C7.46556 29.2408 7.4661 29.0315 7.46727 28.8222C7.46869 28.554 7.46787 28.2858 7.46637 28.0177C7.46547 27.8113 7.46576 27.605 7.4664 27.3987C7.46657 27.2998 7.46637 27.2009 7.46578 27.1021C7.46515 26.9638 7.46612 26.8256 7.46751 26.6874C7.46771 26.6088 7.46791 26.5301 7.46811 26.4491C7.49986 26.2499 7.49986 26.2499 7.61126 26.0976C7.74986 25.9999 7.74986 25.9999 7.99986 25.9999C7.95155 24.9041 7.91227 24.2379 7.07017 23.4647C6.94337 23.3505 6.81552 23.2376 6.68736 23.1249C6.64192 23.0849 6.59648 23.0448 6.54966 23.0036C6.4704 22.9341 6.39097 22.8649 6.31138 22.7958C6.00452 22.5276 5.70369 22.2525 5.40123 21.9794C5.16456 21.766 4.92762 21.553 4.68736 21.3436C4.64756 21.3086 4.60776 21.2736 4.56675 21.2374C4.47239 21.1554 4.37684 21.0747 4.28062 20.9948C3.28963 20.1502 3.10301 18.882 2.78379 17.6752C2.75183 17.555 2.71984 17.4348 2.68784 17.3146C2.6041 17 2.52062 16.6852 2.4372 16.3705C2.33743 15.9943 2.23734 15.6181 2.1373 15.242C2.05637 14.9376 1.97554 14.6332 1.89494 14.3288C1.75431 13.7978 1.61303 13.2671 1.46803 12.7373C1.43319 12.6093 1.39838 12.4813 1.36358 12.3533C1.33253 12.2398 1.30095 12.1264 1.26935 12.013C1.06172 11.2492 0.954207 10.5757 1.35533 9.85927C1.52883 9.58899 1.72673 9.36057 1.99986 9.1874C2.04111 9.1874 2.08236 9.1874 2.12486 9.1874C2.11197 9.13841 2.09908 9.08943 2.0858 9.03896C2.02726 8.47315 2.22598 8.01038 2.56236 7.5624C3.3034 6.73626 4.50345 6.67238 5.4022 7.29287ZM3.43736 8.1874C3.23273 8.42784 3.17478 8.56518 3.18736 8.8749C3.278 8.89895 3.278 8.89895 3.37046 8.92348C4.00782 9.10564 4.52474 9.34782 4.86367 9.95317C5.05243 10.3391 5.1751 10.7505 5.30699 11.1583C5.33573 11.2463 5.3645 11.3342 5.3933 11.4221C5.4533 11.6055 5.51306 11.789 5.57261 11.9726C5.64864 12.2069 5.72507 12.4411 5.80166 12.6753C5.87518 12.9001 5.94852 13.1249 6.02183 13.3498C6.04256 13.4133 6.04256 13.4133 6.06371 13.4781C6.10312 13.5991 6.14239 13.72 6.18165 13.841C6.20394 13.9096 6.22622 13.9781 6.24918 14.0488C6.31577 14.2608 6.37721 14.4735 6.43736 14.6874C6.74673 14.6255 6.74673 14.6255 7.06236 14.5624C7.02092 14.2472 6.93182 13.9662 6.82603 13.6684C6.80819 13.6173 6.79034 13.5663 6.77196 13.5137C6.71283 13.3449 6.65325 13.1763 6.59361 13.0077C6.55194 12.8895 6.51028 12.7712 6.46864 12.6529C6.40279 12.466 6.3369 12.2791 6.27087 12.0922C6.12799 11.6876 5.98681 11.2824 5.84685 10.8768C5.75217 10.6027 5.65683 10.3289 5.5614 10.055C5.51536 9.92248 5.46959 9.78984 5.4241 9.65711C5.3601 9.47057 5.29508 9.2844 5.22984 9.09829C5.20186 9.01555 5.20186 9.01555 5.17331 8.93113C5.04514 8.56988 4.89968 8.25063 4.55626 8.04726C4.49547 8.02768 4.49547 8.02768 4.43345 8.00771C4.39277 7.99369 4.35208 7.97967 4.31016 7.96523C3.9621 7.88634 3.72089 7.99857 3.43736 8.1874ZM2.43736 10.1874C2.20955 10.4503 2.15052 10.6569 2.12486 10.9999C2.15663 11.1777 2.19327 11.3416 2.24182 11.5145C2.26165 11.5891 2.26165 11.5891 2.28188 11.6651C2.32585 11.8296 2.37098 11.9937 2.41612 12.1579C2.44761 12.2747 2.47901 12.3917 2.51034 12.5086C2.57655 12.7552 2.64322 13.0017 2.71024 13.2481C2.81011 13.6158 2.90826 13.9839 3.00593 14.3522C3.15059 14.8973 3.29617 15.4422 3.44253 15.9868C3.52542 16.2954 3.60813 16.6039 3.6904 16.9126C3.77223 17.2197 3.85452 17.5266 3.93714 17.8335C3.96796 17.9483 3.99864 18.0631 4.02915 18.178C4.28853 19.2529 4.28853 19.2529 4.92173 20.1327C4.955 20.1647 4.98826 20.1966 5.02253 20.2296C5.23888 20.436 5.4603 20.6367 5.68785 20.8307C5.83585 20.9575 5.9803 21.0879 6.12486 21.2186C6.31115 21.3868 6.49814 21.5538 6.68736 21.7186C6.93041 21.9303 7.16961 22.1462 7.40879 22.3622C7.54868 22.4876 7.68989 22.6113 7.83189 22.7343C8.38193 23.2146 8.64387 23.608 8.93736 24.3124C8.95798 24.8693 8.97861 25.4261 8.99986 25.9999C10.6499 25.9999 12.2999 25.9999 13.9999 25.9999C14.0024 25.2458 14.005 24.4917 14.0077 23.7147C14.0088 23.4786 14.0099 23.2424 14.0111 22.999C14.0115 22.7832 14.0115 22.7832 14.0118 22.5675C14.012 22.473 14.0124 22.3785 14.0131 22.284C14.0211 21.0423 13.9297 19.911 13.0624 18.9374C12.6478 18.5218 12.2118 18.2194 11.6991 17.9374C11.5923 17.8772 11.4855 17.8171 11.3788 17.7568C11.3045 17.7149 11.2302 17.6731 11.1558 17.6313C10.7657 17.4123 10.3801 17.1858 9.99471 16.9588C9.80459 16.8468 9.61425 16.7353 9.42393 16.6237C9.35143 16.5811 9.27893 16.5386 9.20643 16.4961C9.10418 16.4361 9.10418 16.4361 8.99986 16.3749C8.93709 16.338 8.87432 16.3012 8.80964 16.2632C8.64401 16.1661 8.47822 16.0693 8.31236 15.9726C8.26531 15.9449 8.21827 15.9172 8.1698 15.8888C7.68239 15.6017 7.68239 15.6017 7.12413 15.5919C6.81696 15.6734 6.62943 15.8365 6.47251 16.1054C6.34392 16.3973 6.34449 16.6348 6.43736 16.9374C6.69158 17.373 7.13486 17.5854 7.56236 17.8202C7.6708 17.8814 7.77924 17.9425 7.88762 18.0038C7.99806 18.0661 8.10868 18.1281 8.21934 18.1901C8.55402 18.3779 8.88681 18.5688 9.21861 18.7616C9.27678 18.7946 9.33495 18.8276 9.39488 18.8616C9.47488 18.9082 9.47488 18.9082 9.5565 18.9557C9.60311 18.9825 9.64971 19.0092 9.69773 19.0368C9.83154 19.1396 9.88099 19.2166 9.93736 19.3749C9.92564 19.6015 9.92564 19.6015 9.87486 19.8124C9.63636 19.9714 9.46248 19.992 9.18736 19.9374C8.92136 19.8201 8.6773 19.6709 8.42955 19.5194C8.32171 19.4552 8.21388 19.391 8.10601 19.3268C7.99621 19.2612 7.88671 19.1952 7.77726 19.129C7.57392 19.0064 7.36893 18.8867 7.16343 18.7677C7.04119 18.6967 6.91896 18.6256 6.79673 18.5546C6.74065 18.5221 6.68457 18.4897 6.62678 18.4563C6.18289 18.1953 5.8314 17.978 5.60533 17.496C5.57463 17.4321 5.54394 17.3682 5.51231 17.3024C5.27067 16.7302 5.35998 16.1964 5.56236 15.6249C5.63817 15.3975 5.60428 15.3284 5.52989 15.1042C5.50752 15.0359 5.48515 14.9675 5.46211 14.8971C5.43718 14.8229 5.41226 14.7487 5.38658 14.6723C5.36117 14.5952 5.33576 14.5181 5.30958 14.4387C5.24161 14.2325 5.17296 14.0265 5.10417 13.8206C5.03604 13.6163 4.96853 13.4117 4.90098 13.2072C4.82188 12.9677 4.74261 12.7284 4.66258 12.4892C4.54305 12.1319 4.42467 11.7745 4.31163 11.4151C4.28282 11.3248 4.28282 11.3248 4.25343 11.2327C4.2186 11.1233 4.18442 11.0136 4.15107 10.9037C4.0366 10.5472 3.89149 10.2458 3.55626 10.0473C3.49547 10.0277 3.49547 10.0277 3.43345 10.0077C3.39277 9.99369 3.35208 9.97967 3.31016 9.96523C2.96161 9.88623 2.72146 9.99897 2.43736 10.1874ZM8.49986 26.9999C8.49986 27.9899 8.49986 28.9799 8.49986 29.9999C10.4799 29.9999 12.4599 29.9999 14.4999 29.9999C14.4999 29.0099 14.4999 28.0199 14.4999 26.9999C12.5199 26.9999 10.5399 26.9999 8.49986 26.9999Z" fill="#97AFC5"/>
<path d="M14.6876 1.56259C14.7764 1.60513 14.7764 1.60513 14.867 1.64853C15.2783 1.85843 15.6072 2.11618 15.9376 2.43759C16.1404 2.34735 16.2839 2.23297 16.4493 2.08603C17.4703 1.25687 18.7747 0.98542 20.0626 1.06259C21.3774 1.21743 22.5808 1.82987 23.4376 2.84775C24.3565 4.04651 24.7228 5.43683 24.536 6.93857C24.2675 8.48715 23.2954 9.52778 22.2165 10.6042C22.1526 10.6682 22.0887 10.7323 22.0248 10.7963C21.8532 10.9682 21.6815 11.1398 21.5096 11.3114C21.3293 11.4917 21.149 11.672 20.9688 11.8524C20.6668 12.1545 20.3646 12.4565 20.0624 12.7584C19.7129 13.1076 19.3636 13.457 19.0145 13.8065C18.714 14.1072 18.4134 14.4079 18.1127 14.7084C17.9334 14.8876 17.7541 15.0669 17.5749 15.2463C17.4069 15.4145 17.2388 15.5825 17.0706 15.7503C17.0088 15.812 16.947 15.8738 16.8854 15.9356C16.8014 16.0197 16.7173 16.1036 16.6331 16.1875C16.5625 16.2581 16.5625 16.2581 16.4904 16.3301C16.3033 16.5045 16.1433 16.5334 15.8868 16.529C15.7191 16.4935 15.6493 16.4353 15.5237 16.3195C15.4802 16.2795 15.4367 16.2395 15.3919 16.1983C15.1245 15.9423 14.8607 15.683 14.5989 15.4214C14.5349 15.3578 14.471 15.2942 14.4071 15.2306C14.2348 15.0591 14.0627 14.8875 13.8907 14.7157C13.7829 14.6081 13.675 14.5005 13.5672 14.3929C13.2287 14.0553 12.8904 13.7176 12.5522 13.3797C12.1637 12.9914 11.7748 12.6036 11.3855 12.2161C11.0832 11.9152 10.7814 11.614 10.4798 11.3125C10.3003 11.133 10.1206 10.9537 9.94053 10.7748C9.77102 10.6063 9.60198 10.4374 9.43327 10.2681C9.37176 10.2066 9.31009 10.1452 9.24825 10.0839C8.71451 9.55526 8.24566 8.99266 7.91807 8.31259C7.89728 8.27018 7.87649 8.22776 7.85506 8.18407C7.25947 6.93451 7.31016 5.50477 7.75791 4.21884C8.24446 3.01643 9.14462 2.06506 10.3126 1.50009C11.7659 0.922736 13.2604 0.871566 14.6876 1.56259ZM9.4376 3.50009C8.7273 4.35192 8.41316 5.39694 8.48716 6.49921C8.62698 7.85947 9.46067 8.72146 10.382 9.63904C10.443 9.70008 10.504 9.76113 10.5651 9.82219C10.7288 9.9859 10.8927 10.1494 11.0566 10.3129C11.2286 10.4845 11.4004 10.6563 11.5723 10.8281C11.8969 11.1525 12.2216 11.4767 12.5464 11.8009C12.9166 12.1703 13.2865 12.54 13.6565 12.9096C14.4166 13.6691 15.177 14.4284 15.9376 15.1876C16.1536 15.0945 16.2947 14.9718 16.4611 14.8067C16.5154 14.7531 16.5697 14.6995 16.6256 14.6443C16.6853 14.5847 16.745 14.5252 16.8047 14.4656C16.868 14.4029 16.9312 14.3403 16.9945 14.2777C17.1663 14.1075 17.3377 13.9369 17.509 13.7662C17.6163 13.6593 17.7237 13.5524 17.831 13.4456C18.1677 13.1107 18.5041 12.7755 18.8402 12.4399C19.2267 12.0539 19.614 11.6688 20.002 11.2844C20.3027 10.9865 20.6026 10.6878 20.902 10.3885C21.0804 10.2103 21.2591 10.0323 21.4386 9.85506C21.6079 9.68783 21.7763 9.5197 21.944 9.35088C22.0339 9.26081 22.1248 9.17167 22.2157 9.08257C23.0081 8.28015 23.496 7.27122 23.5196 6.1329C23.5086 5.00728 23.0951 4.03155 22.3016 3.22885C21.4923 2.46653 20.4678 2.07489 19.3548 2.10336C18.17 2.21542 17.214 2.74286 16.3985 3.60336C16.2772 3.72232 16.1912 3.74941 16.0235 3.78134C15.7024 3.73377 15.5398 3.53336 15.3126 3.31259C14.457 2.49819 13.4627 2.09622 12.2823 2.11239C11.1497 2.17784 10.1955 2.67261 9.4376 3.50009Z" fill="#D6A3B3"/>
<path d="M15.3126 4.46687C15.3671 4.46663 15.4217 4.46639 15.4779 4.46614C15.593 4.46597 15.7082 4.46643 15.8233 4.46748C15.9995 4.46881 16.1755 4.46749 16.3516 4.46589C16.4636 4.46605 16.5756 4.46637 16.6876 4.46687C16.7402 4.46636 16.7928 4.46585 16.847 4.46533C17.0774 4.46902 17.2117 4.47551 17.4087 4.60169C17.5294 4.79771 17.5287 4.92782 17.5245 5.1573C17.5237 5.23544 17.5229 5.31359 17.522 5.39411C17.5199 5.47548 17.5179 5.55686 17.5157 5.64069C17.5146 5.72303 17.5134 5.80537 17.5123 5.89021C17.5093 6.09354 17.5052 6.29678 17.5001 6.50007C17.5518 6.49876 17.6035 6.49745 17.6567 6.4961C17.891 6.49091 18.1252 6.48765 18.3594 6.48444C18.4408 6.48235 18.5222 6.48025 18.606 6.4781C18.6842 6.47729 18.7623 6.47648 18.8428 6.47565C18.9148 6.47435 18.9869 6.47304 19.061 6.47169C19.2501 6.50007 19.2501 6.50007 19.3984 6.59144C19.5495 6.82729 19.5359 7.03776 19.5333 7.31257C19.5336 7.39438 19.5336 7.39438 19.534 7.47785C19.5342 7.59301 19.5337 7.70816 19.5327 7.82331C19.5313 7.99947 19.5326 8.17547 19.5342 8.35163C19.5341 8.46361 19.5338 8.57559 19.5333 8.68757C19.5338 8.74018 19.5343 8.79279 19.5348 8.84699C19.5311 9.07737 19.5246 9.21174 19.3984 9.4087C19.2024 9.52941 19.0723 9.52866 18.8428 9.52448C18.7647 9.52368 18.6865 9.52287 18.606 9.52204C18.5247 9.51995 18.4433 9.51785 18.3594 9.51569C18.2771 9.51457 18.1948 9.51344 18.1099 9.51228C17.9066 9.50933 17.7034 9.50522 17.5001 9.50007C17.502 9.57762 17.502 9.57762 17.504 9.65675C17.5092 9.89097 17.5125 10.1252 17.5157 10.3594C17.5178 10.4408 17.5199 10.5222 17.522 10.606C17.5232 10.7232 17.5232 10.7232 17.5245 10.8428C17.5264 10.9509 17.5264 10.9509 17.5285 11.061C17.5001 11.2501 17.5001 11.2501 17.4087 11.3984C17.1728 11.5495 16.9624 11.5359 16.6876 11.5333C16.633 11.5335 16.5785 11.5338 16.5223 11.534C16.4071 11.5342 16.292 11.5337 16.1768 11.5327C16.0007 11.5313 15.8247 11.5326 15.6485 11.5342C15.5365 11.5341 15.4245 11.5338 15.3126 11.5333C15.2337 11.534 15.2337 11.534 15.1531 11.5348C14.9228 11.5311 14.7884 11.5246 14.5914 11.3984C14.4707 11.2024 14.4715 11.0723 14.4757 10.8428C14.4765 10.7647 14.4773 10.6865 14.4781 10.606C14.4802 10.5247 14.4823 10.4433 14.4844 10.3594C14.4856 10.2771 14.4867 10.1948 14.4879 10.1099C14.4908 9.9066 14.4949 9.70336 14.5001 9.50007C14.4225 9.50203 14.4225 9.50203 14.3434 9.50404C14.1092 9.50923 13.875 9.51248 13.6407 9.51569C13.5593 9.51779 13.4779 9.51988 13.3941 9.52204C13.316 9.52285 13.2378 9.52365 13.1573 9.52448C13.0853 9.52579 13.0133 9.5271 12.9391 9.52845C12.7501 9.50007 12.7501 9.50007 12.6017 9.4087C12.4506 9.17284 12.4642 8.96238 12.4669 8.68757C12.4666 8.63303 12.4664 8.57848 12.4661 8.52229C12.466 8.40713 12.4664 8.29198 12.4675 8.17683C12.4688 8.00066 12.4675 7.82466 12.4659 7.64851C12.4661 7.53653 12.4664 7.42455 12.4669 7.31257C12.4664 7.25996 12.4659 7.20735 12.4653 7.15314C12.469 6.92277 12.4755 6.7884 12.6017 6.59144C12.7977 6.47073 12.9278 6.47148 13.1573 6.47565C13.2354 6.47646 13.3136 6.47727 13.3941 6.4781C13.5162 6.48124 13.5162 6.48124 13.6407 6.48444C13.723 6.48557 13.8054 6.4867 13.8902 6.48786C14.0935 6.49081 14.2968 6.49492 14.5001 6.50007C14.4988 6.44837 14.4975 6.39666 14.4961 6.34339C14.4909 6.10917 14.4877 5.87495 14.4844 5.64069C14.4813 5.51864 14.4813 5.51864 14.4781 5.39411C14.4773 5.31596 14.4765 5.23781 14.4757 5.1573C14.4743 5.08529 14.473 5.01328 14.4717 4.93909C14.5001 4.75007 14.5001 4.75007 14.5914 4.60169C14.8273 4.4506 15.0378 4.46422 15.3126 4.46687ZM15.5001 5.50007C15.4977 5.62422 15.4954 5.74837 15.493 5.87629C15.4899 5.99668 15.4869 6.11707 15.4837 6.23745C15.4806 6.36213 15.4784 6.48682 15.4763 6.61152C15.474 6.68987 15.4718 6.76822 15.4696 6.84895C15.4679 6.92128 15.4663 6.99361 15.4646 7.06814C15.4376 7.25007 15.4376 7.25007 15.3669 7.36689C15.1944 7.47127 15.0495 7.46501 14.8489 7.46955C14.7706 7.47177 14.6922 7.47398 14.6115 7.47626C14.5296 7.47767 14.4477 7.47908 14.3633 7.48054C14.2799 7.48261 14.1964 7.48477 14.113 7.48701C13.9087 7.49217 13.7044 7.49622 13.5001 7.50007C13.5001 7.83007 13.5001 8.16007 13.5001 8.50007C13.6242 8.50241 13.7484 8.50474 13.8763 8.50715C13.9967 8.51019 14.1171 8.51324 14.2374 8.51647C14.3621 8.51957 14.4868 8.52173 14.6115 8.52387C14.6899 8.52609 14.7682 8.5283 14.8489 8.53059C14.9213 8.53222 14.9936 8.53386 15.0681 8.53555C15.2501 8.56257 15.2501 8.56257 15.3669 8.63325C15.4713 8.80576 15.465 8.95066 15.4696 9.15119C15.4729 9.26872 15.4729 9.26872 15.4763 9.38862C15.4777 9.47051 15.4791 9.55241 15.4805 9.63679C15.4826 9.72024 15.4848 9.8037 15.487 9.88715C15.4922 10.0914 15.4962 10.2958 15.5001 10.5001C15.8301 10.5001 16.1601 10.5001 16.5001 10.5001C16.5024 10.3759 16.5047 10.2518 16.5071 10.1238C16.5102 10.0035 16.5132 9.88307 16.5165 9.76269C16.5196 9.63801 16.5217 9.51331 16.5239 9.38862C16.5261 9.31027 16.5283 9.23192 16.5306 9.15119C16.5322 9.07886 16.5339 9.00652 16.5355 8.932C16.5626 8.75007 16.5626 8.75007 16.6332 8.63325C16.8058 8.52887 16.9507 8.53512 17.1512 8.53059C17.2295 8.52837 17.3079 8.52615 17.3886 8.52387C17.5115 8.52176 17.5115 8.52176 17.6368 8.5196C17.7202 8.51753 17.8037 8.51537 17.8872 8.51313C18.0914 8.50797 18.2958 8.50391 18.5001 8.50007C18.5001 8.17007 18.5001 7.84007 18.5001 7.50007C18.3759 7.49773 18.2518 7.4954 18.1238 7.49299C18.0035 7.48995 17.8831 7.4869 17.7627 7.48367C17.638 7.48057 17.5133 7.47841 17.3886 7.47626C17.3103 7.47405 17.2319 7.47183 17.1512 7.46955C17.0789 7.46791 17.0065 7.46628 16.932 7.46459C16.7501 7.43757 16.7501 7.43757 16.6332 7.36689C16.5289 7.19437 16.5351 7.04948 16.5306 6.84895C16.5284 6.77059 16.5262 6.69224 16.5239 6.61152C16.5218 6.48868 16.5218 6.48868 16.5196 6.36335C16.5175 6.27989 16.5154 6.19644 16.5131 6.11298C16.508 5.9087 16.5039 5.70438 16.5001 5.50007C16.1701 5.50007 15.8401 5.50007 15.5001 5.50007Z" fill="#D6A3B3"/>
</svg>
