<svg width="20" height="20" viewBox="0 0 20 20" fill="none" xmlns="http://www.w3.org/2000/svg">
<path d="M9.10156 0.0390606C7.17188 0.226561 5.39063 0.937498 3.82813 2.14062C3.06641 2.72656 2.07813 3.82812 1.50781 4.72656C1.26172 5.11328 0.78125 6.09765 0.609375 6.5664C0.417969 7.08984 0.210938 7.89453 0.109375 8.51562C-0.0117188 9.27734 -0.0117188 10.7227 0.109375 11.4844C0.285156 12.5625 0.5625 13.4297 1.03516 14.3945C1.55078 15.4453 2.08594 16.1914 2.94531 17.0547C3.80859 17.9141 4.55469 18.4492 5.60547 18.9648C6.57031 19.4375 7.4375 19.7148 8.51563 19.8906C9.27734 20.0117 10.7227 20.0117 11.4844 19.8906C12.5625 19.7148 13.4297 19.4375 14.3945 18.9648C15.4453 18.4492 16.1914 17.9141 17.0547 17.0547C17.9141 16.1914 18.4492 15.4453 18.9648 14.3945C19.3086 13.6953 19.4805 13.2383 19.668 12.5352C19.9258 11.5469 19.9688 11.1641 19.9883 9.53906L20.0078 8.08594H15.0039H10V10V11.9141H12.9453H15.8906L15.7773 12.2148C15.5273 12.8633 15.0977 13.5664 14.6406 14.082C14.0703 14.7227 13.4648 15.1836 12.7148 15.5469C11.8086 15.9883 11.2188 16.1289 10.1953 16.1602C9.57422 16.1797 9.40625 16.168 8.98828 16.0977C6.38281 15.6523 4.35156 13.6289 3.90625 11.0391C3.80078 10.4141 3.80078 9.58594 3.90625 8.96094C4.35156 6.37109 6.38281 4.34765 8.98828 3.90234C9.61719 3.79687 10.668 3.8125 11.25 3.9375C12.0273 4.10547 12.8086 4.4375 13.4336 4.85547C13.6133 4.98047 13.7656 5.07812 13.7734 5.07812C13.7773 5.07812 14.2188 4.51172 14.75 3.8164C15.2852 3.125 15.8047 2.44922 15.9063 2.3164L16.0938 2.07812L15.7734 1.84375C14.5039 0.929686 12.9688 0.324217 11.3477 0.0937481C10.8672 0.0273418 9.55078 -0.00781441 9.10156 0.0390606Z" fill="black"/>
</svg>
