<svg width="92" height="92" viewBox="0 0 92 92" fill="none" xmlns="http://www.w3.org/2000/svg">
<path d="M90.9038 46.8606C90.9038 43.0914 90.5979 40.3409 89.936 37.4885H46.8954V54.5008H72.1593C71.6501 58.7286 68.8996 65.0956 62.7872 69.3739L62.7015 69.9435L76.3102 80.4859L77.253 80.58C85.9119 72.583 90.9038 60.8168 90.9038 46.8606Z" fill="#A2BCD3"/>
<path d="M46.8954 91.6839C59.2726 91.6839 69.6633 87.6088 77.253 80.58L62.7872 69.3739C58.9162 72.0735 53.7206 73.9581 46.8954 73.9581C34.7728 73.9581 24.4839 65.9614 20.8162 54.9084L20.2786 54.9541L6.12817 65.9053L5.94312 66.4197C13.4815 81.3946 28.9659 91.6839 46.8954 91.6839Z" fill="#BCBECD"/>
<path d="M20.8162 54.9085C19.8484 52.0561 19.2884 48.9998 19.2884 45.8419C19.2884 42.6837 19.8484 39.6277 20.7653 36.7753L20.7396 36.1679L6.41188 25.0408L5.9431 25.2637C2.83617 31.478 1.05341 38.4563 1.05341 45.8419C1.05341 53.2275 2.83617 60.2055 5.9431 66.4197L20.8162 54.9085Z" fill="#FFF1E7"/>
<path d="M46.8954 17.7254C55.5034 17.7254 61.3099 21.4437 64.6209 24.551L77.5584 11.9189C69.6127 4.53328 59.2726 0 46.8954 0C28.9659 0 13.4815 10.2889 5.94312 25.2638L20.7653 36.7754C24.4839 25.7224 34.7728 17.7254 46.8954 17.7254Z" fill="#D5A4B4"/>
</svg>
