<svg width="800" height="800" viewBox="0 0 800 800" fill="none" xmlns="http://www.w3.org/2000/svg">
<g clip-path="url(#clip0_147_56)">
<path fill-rule="evenodd" clip-rule="evenodd" d="M88.889 188.235V117.647C88.889 104.659 98.1702 94.1175 111.111 94.1175H185.62V117.647C185.62 130.635 196.161 141.176 209.15 141.176C222.138 141.176 232.679 130.635 232.679 117.647V94.1175H562.092V117.647C562.092 130.635 572.634 141.176 585.621 141.176C598.609 141.176 609.15 130.635 609.15 117.647V94.1175H688.888C701.829 94.1175 711.113 104.659 711.113 117.647V188.235H88.889ZM88.889 755.558L711.113 758.162V237.905H88.889V755.558ZM688.888 47.0587H609.15V23.5296C609.15 10.5412 598.609 0 585.621 0C572.634 0 562.092 10.5413 562.092 23.5292V47.0587H232.68V23.5296C232.68 10.5412 222.139 0 209.151 0C196.162 0 185.621 10.5413 185.621 23.5292V47.0587H115.033C76.1152 47.0587 44.4448 78.7296 44.4448 117.647V800H755.554V111.111C755.554 72.1933 727.809 47.0587 688.888 47.0587Z" fill="#D5A0B0"/>
<path fill-rule="evenodd" clip-rule="evenodd" d="M424.796 468.204L400.001 388.282L375.192 468.204H289.803L358.894 520.758L333.492 602.604L399.998 552.021L466.509 602.621L441.096 520.754L510.2 468.204H424.796ZM545.225 455.771L561.754 450.562L561.725 450.525L545.196 455.679M561.775 450.508L561.804 450.546L577.017 445.75C579.067 452.254 576.871 459.35 571.579 463.4L479.85 533.162L514.879 646.017C516.909 652.562 514.692 659.658 509.379 663.662C504.088 667.671 496.959 667.671 491.667 663.642L399.996 593.904L308.305 663.642C305.649 665.658 302.554 666.662 299.458 666.662C296.363 666.662 293.267 665.658 290.632 663.662C285.319 659.658 283.082 652.562 285.111 646.037L320.143 533.162L228.431 463.4C223.119 459.35 220.944 452.254 222.972 445.75C225.001 439.25 230.753 434.871 237.299 434.871H350.637L385.669 322.015C385.671 322.008 385.667 322.023 385.669 322.015C387.704 315.502 393.478 311.111 399.996 311.111C406.542 311.111 412.294 315.49 414.343 321.994L417.454 332.049L449.354 434.871H562.692C569.238 434.871 574.992 439.25 577.017 445.75L561.775 450.508Z" fill="#A2BDD3"/>
</g>
<defs>
<clipPath id="clip0_147_56">
<rect width="800" height="800" fill="white"/>
</clipPath>
</defs>
</svg>
