<svg width="683" height="683" viewBox="0 0 683 683" fill="none" xmlns="http://www.w3.org/2000/svg">
<g clip-path="url(#clip0_148_60)">
<path d="M316 0.799997C313.467 1.06666 305.6 2 298.667 2.8C193.2 14.8 95.7332 80.9333 42.1332 176.8C27.3332 203.333 13.8665 239.733 7.59984 270C1.73317 297.733 0.666504 309.6 0.666504 343.6C0.666504 374.267 0.799837 376 3.4665 379.6C7.19984 384.533 14.5332 385.467 18.6665 381.333C21.3332 378.667 21.3332 377.733 20.5332 354.933C17.5998 273.2 42.6665 198.933 94.6665 136C132 90.6667 183.333 55.7333 240.133 36.8C356.533 -2 481.067 27.6 568 114.667C605.067 151.6 629.6 191.2 646 240.667C668.133 307.067 668.133 375.733 646 442C629.467 491.6 605.067 531.067 568 568C531.067 605.067 491.467 629.6 442 646C304.533 691.867 154.533 640.133 73.4665 519.067C56.5332 493.733 40.6665 459.2 32.6665 430C28.6665 415.6 25.1998 410.667 19.1998 410.667C15.4665 410.667 9.33317 416.133 9.33317 419.467C9.33317 422.667 16.3998 446.533 21.3332 460.4C26.9332 475.6 43.0665 508 52.6665 523.333C76.2665 560.533 110.667 596.533 146.8 621.6C222 673.867 313.733 693.467 404.667 676.667C541.6 651.333 651.467 541.467 676.533 404.8C697.333 292.133 662.8 180.533 582.533 100.133C529.333 47.0667 465.333 14.9333 389.333 3.33333C376 1.33333 326.4 -0.400003 316 0.799997Z" fill="#D5A0B0"/>
<path d="M310.667 41.6C268.8 45.4666 219.733 62.2666 182.8 85.2C102.667 134.8 49.8666 220.133 41.4666 313.333C28.6666 453.2 114.133 583.733 246.933 627.333C390.533 674.4 544.533 609.6 611.333 474C621.6 453.2 630.667 429.067 630.667 422.667C630.667 418.267 625.333 413.333 620.667 413.333C615.733 413.333 612.4 417.467 609.2 427.333C606 437.333 596.667 460.133 592.533 468.267L590 473.333L577.333 466C563.2 457.867 557.733 456.933 553.333 461.6C547.2 468.133 550.533 473.733 566 482.667C572.933 486.667 578.667 490.4 578.667 491.067C578.667 495.067 556.133 523.733 541.2 538.667C526.133 553.867 495.067 578.667 491.067 578.667C490.4 578.667 486.667 572.933 482.667 566C473.733 550.533 468.133 547.2 461.6 553.333C457.067 557.6 457.867 562.933 465.333 576C469.067 582.4 472 588.267 472 588.933C472 591.067 446.533 602.4 427.6 608.667C361.467 630.4 291.867 626.667 225.6 597.6C218 594.267 211.467 590.8 211.067 589.867C210.667 588.933 213.467 582.8 217.2 576.267C224.8 562.933 225.733 557.733 221.067 553.333C214.533 547.2 208.933 550.533 200 566C196 572.933 192.133 578.667 191.333 578.667C189.067 578.533 167.067 562.267 153.867 550.667C146.933 544.667 136.667 534.267 130.933 527.733C119.867 514.933 104.133 493.467 104 491.333C104 490.533 109.2 486.933 115.6 483.333C128.533 475.867 132.8 471.333 131.467 466.267C129.067 456.533 122.267 456.4 106.4 465.467C99.8666 469.2 93.7332 472 92.7999 471.6C90.5332 470.667 79.5999 445.733 73.8666 428.133C52.3999 362.933 56.2666 290.933 84.6666 226.267C88.1332 218.267 91.8666 211.467 92.7999 211.067C93.7332 210.667 99.8666 213.467 106.4 217.2C120.133 225.067 125.067 225.733 129.2 220.533C134.933 213.333 132.133 208.8 116.533 199.867C109.6 196 104 192.133 104 191.467C104.133 189.2 119.867 167.867 130.933 154.933C136.667 148.4 146.933 138 153.867 132C166.933 120.533 189.067 104.133 191.333 104C192.133 104 195.867 109.333 199.733 116C207.333 128.933 211.467 132.8 216.533 131.467C226 129.067 226.267 122.267 217.333 106.667C213.733 100.267 210.667 94.2666 210.667 93.4666C210.667 92.6666 215.333 89.7333 221.067 87.0666C257.733 70.1333 292.267 61.8666 333.2 60.4C352 59.7333 355.467 59.2 357.6 57.0666C361.333 53.3333 360.8 46.1333 356.533 42.8C353.333 40.2666 351.333 40 338.133 40.1333C330 40.2666 317.6 40.9333 310.667 41.6Z" fill="#BDBECD"/>
<path d="M391.866 46.6666C390.666 47.3333 388.933 49.7333 388.133 51.8666C385.6 57.8666 389.066 63.4666 396.4 65.3333C426.266 72.5333 448.133 80 465.6 88.8L473.333 92.6666L466 105.333C456.4 122.133 456.4 129.067 466.133 131.467C471.333 132.8 475.333 129.067 483.333 115.333L490.8 102.667L498.533 108C509.866 115.6 525.2 128 535.866 138.133C550.133 151.467 578.666 187.067 578.666 191.333C578.666 192.133 572.933 196 566 200C550.4 209.067 547.066 214.8 553.733 221.067C558.4 225.467 563.2 224.667 576.266 217.2C582.8 213.467 588.8 210.667 589.733 211.067C592 212 602.8 236.4 608.666 254.267C620.266 289.2 625.066 332 621.333 367.067C620 380.267 620.933 384.133 626.266 386.533C630.933 388.667 632.8 388.4 636.666 384.933C639.733 382.267 640.133 380.4 641.466 367.333C643.333 349.867 642.266 315.6 639.333 296.667C620.666 175.6 530.933 77.3333 412.666 48.5333C398.133 45.0666 395.066 44.7999 391.866 46.6666Z" fill="#BDBECD"/>
<path d="M258 92C252.133 94.2667 251.333 96.9333 250.933 115.2C250.267 138 252 150.533 256.933 158.533C261.2 165.333 270.933 172.533 278.8 174.667L284 176.133V203.067C284 230.933 284.933 237.733 288.933 240.8C292 243.067 297.333 243.067 300.4 240.8C304.4 237.733 305.333 230.933 305.333 203.067V176.133L310.533 174.667C318.4 172.533 328.133 165.333 332.4 158.533C337.333 150.533 339.067 138 338.4 115.067C338 98.9333 337.733 97.2 335.067 94.5333C331.2 90.6667 324.8 90.6667 320.933 94.5333C318.133 97.2 318 98.8 317.6 119.733C317.2 145.867 316.933 147.2 312.4 151.467C305.733 157.6 305.6 157.067 305.067 126C304.667 98.6667 304.533 97.3333 301.733 94.5333C297.867 90.6667 291.467 90.6667 287.6 94.5333C284.8 97.3333 284.667 98.6667 284.267 126C283.733 157.067 283.6 157.6 276.933 151.467C272.4 147.2 272.133 145.867 271.733 119.733C271.333 99.4667 271.067 97.2 268.667 94.8C265.333 91.6 261.467 90.5333 258 92Z" fill="#A2BDD3"/>
<path d="M384.667 92.4001C372.533 97.2001 364.8 105.6 360.667 118.4C357.467 128.267 358.4 145.067 362.667 154C366.4 161.6 373.733 169.467 379.733 172.133L384 174V202C384 217.467 384.533 232 385.333 234.533C388.4 245.467 400.933 245.467 404 234.533C404.8 232 405.333 217.467 405.333 202V174L409.467 172.133C415.333 169.6 423.067 161.2 426.8 153.6C429.467 148.267 430 145.333 430 133.333C430 121.2 429.6 118.533 426.667 112.667C422.8 104.667 415.733 97.4667 408.667 94.0001C402.267 90.9334 390.133 90.1334 384.667 92.4001ZM402.8 114.267C405.067 116.267 407.867 119.867 408.8 122.267C411.2 127.867 411.2 138.8 408.8 144.4C406.4 150.267 399.333 156 394.667 156C390 156 382.933 150.267 380.533 144.4C378.133 138.8 378.133 127.867 380.533 122.267C382.933 116.4 390 110.667 394.667 110.667C396.8 110.667 400.267 112.267 402.8 114.267Z" fill="#A2BDD3"/>
<path d="M192.666 212.667C189.333 215.867 188.533 219.2 190.133 223.2C190.533 224.4 216.133 246.533 246.8 272.267C306.8 322.8 303.6 319.333 300 328.667L298.666 332H278.666C259.066 332 258.4 332.133 255.333 335.333C251.066 339.467 251.066 344.533 255.333 348.667C258.4 351.867 259.066 352 279.066 352H299.6L301.2 357.6C302.4 361.333 305.6 365.733 311.066 371.333C320.8 380.933 328 384 341.333 384C354.666 384 361.866 380.933 371.466 371.467C380.933 361.867 384 354.667 384 341.333C384 328 380.933 320.8 371.466 311.2C361.2 300.933 353.866 298.133 338.933 298.933C331.866 299.2 326.933 300.267 322.8 302.267L316.933 305.2L263.466 260.267C234.133 235.467 208.266 213.867 206.133 212.267C201.2 208.4 196.666 208.533 192.666 212.667ZM353.466 321.733C360.8 326.667 364 332.533 364 341.333C364 354.933 354.933 364 341.333 364C327.733 364 318.666 354.933 318.666 341.333C318.666 327.733 327.733 318.667 341.333 318.667C347.066 318.667 350 319.467 353.466 321.733Z" fill="#D5A0B0"/>
<path d="M104 258.533C101.467 259.867 97.5999 263.2 95.3333 265.867L91.3333 270.933L90.9333 339.733C90.5333 417.2 90.1333 413.467 100.533 422L105.6 426H158H210.4L215.467 422C225.333 413.867 225.333 414 225.333 365.467V322.133L192.267 289.067L159.2 256H133.867C111.867 256 108 256.267 104 258.533ZM144.267 297.6C144.8 320 145.467 322.8 151.2 329.067C157.067 335.6 160.667 336.533 183.733 337.067L205.333 337.6L205.067 371.867L204.667 406H158H111.333L110.933 342.667C110.8 307.867 110.933 278.533 111.333 277.6C111.733 276.4 116.267 276 127.867 276H143.733L144.267 297.6ZM181.067 317.067C164.933 317.733 165.333 318 165.333 303.733V291.333L178 304L190.8 316.667L181.067 317.067Z" fill="#A2BDD3"/>
<path d="M518 258.133C511.733 261.333 500.133 273.333 498.533 278.4C496 285.867 497.733 295.333 502.4 301.067L506.4 306L491.733 320.8L476.933 335.733L471.467 331.867C465.333 327.467 458.533 325.867 451.467 327.2C445.733 328.267 431.067 341.2 428.4 347.6C426.133 353.2 426.133 361.6 428.533 367.067C430.8 372.533 482 423.333 487.067 425.2C497.467 429.2 508.8 425.067 518.533 414C527.867 403.2 528.933 392.4 521.6 382L517.6 376.4L532.533 361.6L547.333 346.933L552.267 350.933C558 355.6 566.533 357.2 573.733 354.8C580.267 352.533 591.2 342.533 594.533 335.6C597.867 328.667 598.133 323.067 595.333 316.267C592.667 310.133 545.467 262.267 538.4 258.533C532.4 255.467 523.467 255.2 518 258.133ZM553.733 299.733C566.667 312.8 577.333 324.133 577.333 324.933C577.333 325.733 575.867 328.267 574 330.533C567.2 338.533 567.2 338.533 541.2 312.533C528 299.467 517.333 287.867 517.333 286.8C517.333 284.133 525.333 276 528 276C529.2 276 540.667 286.667 553.733 299.733ZM532 332.533C532 333.333 525.6 340.4 517.733 348.267L503.467 362.667L497.067 356.4L490.667 350.133L505.6 335.067L520.533 320L526.267 325.6C529.467 328.667 532 331.867 532 332.533ZM482.667 371.333L507.2 395.867L504.533 399.6C502.933 401.733 500.133 404.267 498.267 405.333L494.667 407.333L470.667 383.333C457.467 370.133 446.667 358.533 446.667 357.467C446.667 355.2 454.533 346.667 456.667 346.667C457.333 346.667 469.067 357.733 482.667 371.333Z" fill="#A2BDD3"/>
<path d="M278.267 454.267C277.2 455.6 275.867 458.8 275.333 461.467L274.4 466.4L266 466.933C255.867 467.6 248.267 472 244.533 479.6C242.267 484.267 242 488 242 526.667C242 574.267 242.267 575.733 252.4 582.4L257.867 586L339.2 586.4C429.733 586.8 428.667 586.933 435.333 578.133C440.667 571.2 441.6 561.733 441.067 521.467C440.667 488.533 440.4 484.133 438.133 479.6C434.4 472 426.8 467.6 416.667 466.933L408.267 466.4L407.333 461.467C405.6 452.267 404.8 452 380.8 452C357.867 452 351.6 453.467 344.4 460.267L341.333 463.067L338.4 460.267C331.067 453.467 324.8 452 301.867 452C283.067 452 280.133 452.267 278.267 454.267ZM326.133 476.533L330.667 481.067V507.867V534.667L327.2 533.333C325.333 532.533 317.6 532 309.867 532H296V502V472H308.8C321.6 472 321.6 472 326.133 476.533ZM386.667 502V532H372.8C365.067 532 357.333 532.533 355.467 533.333L352 534.667V507.867V481.067L356.533 476.533C361.067 472 361.067 472 373.867 472H386.667V502ZM274.933 516C275.467 553.733 273.467 551.067 302.133 552L322.933 552.667L326.8 557.067C328.933 559.467 330.667 562.533 330.667 564C330.667 566.667 329.867 566.667 297.067 566.4L263.333 566L262.933 528C262.8 507.067 262.933 489.333 263.333 488.4C263.6 487.333 266.133 486.667 269.2 486.667H274.533L274.933 516ZM419.333 526.667V566L385.733 566.4C352.8 566.667 352 566.667 352 564C352 562.533 353.733 559.467 355.867 557.067L359.733 552.667L380.533 552C409.2 551.067 407.2 553.733 407.733 515.867L408.133 486.533L413.733 486.933L419.333 487.333V526.667Z" fill="#A2BDD3"/>
</g>
<defs>
<clipPath id="clip0_148_60">
<rect width="682.667" height="682.667" fill="white"/>
</clipPath>
</defs>
</svg>
