<svg width="32" height="32" viewBox="0 0 32 32" fill="none" xmlns="http://www.w3.org/2000/svg">
<g clip-path="url(#clip0_47_1401)">
<path d="M15.0001 9.43754C18.6369 9.42747 18.6369 9.42747 20.1583 9.42534C20.5059 9.42485 20.8536 9.42434 21.2012 9.42381C21.2448 9.42374 21.2884 9.42368 21.3333 9.42361C22.0368 9.42252 22.7402 9.42055 23.4437 9.41826C24.1656 9.41592 24.8876 9.41455 25.6095 9.41402C26.015 9.4137 26.4205 9.41293 26.826 9.41111C27.2076 9.40942 27.5891 9.40889 27.9707 9.40927C28.1108 9.4092 28.251 9.4087 28.3911 9.40774C28.5823 9.4065 28.7734 9.4068 28.9646 9.40748C29.0202 9.40675 29.0758 9.40602 29.133 9.40527C29.4737 9.40857 29.6669 9.46137 29.9376 9.68754C30.1789 9.96607 30.152 10.2644 30.1503 10.6148C30.151 10.7072 30.151 10.7072 30.1516 10.8015C30.1528 11.005 30.1525 11.2084 30.1522 11.4119C30.1525 11.5535 30.1528 11.6951 30.1532 11.8367C30.1537 12.1333 30.1536 12.43 30.153 12.7267C30.1522 13.1068 30.1535 13.4868 30.1553 13.8668C30.1565 14.1592 30.1564 14.4516 30.1561 14.744C30.1561 14.8841 30.1565 15.0242 30.1572 15.1643C30.1582 15.3603 30.1575 15.5562 30.1564 15.7522C30.157 15.81 30.1576 15.8678 30.1583 15.9273C30.1543 16.2748 30.1068 16.4742 29.8751 16.75C29.5831 17.0181 29.2077 16.9612 28.8348 16.9559C28.7645 16.9556 28.6942 16.9553 28.6217 16.9551C28.3976 16.954 28.1734 16.9516 27.9493 16.9493C27.7972 16.9483 27.645 16.9475 27.4929 16.9467C27.1202 16.9448 26.7477 16.9411 26.3751 16.9375C26.3751 17.5563 26.3751 18.175 26.3751 18.8125C26.6138 18.8089 26.8525 18.8053 27.0985 18.8016C27.332 18.7991 27.5655 18.7972 27.7991 18.7954C27.9603 18.7938 28.1215 18.7917 28.2826 18.789C28.5155 18.7851 28.7484 18.7834 28.9813 18.782C29.0523 18.7804 29.1233 18.7788 29.1964 18.7771C30.0388 18.7768 30.6886 19.0904 31.2921 19.6614C31.6982 20.0917 32.0037 20.6901 32.0111 21.2864C32.0119 21.3427 32.0127 21.3991 32.0136 21.4571C32.0143 21.5477 32.0143 21.5477 32.015 21.6402C32.0155 21.7028 32.016 21.7653 32.0165 21.8298C32.0174 21.9621 32.018 22.0944 32.0185 22.2266C32.0196 22.4286 32.0223 22.6304 32.0251 22.8323C32.0257 22.961 32.0263 23.0896 32.0267 23.2183C32.0278 23.2785 32.0289 23.3386 32.03 23.4006C32.0289 23.756 31.9985 23.9751 31.7501 24.25C31.4581 24.5181 31.0827 24.4612 30.7098 24.4559C30.6395 24.4556 30.5692 24.4553 30.4967 24.4551C30.2726 24.454 30.0484 24.4516 29.8243 24.4493C29.6722 24.4483 29.52 24.4475 29.3679 24.4467C28.9953 24.4446 28.6227 24.4415 28.2501 24.4375C28.2506 24.5001 28.2512 24.5627 28.2518 24.6272C28.2568 25.2176 28.2606 25.8079 28.263 26.3983C28.2643 26.7018 28.2661 27.0053 28.2689 27.3088C28.2717 27.6018 28.2731 27.8948 28.2738 28.1878C28.2743 28.2995 28.2752 28.4112 28.2765 28.5228C28.2783 28.6795 28.2786 28.8361 28.2785 28.9928C28.2794 29.0387 28.2803 29.0847 28.2812 29.1321C28.2786 29.4508 28.1998 29.6293 28.0001 29.875C27.6737 30.1286 27.3342 30.1109 26.9376 30.0625C26.6212 29.9127 26.5612 29.8102 26.3751 29.5C26.3751 27.8294 26.3751 26.1588 26.3751 24.4375C21.3838 24.4375 16.3926 24.4375 11.2501 24.4375C11.2501 26.1082 11.2501 27.7788 11.2501 29.5C10.9528 29.9459 10.9528 29.9459 10.6876 30.0625C10.3408 30.1143 10.0331 30.1078 9.71492 29.9571C9.48664 29.7405 9.38377 29.5887 9.35252 29.2703C9.35198 29.1801 9.35247 29.09 9.35379 28.9998C9.35374 28.9257 9.35374 28.9257 9.3537 28.8501C9.35383 28.6874 9.35529 28.5248 9.35676 28.3621C9.35711 28.249 9.35738 28.136 9.35757 28.0229C9.35828 27.7259 9.36012 27.4288 9.3622 27.1318C9.36412 26.8285 9.36497 26.5252 9.36592 26.2218C9.36793 25.6271 9.37112 25.0323 9.37507 24.4375C9.33597 24.4381 9.29687 24.4387 9.25659 24.4392C8.849 24.4448 8.44143 24.4485 8.03382 24.4513C7.88178 24.4525 7.72974 24.4542 7.57771 24.4564C7.35895 24.4594 7.14023 24.4609 6.92146 24.462C6.85367 24.4632 6.78588 24.4645 6.71604 24.4659C6.34334 24.466 6.09822 24.4539 5.81257 24.1875C5.55526 23.9011 5.60384 23.5624 5.61335 23.1993C5.6142 23.1381 5.61504 23.0769 5.61592 23.0138C5.61812 22.8634 5.6212 22.713 5.62507 22.5625C5.71121 22.5618 5.71121 22.5618 5.79909 22.561C6.34422 22.5561 6.88935 22.5506 7.43447 22.5446C7.71462 22.5415 7.99477 22.5386 8.27493 22.5362C8.54605 22.5338 8.81715 22.5309 9.08826 22.5277C9.19093 22.5265 9.2936 22.5256 9.39627 22.5248C11.0139 22.5128 12.4377 22.2408 13.6383 21.0611C14.2599 20.4172 14.596 19.6499 14.8751 18.8125C18.0513 18.8125 21.2276 18.8125 24.5001 18.8125C24.5001 18.1938 24.5001 17.575 24.5001 16.9375C21.3651 16.9375 18.2301 16.9375 15.0001 16.9375C15.0001 14.4625 15.0001 11.9875 15.0001 9.43754Z" fill="#D6A3B3"/>
<path d="M5.24979 2.18757C5.30304 2.20803 5.3563 2.22849 5.41116 2.24958C6.30268 2.63426 6.90022 3.43636 7.29373 4.29108C7.61653 5.12337 7.63838 6.17009 7.33011 7.00983C7.19514 7.3085 7.04166 7.59318 6.87479 7.87507C6.85416 7.91632 6.83354 7.95757 6.81229 8.00007C6.86353 7.97372 6.91477 7.94737 6.96756 7.92023C7.03491 7.88599 7.10227 7.85175 7.17166 7.81647C7.23837 7.78239 7.30508 7.74831 7.37381 7.7132C7.62865 7.59403 7.83431 7.5548 8.11464 7.55051C8.17456 7.54951 8.23449 7.5485 8.29623 7.54747C8.57137 7.54466 8.8465 7.54212 9.12166 7.54068C9.26597 7.53965 9.41028 7.53795 9.55458 7.53556C10.7147 7.51641 11.5409 7.58263 12.4168 8.41144C12.8502 8.87052 13.1309 9.4768 13.1344 10.1068C13.1349 10.1796 13.1355 10.2524 13.136 10.3274C13.1364 10.4469 13.1364 10.4469 13.1368 10.5688C13.1373 10.6537 13.1379 10.7386 13.1384 10.8235C13.14 11.1024 13.141 11.3812 13.1419 11.66C13.1422 11.7562 13.1425 11.8525 13.1429 11.9487C13.1442 12.3495 13.1454 12.7503 13.1461 13.1511C13.1471 13.7238 13.1492 14.2965 13.1528 14.8692C13.1552 15.2727 13.1564 15.6762 13.1567 16.0797C13.157 16.3203 13.1577 16.5608 13.1597 16.8013C13.1616 17.0281 13.162 17.2549 13.1613 17.4817C13.1613 17.6033 13.1628 17.7249 13.1644 17.8465C13.1583 18.7067 12.8611 19.3611 12.2759 19.9796C11.8258 20.4045 11.2215 20.6941 10.6017 20.6966C10.5336 20.697 10.4656 20.6975 10.3954 20.6979C10.321 20.6981 10.2466 20.6982 10.17 20.6984C10.0494 20.6991 9.92875 20.6997 9.80812 20.7003C9.67858 20.701 9.54905 20.7015 9.41951 20.7019C9.14921 20.7029 8.87892 20.7044 8.60863 20.706C7.84007 20.7104 7.0715 20.7142 6.30293 20.7174C5.87834 20.7191 5.45376 20.7213 5.02917 20.724C4.76074 20.7257 4.49232 20.7268 4.22388 20.7275C4.01719 20.7282 3.81052 20.7297 3.60384 20.7311C3.52983 20.7312 3.45582 20.7312 3.37957 20.7312C2.74885 20.7331 2.74885 20.7331 2.199 21.0118C1.87958 21.4225 1.91953 21.8936 1.92133 22.3917C1.92099 22.5061 1.92099 22.5061 1.92064 22.6228C1.92021 22.788 1.92 22.9531 1.92014 23.1183C1.92031 23.3796 1.91941 23.641 1.91833 23.9024C1.91539 24.6453 1.91389 25.3883 1.91348 26.1312C1.91325 26.5421 1.91212 26.953 1.91004 27.3639C1.90878 27.6236 1.90863 27.8832 1.90931 28.1428C1.90951 28.3424 1.90809 28.542 1.90692 28.7415C1.90743 28.8131 1.90794 28.8847 1.90847 28.9585C1.90444 29.3453 1.88745 29.5826 1.62479 29.8751C1.29837 30.1286 0.958949 30.1109 0.562286 30.0626C0.273709 29.9259 0.142215 29.7814 -0.000213861 29.5001C-0.0241582 29.3311 -0.0241582 29.3311 -0.0248644 29.1453C-0.0255738 29.0745 -0.0262832 29.0037 -0.027014 28.9308C-0.0268309 28.8537 -0.0266477 28.7766 -0.026459 28.6972C-0.0269883 28.6156 -0.0275177 28.5339 -0.0280631 28.4498C-0.0294506 28.2261 -0.0296349 28.0024 -0.0295165 27.7787C-0.029509 27.5915 -0.0300448 27.4042 -0.030565 27.2169C-0.0317671 26.7745 -0.0319474 26.332 -0.0315249 25.8895C-0.031111 25.4348 -0.0325342 24.9801 -0.034857 24.5253C-0.0367838 24.1337 -0.0374846 23.7422 -0.0372422 23.3506C-0.0371137 23.1172 -0.0374442 22.8839 -0.0389855 22.6506C-0.0403905 22.4306 -0.0402492 22.2107 -0.0389903 21.9907C-0.0386799 21.8728 -0.0398938 21.755 -0.041178 21.6371C-0.0329113 20.7853 0.269651 20.1325 0.848663 19.5206C1.30181 19.0928 1.90753 18.804 2.53122 18.8055C2.63442 18.8055 2.63442 18.8055 2.73971 18.8055C2.81361 18.8058 2.88751 18.8061 2.96365 18.8065C3.07757 18.8066 3.07757 18.8066 3.19379 18.8067C3.43642 18.8071 3.67904 18.8079 3.92166 18.8087C4.08613 18.809 4.2506 18.8093 4.41507 18.8095C4.81831 18.8102 5.22155 18.8112 5.62479 18.8126C5.6245 18.7666 5.62421 18.7207 5.62391 18.6733C5.61699 17.5522 5.61183 16.431 5.60859 15.3099C5.60699 14.7677 5.6048 14.2255 5.60121 13.6833C5.59808 13.2104 5.59608 12.7375 5.59538 12.2646C5.59498 12.0145 5.59403 11.7644 5.59175 11.5143C5.5896 11.2783 5.58897 11.0423 5.58944 10.8062C5.58931 10.6796 5.58764 10.5529 5.58591 10.4263C5.58899 9.86981 5.71083 9.44344 5.93729 8.93757C5.96822 8.84475 5.96822 8.84475 5.99979 8.75007C5.91664 8.81774 5.91664 8.81774 5.83182 8.88678C5.00797 9.47814 3.90769 9.55739 2.92987 9.4188C1.91906 9.20714 1.06196 8.53729 0.499786 7.68757C0.378831 7.48488 0.278189 7.28033 0.187286 7.06257C0.157195 6.99126 0.157195 6.99126 0.126495 6.91852C-0.16355 6.07402 -0.100776 5.00129 0.249786 4.18757C0.27025 4.13431 0.290714 4.08106 0.311798 4.02619C0.696486 3.13467 1.49858 2.53713 2.3533 2.14362C3.25779 1.79282 4.35838 1.80354 5.24979 2.18757Z" fill="#97AFC5"/>
<path d="M25.8124 1.93758C26.1017 2.07461 26.2306 2.21939 26.3749 2.50008C26.5004 3.12181 26.24 3.62428 25.9621 4.15999C25.9193 4.24499 25.8766 4.33005 25.834 4.41516C25.745 4.59228 25.6551 4.76886 25.5643 4.94507C25.4484 5.17018 25.3343 5.39617 25.2209 5.62256C25.133 5.79778 25.0445 5.97266 24.9557 6.14743C24.9134 6.23066 24.8713 6.31396 24.8293 6.39733C24.7704 6.51382 24.7107 6.62985 24.6508 6.74579C24.617 6.81167 24.5833 6.87756 24.5486 6.94544C24.3852 7.20942 24.1947 7.39105 23.9374 7.56258C23.5903 7.60566 23.283 7.60784 22.9648 7.45711C22.7144 7.21955 22.5967 7.00955 22.5874 6.66242C22.6013 6.16705 22.8148 5.76997 23.0378 5.34017C23.0806 5.25517 23.1233 5.17011 23.1658 5.08499C23.2548 4.90788 23.3448 4.7313 23.4355 4.55509C23.5515 4.32998 23.6655 4.10398 23.7789 3.8776C23.8668 3.70237 23.9554 3.5275 24.0442 3.35273C24.0864 3.2695 24.1286 3.1862 24.1706 3.10283C24.2294 2.98634 24.2891 2.87031 24.3491 2.75437C24.3997 2.65554 24.3997 2.65554 24.4513 2.55472C24.8023 1.98727 25.1749 1.86928 25.8124 1.93758Z" fill="#97AFC5"/>
<path d="M17.9335 1.91016C17.9959 1.90895 18.0584 1.90774 18.1227 1.90649C18.3748 1.9477 18.4935 2.01965 18.6874 2.1875C18.8129 2.36789 18.9074 2.56062 19.0038 2.75781C19.034 2.81798 19.0641 2.87815 19.0952 2.94014C19.147 3.04372 19.1989 3.14731 19.2503 3.25113C19.3924 3.53783 19.5394 3.82174 19.6879 4.10521C19.8095 4.33783 19.9296 4.57115 20.0496 4.80458C20.1098 4.9211 20.1705 5.03737 20.2317 5.15337C20.8856 6.39595 20.8856 6.39595 20.7499 7C20.6132 7.28849 20.4689 7.42054 20.1874 7.5625C20.006 7.5896 20.006 7.5896 19.8163 7.58984C19.7226 7.59166 19.7226 7.59166 19.6271 7.59351C19.375 7.5523 19.2563 7.48035 19.0624 7.3125C18.9369 7.13211 18.8424 6.93938 18.746 6.74219C18.7158 6.68202 18.6857 6.62185 18.6546 6.55986C18.6027 6.45628 18.5509 6.35269 18.4995 6.24887C18.3574 5.96217 18.2103 5.67826 18.0619 5.39479C17.9403 5.16217 17.8202 4.92885 17.7002 4.69542C17.6399 4.5789 17.5793 4.46263 17.5181 4.34663C16.8642 3.10405 16.8642 3.10405 16.9999 2.5C17.1972 2.08338 17.4761 1.91074 17.9335 1.91016Z" fill="#97AFC5"/>
</g>
<defs>
<clipPath id="clip0_47_1401">
<rect width="32" height="32" fill="white"/>
</clipPath>
</defs>
</svg>
