<svg width="800" height="800" viewBox="0 0 800 800" fill="none" xmlns="http://www.w3.org/2000/svg">
<g clip-path="url(#clip0_147_17)">
<path d="M347.432 7.69549C426.023 33.8926 468.497 118.84 442.3 197.432L383.112 374.996L98.5074 280.128L157.695 102.564C183.892 23.9723 268.84 -18.5017 347.432 7.69549Z" fill="#D3A4B4"/>
<path d="M351.489 469.865L292.301 647.43C266.104 726.025 181.155 768.5 102.564 742.3C23.9723 716.105 -18.5017 631.155 7.69549 552.565L66.8845 374.996L351.489 469.865Z" fill="#BDBECD"/>
<path d="M625 750C721.65 750 800 671.65 800 575C800 478.35 721.65 400 625 400C528.35 400 450 478.35 450 575C450 671.65 528.35 750 625 750Z" fill="#A2BCD3"/>
</g>
<defs>
<clipPath id="clip0_147_17">
<rect width="800" height="800" fill="white"/>
</clipPath>
</defs>
</svg>
