<svg width="800" height="800" viewBox="0 0 800 800" fill="none" xmlns="http://www.w3.org/2000/svg">
<g clip-path="url(#clip0_147_3)">
<path d="M657.646 755.358C668.444 755.358 677.266 746.536 677.266 735.737V250.075H550.055C537.809 250.075 527.801 240.199 527.801 227.82V44.5112H142.222C131.424 44.5112 122.601 53.3336 122.601 64.132V735.475C122.601 746.273 131.424 755.095 142.222 755.095H657.515V755.358H657.646Z" fill="white"/>
<path d="M523.063 97.9754C518.848 92.1821 512.264 88.8882 505.153 88.8882H189.102C176.856 88.8882 166.848 98.7637 166.848 111.143V688.723C166.848 700.969 176.723 710.977 189.102 710.977H610.765C623.012 710.977 633.02 701.102 633.02 688.723V256.789" fill="#BCBECD"/>
<path d="M571.129 682.931H227.293C215.046 682.931 205.038 673.056 205.038 660.677C205.038 648.43 214.914 638.422 227.293 638.422H571.129C583.375 638.422 593.383 648.3 593.383 660.677C593.251 673.054 583.375 682.931 571.129 682.931Z" fill="#2E4672"/>
<path d="M571.129 583.771H227.293C215.046 583.771 205.038 573.895 205.038 561.516C205.038 549.269 214.914 539.261 227.293 539.261H571.129C583.375 539.261 593.383 549.139 593.383 561.516C593.251 573.893 583.375 583.771 571.129 583.771Z" fill="#2E4672"/>
<path d="M331.457 484.742H227.293C215.046 484.742 205.038 474.866 205.038 462.487C205.038 450.24 214.914 440.232 227.293 440.232H331.457C343.703 440.232 353.711 450.108 353.711 462.487C353.711 474.734 343.703 484.742 331.457 484.742Z" fill="#2E4672"/>
<path d="M331.457 385.581H227.293C215.046 385.581 205.038 375.705 205.038 363.326C205.038 351.08 214.914 341.072 227.293 341.072H331.457C343.703 341.072 353.711 350.947 353.711 363.326C353.711 375.705 343.703 385.581 331.457 385.581Z" fill="#2E4672"/>
<path d="M345.942 176.198H308.807V139.063C308.807 126.816 298.931 116.808 286.552 116.808C274.173 116.808 264.298 126.683 264.298 139.063V176.198H227.162C214.916 176.198 204.908 186.073 204.908 198.452C204.908 210.699 214.783 220.707 227.162 220.707H264.298V257.842C264.298 270.089 274.173 280.097 286.552 280.097C298.931 280.097 308.807 270.221 308.807 257.842V220.707H345.942C358.189 220.707 368.197 210.831 368.197 198.452C368.199 186.073 358.189 176.198 345.942 176.198Z" fill="#2E4672"/>
<path d="M709.531 203.588L580.741 26.4693C568.757 9.87556 549.267 0 528.856 0H142.222C106.798 0 77.9595 28.8404 77.9595 64.2625V735.738C77.9595 771.162 106.8 800 142.222 800H657.778C693.202 800 722.041 771.16 722.041 735.738V241.383C721.778 227.688 717.565 214.781 709.531 203.588ZM572.444 90.6014L656.067 205.564H572.444V90.6014ZM677.399 735.475C677.399 746.273 668.576 755.096 657.778 755.096H142.222C131.424 755.096 122.601 746.273 122.601 735.475V64.3949C122.601 53.5965 131.424 44.7741 142.222 44.7741H528.066V227.951C528.066 240.197 537.941 250.205 550.32 250.205H677.529L677.399 735.475Z" fill="#D5A0B0"/>
<path d="M572.445 205.564H656.067L572.445 90.6013V205.564Z" fill="#BCBECD"/>
<path d="M552.561 367.934C552.561 355.555 542.553 345.415 530.041 345.415C519.506 345.415 510.551 352.526 508.182 362.666C502.651 384.13 471.968 386.634 464.856 362.666C462.485 352.395 453.4 345.415 442.997 345.415C430.618 345.415 420.477 355.423 420.477 367.934C420.477 397.037 456.692 441.151 486.585 469.729C516.477 441.153 552.561 396.905 552.561 367.934Z" fill="#D5A0B0"/>
<path d="M530.174 301.038C513.582 301.038 498.437 306.963 486.585 317.104C474.734 307.096 459.458 301.038 442.997 301.038C405.992 301.038 375.968 331.062 375.968 368.066C375.968 433.384 462.222 508.445 472.1 516.874C481.713 523.985 491.326 523.985 500.94 516.874C510.816 508.577 597.072 433.384 597.072 368.066C597.07 331.194 566.914 301.038 530.174 301.038ZM420.347 367.934C420.347 355.555 430.355 345.414 442.866 345.414C453.402 345.414 462.357 352.526 464.726 362.666C471.705 386.634 502.389 384.13 508.052 362.666C510.423 352.395 519.508 345.414 529.911 345.414C542.29 345.414 552.431 355.422 552.431 367.934C552.431 396.905 516.216 441.151 486.323 469.729C456.559 441.284 420.347 397.037 420.347 367.934Z" fill="#2E4672"/>
</g>
<defs>
<clipPath id="clip0_147_3">
<rect width="800" height="800" fill="white"/>
</clipPath>
</defs>
</svg>
