<svg width="36" height="36" viewBox="0 0 36 36" fill="none" xmlns="http://www.w3.org/2000/svg">
<g clip-path="url(#clip0_47_1347)">
<path d="M31.4999 11.1094C31.6942 11.3184 31.8669 11.5452 32.0432 11.7695C32.1283 11.8773 32.2146 11.984 32.3011 12.0907C34.3088 14.6175 35.4797 17.6327 35.9296 20.8125C35.9401 20.8868 35.9401 20.8868 35.9509 20.9627C36.0143 21.4631 36.0258 21.9654 36.035 22.4692C36.0407 22.6038 36.0407 22.6038 36.0466 22.741C36.0529 23.1765 36.0543 23.4827 35.7648 23.8247C35.4546 24.1298 35.1615 24.1284 34.7449 24.1307C34.6606 24.1316 34.6606 24.1316 34.5747 24.1325C34.3888 24.1342 34.2028 24.1354 34.0168 24.1364C33.9215 24.137 33.9215 24.137 33.8242 24.1375C33.4876 24.1394 33.1511 24.1408 32.8145 24.1418C32.5362 24.1427 32.258 24.1447 31.9797 24.1476C31.6435 24.151 31.3073 24.1528 30.971 24.1533C30.8431 24.1538 30.7151 24.1548 30.5872 24.1565C30.4078 24.1587 30.2285 24.1587 30.0491 24.1582C29.9966 24.1594 29.9441 24.1605 29.8901 24.1617C29.5009 24.1571 29.2493 24.0366 28.9686 23.7656C28.7089 23.344 28.7158 22.9018 28.6918 22.4165C28.6417 21.6031 28.5149 20.8326 28.3358 20.0391C28.2602 20.071 28.1847 20.103 28.1068 20.1359C27.8267 20.2542 27.5463 20.372 27.2659 20.4897C27.1445 20.5407 27.0232 20.5918 26.9019 20.6431C26.7277 20.7168 26.5533 20.79 26.3789 20.863C26.3246 20.8861 26.2703 20.9092 26.2144 20.9329C25.8286 21.0938 25.8286 21.0938 25.5936 21.0938C25.6088 21.142 25.6241 21.1902 25.6398 21.2399C26.1489 23.1537 25.7911 25.2291 24.8378 26.9385C23.7556 28.8007 22.0625 30.058 20.0084 30.6562C18.0222 31.172 15.8723 30.8976 14.0887 29.8828C13.7048 29.6507 13.3481 29.4014 13.0077 29.1094C12.9499 29.0602 12.8922 29.0109 12.8327 28.9602C11.3516 27.6634 10.4796 25.9902 10.1952 24.0469C10.0522 21.6642 10.5815 19.5668 12.1917 17.7486C13.4901 16.3258 15.3178 15.3695 17.2542 15.2421C19.6146 15.1659 21.6632 15.7472 23.4252 17.3565C23.868 17.7748 24.2237 18.2208 24.5571 18.73C24.6719 18.9156 24.6719 18.9156 24.8202 19.0547C25.6555 18.7066 26.4908 18.3586 27.3514 18C27.3514 17.4737 26.6182 16.7012 26.2967 16.3125C26.388 16.1116 26.4845 15.9665 26.6402 15.8106C26.6816 15.7688 26.723 15.727 26.7657 15.6839C26.811 15.6389 26.8562 15.5939 26.9029 15.5475C26.9507 15.4995 26.9985 15.4514 27.0478 15.4019C27.2058 15.2433 27.3643 15.0852 27.5228 14.9271C27.6327 14.8172 27.7425 14.7072 27.8523 14.5973C28.0823 14.367 28.3126 14.137 28.5431 13.9072C28.8392 13.6119 29.1346 13.3161 29.4298 13.02C29.6563 12.793 29.8832 12.5662 30.1102 12.3396C30.2193 12.2306 30.3283 12.1215 30.4372 12.0123C30.589 11.8601 30.7413 11.7084 30.8937 11.5567C30.939 11.5111 30.9843 11.4656 31.031 11.4186C31.3432 11.1094 31.3432 11.1094 31.4999 11.1094ZM28.7841 17.5078C28.6721 17.5554 28.5602 17.6028 28.4481 17.6501C28.1757 17.7654 27.9041 17.8823 27.6327 18C27.7195 18.2645 27.8106 18.5261 27.9101 18.7861C27.935 18.8513 27.9599 18.9166 27.9856 18.9838C28.0113 19.0507 28.0369 19.1176 28.0633 19.1865C28.1026 19.2893 28.1026 19.2893 28.1427 19.3942C28.207 19.5623 28.2714 19.7304 28.3358 19.8984C28.8756 19.7249 29.4037 19.5265 29.931 19.3184C30.0152 19.2865 30.0993 19.2547 30.186 19.222C30.7243 19.0081 31.0916 18.8166 31.3592 18.2812C31.3839 17.9056 31.3939 17.6701 31.1483 17.3672C30.9245 17.1215 30.7732 16.9927 30.4372 16.9753C29.8503 16.9884 29.3134 17.2778 28.7841 17.5078ZM15.5477 20.3599C15.3041 20.6393 15.3041 20.8349 15.3082 21.1962C15.3451 21.5297 15.5154 21.7141 15.7587 21.9287C16.0623 22.0475 16.3424 22.0542 16.6639 22.0078C16.9737 21.8557 17.1701 21.6987 17.2967 21.375C17.3449 21.0204 17.3371 20.7541 17.1781 20.4302C16.9574 20.1856 16.7756 20.0731 16.4618 19.9775C16.0781 19.9622 15.8291 20.109 15.5477 20.3599ZM19.0546 20.1797C18.735 20.5156 18.678 20.7445 18.6832 21.1962C18.7201 21.5297 18.8904 21.7141 19.1337 21.9287C19.4373 22.0475 19.7174 22.0542 20.0389 22.0078C20.3487 21.8557 20.5451 21.6987 20.6717 21.375C20.7199 21.0204 20.7121 20.7541 20.5531 20.4302C20.3339 20.1872 20.1523 20.0743 19.8412 19.9775C19.5415 19.9658 19.3157 20.0333 19.0546 20.1797ZM14.8754 24.0952C14.7331 24.3967 14.7082 24.6333 14.7655 24.9609C15.141 25.727 15.9634 26.0624 16.7095 26.3749C17.8237 26.7474 19.0332 26.5313 20.0678 26.0431C20.5504 25.7823 20.9835 25.4623 21.2342 24.9609C21.2736 24.6383 21.2641 24.3914 21.1244 24.0952C20.8857 23.8321 20.6741 23.652 20.313 23.6063C19.8858 23.6214 19.6268 23.8175 19.2921 24.0664C18.7315 24.4723 18.1046 24.4577 17.4374 24.3984C17.0467 24.3077 16.7577 24.1441 16.4486 23.8931C15.8802 23.4427 15.3347 23.5888 14.8754 24.0952Z" fill="#97AFC5"/>
<path d="M21.0938 5.34372C21.1585 5.35466 21.2233 5.3656 21.29 5.37688C23.15 5.70338 24.9113 6.36601 26.5781 7.24215C26.6284 7.26843 26.6788 7.2947 26.7306 7.32177C27.6514 7.80861 28.5001 8.41572 29.3115 9.06588C29.3837 9.12322 29.3837 9.12322 29.4573 9.1817C29.5018 9.21808 29.5464 9.25445 29.5922 9.29193C29.6315 9.32383 29.6707 9.35573 29.7111 9.38859C29.8266 9.50654 29.8868 9.62314 29.9531 9.7734C29.7333 9.99494 29.5133 10.2162 29.2931 10.4373C29.2184 10.5123 29.1438 10.5874 29.0693 10.6625C28.9613 10.7714 28.853 10.8801 28.7446 10.9888C28.6798 11.0539 28.615 11.1191 28.5482 11.1863C28.3947 11.3372 28.2353 11.479 28.072 11.6194C27.7281 11.9177 27.4087 12.2387 27.0879 12.5615C27.0247 12.6248 26.9615 12.688 26.8964 12.7532C26.7303 12.9197 26.5643 13.0863 26.3985 13.2529C26.2284 13.4237 26.0581 13.5943 25.8879 13.7649C25.5553 14.0983 25.2229 14.4318 24.8906 14.7656C24.6239 14.6638 24.4263 14.5504 24.2007 14.3745C23.0571 13.5287 21.7643 13.0006 20.3906 12.6562C20.3444 12.6445 20.2983 12.6328 20.2507 12.6207C18.809 12.2743 17.0447 12.2881 15.6094 12.6562C15.554 12.6702 15.4987 12.6842 15.4417 12.6985C13.8959 13.1007 12.5038 13.773 11.25 14.7656C10.9876 14.6561 10.8221 14.4949 10.623 14.2941C10.5896 14.2606 10.5562 14.227 10.5217 14.1925C10.4115 14.0818 10.3018 13.9707 10.192 13.8595C10.115 13.782 10.0379 13.7046 9.9608 13.6272C9.75774 13.4232 9.55507 13.2188 9.35252 13.0143C9.02944 12.6882 8.7059 12.3625 8.38212 12.0371C8.26979 11.9241 8.15771 11.8108 8.04565 11.6975C7.70996 11.3591 7.37234 11.0273 7.00844 10.719C6.80663 10.5446 6.62056 10.3546 6.43359 10.1645C6.39589 10.1265 6.35818 10.0885 6.31934 10.0493C6.22835 9.9575 6.13759 9.86548 6.04688 9.7734C6.64244 8.28108 9.53826 7.11992 10.8877 6.52039C12.3053 5.91967 13.8085 5.50983 15.3281 5.2734C15.4027 5.26105 15.4027 5.26105 15.4787 5.24844C17.2894 4.95872 19.2947 5.03049 21.0938 5.34372Z" fill="#D6A3B3"/>
<path d="M4.49988 11.1094C4.70123 11.2008 4.84598 11.2974 5.00181 11.4538C5.04361 11.4954 5.08541 11.537 5.12848 11.5798C5.17349 11.6254 5.2185 11.6709 5.26488 11.7178C5.31292 11.7658 5.36097 11.8138 5.41047 11.8633C5.56907 12.022 5.72716 12.1812 5.88526 12.3404C5.99518 12.4506 6.10512 12.5607 6.2151 12.6708C6.50439 12.9607 6.79326 13.2509 7.08204 13.5412C7.37683 13.8375 7.67202 14.1333 7.96717 14.4292C8.54617 15.0097 9.12473 15.5906 9.70301 16.1719C9.61336 16.3544 9.52126 16.5201 9.40171 16.6847C8.1143 18.4863 7.39657 20.4196 7.30241 22.6383C7.25613 23.5053 7.25613 23.5053 6.96082 23.8359C6.59853 24.08 6.32857 24.1583 5.88907 24.1525C5.83333 24.1528 5.77759 24.1532 5.72015 24.1536C5.53731 24.1545 5.35454 24.1533 5.1717 24.1521C5.04398 24.1521 4.91626 24.1522 4.78853 24.1524C4.5215 24.1525 4.2545 24.1516 3.98747 24.15C3.64551 24.148 3.30358 24.1482 2.96161 24.1491C2.69813 24.1496 2.43466 24.149 2.17119 24.1482C2.04509 24.1478 1.919 24.1478 1.79291 24.1481C1.61671 24.1483 1.44057 24.1471 1.26438 24.1456C1.2125 24.1459 1.16062 24.1462 1.10718 24.1466C0.681315 24.1404 0.472438 24.0092 0.156164 23.7401C-0.10879 23.4014 -0.0485923 22.9656 -0.0396668 22.5571C-0.0385509 22.4671 -0.0374349 22.377 -0.0362851 22.2843C0.021114 19.8187 0.682158 17.3973 1.7577 15.1875C1.78288 15.1357 1.80807 15.0839 1.83402 15.0305C2.4047 13.8724 3.13323 12.8197 3.93738 11.8125C3.99303 11.7424 4.04869 11.6724 4.10602 11.6002C4.23679 11.4362 4.36803 11.2725 4.49988 11.1094Z" fill="#97AFC5"/>
</g>
<defs>
<clipPath id="clip0_47_1347">
<rect width="36" height="36" fill="white"/>
</clipPath>
</defs>
</svg>
