<svg width="45" height="45" viewBox="0 0 45 45" fill="none" xmlns="http://www.w3.org/2000/svg">
<g clip-path="url(#clip0_47_1460)">
<path d="M8.6706 20.3872C9.72073 21.2577 10.363 22.4704 10.5469 23.8183C10.6428 25.2514 10.3957 26.5991 9.47673 27.749C9.12874 28.1461 8.76806 28.5062 8.3496 28.8281C8.40942 28.8879 8.46924 28.9477 8.53087 29.0094C8.57109 29.05 8.61131 29.0907 8.65275 29.1326C8.74457 29.2235 8.83825 29.3125 8.93359 29.3997C9.84357 30.2522 10.4046 31.3772 10.5469 32.6074C10.6599 32.6056 10.7729 32.6037 10.8893 32.6018C11.3114 32.5954 11.7335 32.5914 12.1557 32.5881C12.3378 32.5863 12.52 32.5839 12.7021 32.5809C12.9651 32.5766 13.2279 32.5746 13.4909 32.5731C13.6116 32.5703 13.6116 32.5703 13.7348 32.5676C14.58 32.5673 15.2975 32.9029 15.9082 33.4863C16.4919 34.1918 16.7301 34.7797 16.7212 35.6891C16.7219 35.7585 16.7225 35.8278 16.7232 35.8993C16.723 35.9669 16.7228 36.0345 16.7226 36.1041C16.7224 36.1648 16.7222 36.2254 16.722 36.2878C16.6992 36.4746 16.6992 36.4746 16.5234 36.914C20.468 36.914 24.4125 36.914 28.4766 36.914C28.4185 36.769 28.3605 36.624 28.3008 36.4746C28.1893 35.6775 28.1968 34.7848 28.6523 34.1015C28.6886 34.0417 28.7248 33.9819 28.7622 33.9203C29.1933 33.2736 29.8348 32.8065 30.5859 32.6074C30.8853 32.5842 31.1832 32.5869 31.4834 32.5902C31.5685 32.5905 31.6536 32.5907 31.7412 32.591C32.0117 32.592 32.2821 32.5942 32.5525 32.5964C32.7364 32.5973 32.9203 32.5981 33.1042 32.5988C33.5538 32.6007 34.0035 32.6038 34.4531 32.6074C34.4669 32.5148 34.4669 32.5148 34.4809 32.4204C34.5679 31.8864 34.6828 31.4238 34.931 30.943C34.961 30.8837 34.991 30.8245 35.0219 30.7635C35.3529 30.1439 35.798 29.6681 36.2988 29.1797C36.3663 29.1121 36.4339 29.0446 36.5034 28.975C36.5519 28.9265 36.6004 28.8781 36.6504 28.8281C36.5941 28.7802 36.5378 28.7322 36.4797 28.6829C35.3018 27.6559 34.5457 26.4781 34.4281 24.8854C34.37 23.1717 34.945 21.8185 36.1052 20.5726C37.1437 19.574 38.5396 19.2018 39.9415 19.2111C41.3422 19.2521 42.5422 19.8103 43.5597 20.7737C44.6559 21.9865 45.0893 23.411 45.0157 25.0369C44.8971 26.4506 44.1942 27.6041 43.1622 28.5411C43.0449 28.6398 42.9243 28.7346 42.8027 28.8281C42.8625 28.8879 42.9224 28.9477 42.984 29.0094C43.0242 29.05 43.0644 29.0907 43.1059 29.1326C43.1977 29.2235 43.2914 29.3125 43.3867 29.3997C44.2302 30.1899 44.9482 31.3895 45.012 32.5654C45.0125 32.6441 45.013 32.7229 45.0135 32.804C45.0143 32.895 45.015 32.9859 45.0158 33.0796C45.0164 33.2278 45.0164 33.2278 45.0169 33.379C45.0177 33.4838 45.0184 33.5886 45.0191 33.6966C45.0213 34.0431 45.0228 34.3895 45.024 34.736C45.0245 34.8555 45.025 34.975 45.0254 35.0945C45.0273 35.5916 45.029 36.0886 45.03 36.5856C45.0314 37.297 45.0343 38.0084 45.0393 38.7198C45.0427 39.2207 45.0444 39.7215 45.0449 40.2224C45.0452 40.5213 45.0463 40.8202 45.0491 41.1192C45.0519 41.4525 45.0519 41.7857 45.0513 42.119C45.0527 42.2178 45.0542 42.3166 45.0556 42.4184C45.0549 42.5094 45.0542 42.6003 45.0534 42.694C45.0537 42.7727 45.054 42.8515 45.0543 42.9326C44.9736 43.2618 44.8241 43.3837 44.5605 43.5937C44.2964 43.6369 44.0824 43.6529 43.8186 43.649C43.7063 43.65 43.7063 43.65 43.5918 43.651C43.3397 43.6526 43.0877 43.651 42.8356 43.6495C42.6536 43.65 42.4715 43.6507 42.2895 43.6516C41.7882 43.6534 41.2871 43.6525 40.7858 43.6512C40.2457 43.6502 39.7055 43.6517 39.1653 43.6529C38.168 43.6548 37.1707 43.6546 36.1733 43.6534C35.252 43.6523 34.3307 43.652 33.4094 43.6525C33.3178 43.6526 33.3178 43.6526 33.2243 43.6526C32.9764 43.6528 32.7285 43.6529 32.4806 43.6531C30.1543 43.6544 27.828 43.6532 25.5016 43.6508C23.4341 43.6487 21.3666 43.6489 19.299 43.651C16.977 43.6534 14.655 43.6543 12.3329 43.6529C12.0855 43.6528 11.838 43.6527 11.5906 43.6525C11.4992 43.6525 11.4992 43.6525 11.4059 43.6524C10.4851 43.6519 9.56432 43.6525 8.64352 43.6536C7.59669 43.6549 6.54988 43.6545 5.50306 43.6522C4.96863 43.651 4.43423 43.6506 3.8998 43.652C3.41101 43.6533 2.92226 43.6526 2.43347 43.6503C2.25622 43.6498 2.07896 43.65 1.90171 43.6511C1.66153 43.6524 1.42151 43.6511 1.18134 43.649C1.11184 43.6501 1.04233 43.6511 0.970721 43.6521C0.616424 43.6461 0.457408 43.6081 0.176787 43.3843C-0.0206657 43.1274 -0.0550122 43.0179 -0.0552236 42.6987C-0.0563357 42.6088 -0.0574479 42.5189 -0.0585938 42.4262C-0.0575661 42.3285 -0.0565385 42.2308 -0.0554797 42.1301C-0.0561086 42.0265 -0.0567375 41.9228 -0.0573854 41.816C-0.058616 41.5321 -0.0578759 41.2483 -0.0561469 40.9644C-0.0547025 40.6661 -0.0554821 40.3679 -0.055929 40.0697C-0.0563263 39.5682 -0.0549328 39.0666 -0.0524756 38.5651C-0.0496693 37.9879 -0.0496557 37.4108 -0.0511761 36.8336C-0.0525791 36.2761 -0.0519727 35.7187 -0.0504787 35.1612C-0.0498797 34.9252 -0.0500629 34.6892 -0.0506142 34.4532C-0.0510974 34.1217 -0.0492893 33.7903 -0.0468966 33.4588C-0.0474702 33.3625 -0.0480438 33.2663 -0.0486347 33.1671C-0.0259462 31.3027 0.94135 30.0752 2.19725 28.8281C2.14095 28.7802 2.08464 28.7322 2.02662 28.6829C0.848632 27.6559 0.0926088 26.4781 -0.0250742 24.8854C-0.0831698 23.1717 0.491834 21.8185 1.65206 20.5726C3.59804 18.7014 6.60704 18.8615 8.6706 20.3872ZM2.56804 22.342C2.00003 23.1606 1.7577 23.9629 1.84569 24.9609C1.99827 25.7348 2.26815 26.3235 2.81249 26.8945C2.85849 26.944 2.90449 26.9935 2.95188 27.0445C3.58119 27.6508 4.54156 27.9884 5.4111 27.9736C6.47912 27.8519 7.36451 27.374 8.04198 26.5491C8.60195 25.7762 8.78443 24.9391 8.70116 23.9941C8.54128 23.1087 8.10103 22.3246 7.40203 21.756C5.86185 20.6903 3.78979 20.8309 2.56804 22.342ZM37.0212 22.342C36.4532 23.1606 36.2108 23.9629 36.2988 24.9609C36.4514 25.7348 36.7213 26.3235 37.2656 26.8945C37.3116 26.944 37.3576 26.9935 37.405 27.0445C38.0343 27.6508 38.9947 27.9884 39.8642 27.9736C40.9322 27.8519 41.8176 27.374 42.4951 26.5491C43.0551 25.7762 43.2375 24.9391 43.1543 23.9941C42.9944 23.1087 42.5542 22.3246 41.8552 21.756C40.315 20.6903 38.2429 20.8309 37.0212 22.342ZM2.47741 31.2231C1.82547 32.111 1.74346 33.1079 1.74782 34.1729C1.74781 34.2562 1.7478 34.3395 1.74778 34.4252C1.74785 34.6982 1.74853 34.9712 1.74922 35.2441C1.74938 35.4342 1.74951 35.6244 1.74959 35.8145C1.74993 36.3133 1.75079 36.8121 1.75177 37.3108C1.75283 37.9102 1.75323 38.5095 1.75374 39.1089C1.75459 40.0179 1.75627 40.9269 1.7578 41.8359C4.07811 41.8359 6.39843 41.8359 8.78905 41.8359C8.78905 40.8208 8.78905 39.8056 8.78905 38.7597C8.15944 38.7414 8.15944 38.7414 7.52976 38.7256C6.57875 38.6911 5.87543 38.466 5.18554 37.7929C4.65476 37.1408 4.45548 36.5399 4.44979 35.7079C4.4486 35.5994 4.4486 35.5994 4.44739 35.4887C4.44612 35.3365 4.44534 35.1842 4.44501 35.032C4.44396 34.7995 4.43963 34.5673 4.4352 34.3348C4.43437 34.1865 4.43374 34.0381 4.43332 33.8897C4.4316 33.8206 4.42988 33.7514 4.42811 33.6802C4.43118 33.3064 4.45076 33.1741 4.69388 32.8715C4.91451 32.701 5.00095 32.6349 5.27343 32.6404C5.32962 32.6392 5.38582 32.6381 5.44371 32.6369C5.73341 32.7302 5.87096 32.9044 6.06444 33.1347C6.11961 33.4088 6.11961 33.4088 6.1204 33.7136C6.12304 33.8798 6.12304 33.8798 6.12572 34.0493C6.12544 34.1645 6.12516 34.2796 6.12487 34.3982C6.12633 34.6259 6.12848 34.8536 6.13139 35.0814C6.13135 35.1821 6.13132 35.2829 6.13128 35.3867C6.16397 35.8477 6.23706 36.1937 6.54235 36.546C7.04752 36.9772 7.42591 37.0126 8.07558 37.0147C8.13467 37.015 8.19375 37.0153 8.25462 37.0156C8.44902 37.0164 8.64341 37.0166 8.8378 37.0167C8.97364 37.017 9.10947 37.0173 9.24531 37.0176C9.52974 37.0181 9.81418 37.0183 10.0986 37.0182C10.462 37.0182 10.8254 37.0194 11.1888 37.0209C11.4693 37.0219 11.7498 37.0221 12.0303 37.022C12.1642 37.0221 12.2981 37.0225 12.432 37.0232C12.6198 37.0241 12.8076 37.0238 12.9954 37.0233C13.1553 37.0235 13.1553 37.0235 13.3184 37.0237C13.7828 36.9905 14.1305 36.9196 14.4855 36.6119C14.8316 36.2064 14.8927 35.9833 14.8813 35.4645C14.8403 35.1393 14.7194 34.9578 14.5019 34.7168C14.0866 34.4079 13.6811 34.3559 13.1739 34.3486C13.0433 34.3464 13.0433 34.3464 12.91 34.3441C12.7704 34.3423 12.7704 34.3423 12.6281 34.3405C12.5318 34.3389 12.4355 34.3373 12.3363 34.3356C11.9248 34.3287 11.5133 34.3227 11.1018 34.3167C10.8012 34.3121 10.5007 34.3071 10.2001 34.302C10.1067 34.3008 10.0133 34.2996 9.91712 34.2984C9.83058 34.297 9.74403 34.2955 9.65487 34.294C9.54063 34.2923 9.54063 34.2923 9.42409 34.2906C9.2285 34.2773 9.2285 34.2773 8.96483 34.1894C8.93895 34.065 8.91339 33.9404 8.88793 33.8159C8.8715 33.7357 8.85507 33.6555 8.83815 33.5728C8.80556 33.3987 8.77735 33.2238 8.75369 33.0482C8.60768 31.9747 8.15584 31.1289 7.29697 30.4482C7.12487 30.3334 6.95334 30.2374 6.76757 30.1465C6.71126 30.1185 6.65495 30.0905 6.59694 30.0617C5.08874 29.4406 3.48483 30.0275 2.47741 31.2231ZM36.9305 31.2231C36.3943 31.9605 36.2551 32.7575 36.1577 33.6456C36.123 33.9258 36.123 33.9258 36.0351 34.1894C35.7803 34.2744 35.6132 34.2896 35.3479 34.2926C35.2189 34.2944 35.2189 34.2944 35.0874 34.2962C34.9945 34.2971 34.9017 34.298 34.806 34.2989C34.6094 34.3018 34.4128 34.3048 34.2162 34.3077C33.9063 34.3119 33.5964 34.3158 33.2864 34.3192C32.9873 34.3227 32.6882 34.3273 32.3891 34.3319C32.2969 34.3326 32.2048 34.3334 32.1099 34.3341C31.2477 34.3445 31.2477 34.3445 30.5145 34.7552C30.1684 35.1607 30.1073 35.3839 30.1187 35.9026C30.1597 36.2278 30.2806 36.4094 30.498 36.6504C30.9638 36.9967 31.4154 37.0129 31.9818 37.0147C32.0409 37.015 32.1 37.0153 32.1609 37.0156C32.3553 37.0164 32.5497 37.0166 32.7441 37.0167C32.8799 37.017 33.0157 37.0173 33.1516 37.0176C33.436 37.0181 33.7204 37.0183 34.0049 37.0182C34.3683 37.0182 34.7316 37.0194 35.095 37.0209C35.3755 37.0219 35.656 37.0221 35.9365 37.022C36.0704 37.0221 36.2044 37.0225 36.3383 37.0232C36.5261 37.0241 36.7138 37.0238 36.9016 37.0233C37.0616 37.0235 37.0616 37.0235 37.2247 37.0237C37.6891 36.9905 38.0367 36.9196 38.3917 36.6119C38.818 36.1126 38.8573 35.7404 38.86 35.0985C38.8626 34.9311 38.8626 34.9311 38.8652 34.7604C38.8681 34.5262 38.8697 34.2921 38.87 34.0579C38.8732 33.8905 38.8732 33.8905 38.8765 33.7198C38.8773 33.6181 38.8781 33.5164 38.879 33.4116C38.9518 33.055 39.0977 32.9231 39.375 32.6953C39.5563 32.6369 39.5563 32.6369 39.7266 32.6404C39.7827 32.6392 39.8389 32.6381 39.8968 32.6369C40.1929 32.7323 40.3238 32.8944 40.5176 33.1347C40.5604 33.4005 40.5774 33.6154 40.5728 33.8804C40.5731 33.9521 40.5733 34.0237 40.5735 34.0975C40.5734 34.2488 40.5722 34.4001 40.57 34.5514C40.567 34.7808 40.5682 35.0099 40.5699 35.2393C40.5687 36.6476 40.5687 36.6476 40.166 37.2656C40.1258 37.3357 40.0856 37.4059 40.0441 37.4781C39.5873 38.0995 39.0014 38.5311 38.2324 38.6718C37.8829 38.7038 37.5339 38.7163 37.1832 38.7268C36.7019 38.7431 36.7019 38.7431 36.2109 38.7597C36.2109 39.7749 36.2109 40.79 36.2109 41.8359C38.5312 41.8359 40.8516 41.8359 43.2422 41.8359C43.2473 40.3464 43.2473 40.3464 43.2508 38.8569C43.2518 38.2488 43.253 37.6406 43.2554 37.0325C43.2574 36.5419 43.2584 36.0512 43.2589 35.5605C43.2592 35.374 43.2598 35.1874 43.2608 35.0009C43.2687 33.3885 43.2755 31.9984 42.1085 30.7593C41.8346 30.5021 41.5577 30.3114 41.2207 30.1465C41.1644 30.1185 41.1081 30.0905 41.0501 30.0617C39.5419 29.4406 37.938 30.0275 36.9305 31.2231ZM10.5469 38.7597C10.5469 39.7749 10.5469 40.79 10.5469 41.8359C18.4359 41.8359 26.325 41.8359 34.4531 41.8359C34.4531 40.8208 34.4531 39.8056 34.4531 38.7597C26.5641 38.7597 18.675 38.7597 10.5469 38.7597Z" fill="#97AFC5"/>
<path d="M22.3409 1.36766C22.4036 1.36795 22.4664 1.36825 22.5311 1.36856C25.6907 1.39018 28.426 2.61203 30.6401 4.85131C32.8438 7.14846 33.7104 10.0714 33.6811 13.2013C33.6651 13.923 33.5749 14.594 33.3986 15.2928C33.3844 15.3494 33.3703 15.406 33.3557 15.4643C33.0741 16.5542 32.6264 17.6677 32.0095 18.6117C31.8808 18.8528 31.8899 18.9507 31.9484 19.2149C31.9663 19.2982 31.9842 19.3815 32.0026 19.4673C32.0631 19.7073 32.1259 19.9461 32.1908 20.1848C32.2104 20.2576 32.2301 20.3303 32.2504 20.4052C32.2899 20.5499 32.3305 20.6944 32.3722 20.8386C32.5072 21.3236 32.6452 21.8434 32.4452 22.3292C32.237 22.5655 32.1018 22.6706 31.7941 22.7429C31.4408 22.765 31.2005 22.7173 30.8628 22.6152C30.7518 22.5828 30.6408 22.5504 30.5264 22.517C30.4107 22.4821 30.2951 22.4471 30.1796 22.412C29.9517 22.343 29.7235 22.2756 29.495 22.2087C29.3944 22.1782 29.2939 22.1478 29.1903 22.1164C28.6687 22.0099 28.3761 22.1937 27.9384 22.4669C25.5209 23.9004 22.3448 24.2653 19.6283 23.5769C18.3739 23.2243 17.171 22.6971 16.0841 21.9725C15.9007 21.9778 15.9007 21.9778 15.701 22.0292C15.623 22.0468 15.545 22.0644 15.4646 22.0826C14.8849 22.2294 14.31 22.394 13.7358 22.5611C13.6384 22.5884 13.5409 22.6156 13.4406 22.6437C13.3532 22.6688 13.2658 22.6939 13.1758 22.7198C12.8852 22.7695 12.6775 22.7485 12.3927 22.6756C12.0989 22.4536 11.9728 22.3181 11.8868 21.9576C11.8626 21.5773 11.9291 21.2648 12.0329 20.9034C12.0508 20.837 12.0687 20.7707 12.0871 20.7023C12.144 20.4918 12.2023 20.2818 12.2609 20.0719C12.3195 19.8613 12.3776 19.6506 12.4346 19.4396C12.47 19.3087 12.5063 19.1781 12.5435 19.0478C12.7129 18.4222 12.5811 18.1014 12.2829 17.545C10.9957 15.0525 10.796 11.9636 11.6237 9.2888C11.699 9.06146 11.7804 8.83705 11.8654 8.61314C11.8871 8.5553 11.9089 8.49747 11.9313 8.43787C12.3415 7.37168 12.9104 6.19787 13.799 5.44908C14.1009 5.36889 14.3725 5.389 14.6779 5.44908C14.9525 5.61387 14.9525 5.61387 15.1173 5.88853C15.2135 6.2823 15.2017 6.61505 15.0034 6.97343C14.8991 7.11693 14.7925 7.25873 14.6841 7.39915C13.3277 9.24175 12.8913 11.6362 13.1563 13.8756C13.3839 15.2695 13.8939 16.4511 14.5677 17.6827C14.9084 18.4459 14.4217 19.6079 14.2384 20.3905C14.3445 20.3588 14.4505 20.327 14.5598 20.2944C14.7017 20.2531 14.8436 20.2119 14.9855 20.1708C15.0551 20.1498 15.1246 20.1288 15.1963 20.1072C16.223 19.8127 16.2229 19.8127 16.7219 20.0423C16.9413 20.1695 17.1525 20.3054 17.364 20.4454C19.5177 21.7976 21.9789 22.2782 24.4839 21.749C25.7912 21.4352 26.936 20.8647 28.0526 20.1262C28.6905 19.7793 29.5871 20.2016 30.2345 20.3905C30.1965 20.2489 30.1965 20.2489 30.1576 20.1045C30.1246 19.9783 30.0917 19.852 30.0587 19.7258C30.042 19.6639 30.0252 19.602 30.0079 19.5382C29.862 18.9729 29.778 18.5198 30.0759 17.99C30.1608 17.852 30.2467 17.7147 30.3334 17.578C31.6819 15.3418 32.1197 12.8304 31.4997 10.268C30.8509 7.88616 29.3185 5.79303 27.1671 4.56253C25.5309 3.66285 23.8266 3.20963 21.9522 3.26211C21.8737 3.26388 21.7952 3.26565 21.7142 3.26748C21.5598 3.27161 21.4054 3.27769 21.2512 3.28593C20.8632 3.2962 20.7075 3.2922 20.3887 3.0496C20.1702 2.75118 20.1271 2.56621 20.1271 2.19713C20.2325 1.85474 20.32 1.71331 20.626 1.52524C21.1662 1.31024 21.7689 1.36248 22.3409 1.36766Z" fill="#97AFC5"/>
<path d="M20.7812 5.51995C20.9027 5.51784 20.9027 5.51784 21.0266 5.51568C21.3976 5.51177 21.7686 5.50816 22.1396 5.50614C22.3352 5.50468 22.5307 5.50228 22.7263 5.49893C23.0083 5.49411 23.2903 5.49219 23.5723 5.4909C23.703 5.48791 23.703 5.48791 23.8362 5.48486C24.2327 5.48607 24.5201 5.49082 24.8388 5.74303C25.1009 6.03453 25.1476 6.23058 25.1465 6.60882C25.1465 6.71965 25.1465 6.71965 25.1465 6.83272C25.146 6.9121 25.1456 6.99149 25.1451 7.07328C25.145 7.15484 25.1449 7.2364 25.1447 7.32043C25.1442 7.58103 25.1431 7.84162 25.142 8.10221C25.1416 8.27885 25.1412 8.45549 25.1408 8.63213C25.1398 9.06524 25.1383 9.49834 25.1365 9.93144C25.2482 9.92914 25.36 9.92683 25.4751 9.92446C25.8908 9.91649 26.3065 9.91146 26.7222 9.9073C26.902 9.90509 27.0817 9.9021 27.2613 9.89829C27.5201 9.89294 27.7788 9.89046 28.0376 9.88852C28.1175 9.88625 28.1975 9.88399 28.2799 9.88165C28.6616 9.88148 28.923 9.89515 29.2289 10.1374C29.5005 10.4333 29.5418 10.6336 29.5452 11.0206C29.5461 11.0983 29.5469 11.1761 29.5478 11.2562C29.5483 11.3818 29.5483 11.3818 29.5489 11.51C29.5494 11.5964 29.5499 11.6828 29.5504 11.7718C29.5512 11.9545 29.5518 12.1373 29.5522 12.3201C29.553 12.5994 29.5557 12.8787 29.5585 13.158C29.5591 13.3356 29.5595 13.5132 29.5599 13.6908C29.561 13.7742 29.5621 13.8577 29.5632 13.9436C29.5614 14.4838 29.4912 14.7741 29.1289 15.1868C28.783 15.3588 28.4354 15.3249 28.0548 15.3185C27.9714 15.3181 27.888 15.3178 27.8021 15.3174C27.5361 15.3159 27.2702 15.3126 27.0042 15.3092C26.8237 15.3079 26.6432 15.3067 26.4628 15.3056C26.0207 15.3027 25.5786 15.2982 25.1365 15.2928C25.1379 15.4023 25.1393 15.5118 25.1407 15.6247C25.1455 16.0317 25.1485 16.4387 25.151 16.8458C25.1523 17.0218 25.1541 17.1978 25.1564 17.3739C25.1596 17.6272 25.1611 17.8804 25.1623 18.1338C25.1636 18.2122 25.165 18.2907 25.1664 18.3716C25.1665 18.7944 25.1545 19.0848 24.8728 19.4236C24.6146 19.6518 24.4542 19.7205 24.1105 19.7228C23.9891 19.7245 23.9891 19.7245 23.8652 19.7262C23.7348 19.7258 23.7348 19.7258 23.6019 19.7254C23.467 19.7261 23.467 19.7261 23.3293 19.7268C23.1392 19.7274 22.949 19.7272 22.7588 19.7265C22.4685 19.7258 22.1783 19.7283 21.888 19.7311C21.7031 19.7312 21.5181 19.7312 21.3332 19.7309C21.2467 19.7319 21.1601 19.7329 21.071 19.7339C20.5544 19.7287 20.2565 19.6802 19.8631 19.3357C19.7607 19.1309 19.7646 19.013 19.7652 18.785C19.7652 18.7076 19.7652 18.6302 19.7652 18.5504C19.7657 18.4667 19.7661 18.3831 19.7666 18.2968C19.7667 18.2113 19.7669 18.1257 19.767 18.0375C19.7675 17.7634 19.7686 17.4894 19.7697 17.2154C19.7701 17.0299 19.7705 16.8444 19.7709 16.6588C19.7719 16.2035 19.7733 15.7481 19.7752 15.2928C19.6076 15.2955 19.6076 15.2955 19.4366 15.2983C19.0209 15.3047 18.6052 15.3087 18.1895 15.3121C18.0098 15.3138 17.8301 15.3162 17.6504 15.3193C17.3916 15.3236 17.1329 15.3255 16.8741 15.3271C16.7942 15.3289 16.7142 15.3307 16.6319 15.3326C16.129 15.3328 15.8533 15.2727 15.4685 14.9412C15.363 14.73 15.3673 14.593 15.3637 14.3571C15.3623 14.2723 15.3609 14.1875 15.3594 14.1002C15.3555 13.7122 15.3519 13.3243 15.3499 12.9363C15.3484 12.7316 15.346 12.5269 15.3427 12.3223C15.3379 12.0274 15.3359 11.7325 15.3347 11.4376C15.3327 11.3462 15.3307 11.2548 15.3286 11.1607C15.3305 10.5241 15.3305 10.5241 15.5923 10.1834C15.88 9.97623 16.0154 9.92044 16.3628 9.92146C16.4763 9.92147 16.4763 9.92147 16.592 9.92148C16.6738 9.92193 16.7555 9.92239 16.8398 9.92285C16.9234 9.92298 17.0071 9.9231 17.0932 9.92323C17.361 9.92372 17.6288 9.92483 17.8965 9.92594C18.0778 9.92638 18.2591 9.92679 18.4403 9.92715C18.8853 9.92812 19.3302 9.92963 19.7752 9.93144C19.7729 9.81659 19.7706 9.70174 19.7682 9.58342C19.7603 9.15674 19.7552 8.73007 19.751 8.30334C19.7488 8.11876 19.7458 7.93419 19.742 7.74964C19.7367 7.48411 19.7342 7.21869 19.7323 6.95311C19.73 6.87079 19.7277 6.78847 19.7254 6.70365C19.7252 6.29743 19.7288 6.1235 19.9866 5.79446C20.2807 5.57562 20.4218 5.52564 20.7812 5.51995ZM21.6209 7.38261C21.6176 7.64398 21.6143 7.90536 21.6109 8.17465C21.6069 8.42831 21.6024 8.68196 21.5978 8.93561C21.5949 9.11164 21.5924 9.28768 21.5904 9.46372C21.5875 9.71705 21.5829 9.97031 21.578 10.2236C21.5771 10.3413 21.5771 10.3413 21.5763 10.4614C21.5664 10.8813 21.5462 11.1755 21.2693 11.5135C20.9986 11.694 20.9358 11.7119 20.6288 11.7173C20.5532 11.719 20.4775 11.7208 20.3996 11.7226C20.2776 11.7241 20.2776 11.7241 20.1532 11.7256C20.0697 11.7273 19.9862 11.729 19.9001 11.7308C19.6333 11.7361 19.3664 11.7401 19.0995 11.7442C18.9187 11.7475 18.7378 11.751 18.5569 11.7545C18.1134 11.7631 17.6699 11.7701 17.2264 11.7771C17.2264 12.3282 17.2264 12.8793 17.2264 13.4471C17.4941 13.4493 17.7618 13.4516 18.0376 13.4539C18.2974 13.4573 18.5572 13.4613 18.8169 13.4653C18.9972 13.4678 19.1775 13.4696 19.3578 13.4709C19.6173 13.4728 19.8766 13.4769 20.136 13.4814C20.2164 13.4815 20.2968 13.4816 20.3797 13.4817C20.7467 13.4901 20.9546 13.504 21.2742 13.6976C21.5124 13.961 21.5439 14.1769 21.551 14.519C21.5537 14.6298 21.5537 14.6298 21.5564 14.7429C21.5578 14.8223 21.5593 14.9016 21.5608 14.9834C21.5626 15.065 21.5645 15.1466 21.5663 15.2306C21.5721 15.4912 21.5773 15.7518 21.5824 16.0124C21.5862 16.189 21.5901 16.3657 21.5939 16.5423C21.6034 16.9754 21.6121 17.4085 21.6209 17.8416C22.172 17.8416 22.723 17.8416 23.2908 17.8416C23.2931 17.5665 23.2953 17.2914 23.2977 17.008C23.3011 16.7416 23.305 16.4751 23.3091 16.2087C23.3115 16.0235 23.3134 15.8383 23.3146 15.6532C23.3165 15.387 23.3206 15.1209 23.3251 14.8547C23.3253 14.7719 23.3254 14.6891 23.3255 14.6039C23.3384 14.0285 23.3384 14.0285 23.5468 13.7491C23.8091 13.5686 23.9585 13.5233 24.2729 13.5169C24.3864 13.5143 24.3864 13.5143 24.5022 13.5116C24.6248 13.5094 24.6248 13.5094 24.7499 13.5071C24.8336 13.5053 24.9172 13.5035 25.0034 13.5016C25.2711 13.4959 25.5389 13.4907 25.8067 13.4855C25.988 13.4817 26.1692 13.4779 26.3505 13.474C26.7954 13.4645 27.2404 13.4558 27.6853 13.4471C27.6853 12.896 27.6853 12.3449 27.6853 11.7771C27.4176 11.7739 27.1499 11.7706 26.8741 11.7672C26.6143 11.7631 26.3546 11.7586 26.0948 11.7541C25.9145 11.7512 25.7342 11.7487 25.5539 11.7467C25.2945 11.7437 25.0351 11.7391 24.7757 11.7342C24.6953 11.7337 24.6149 11.7331 24.5321 11.7325C24.1083 11.7228 23.8082 11.7055 23.4666 11.4256C23.3653 11.2229 23.3652 11.1005 23.3607 10.8748C23.358 10.7587 23.358 10.7587 23.3553 10.6403C23.3539 10.5566 23.3524 10.4729 23.3509 10.3867C23.3491 10.3011 23.3472 10.2155 23.3454 10.1273C23.3396 9.8533 23.3344 9.57926 23.3293 9.30522C23.3255 9.11971 23.3216 8.9342 23.3178 8.74869C23.3083 8.29334 23.2994 7.83798 23.2908 7.38261C22.7397 7.38261 22.1887 7.38261 21.6209 7.38261Z" fill="#D6A3B3"/>
<path d="M17.7539 2.81258C18.0652 3.08498 18.1796 3.24206 18.2373 3.65303C18.191 3.97147 18.125 4.14138 17.9297 4.39461C17.5779 4.62914 17.2887 4.6437 16.875 4.57039C16.6328 4.37865 16.4851 4.2301 16.3477 3.95516C16.3147 3.66943 16.2892 3.44154 16.4366 3.18543C16.8106 2.72049 17.1894 2.63576 17.7539 2.81258Z" fill="#97AFC5"/>
</g>
<defs>
<clipPath id="clip0_47_1460">
<rect width="45" height="45" fill="white"/>
</clipPath>
</defs>
</svg>
