<svg width="33" height="33" viewBox="0 0 33 33" fill="none" xmlns="http://www.w3.org/2000/svg">
<path d="M16.4559 1.52258C16.5184 1.52262 16.5809 1.52265 16.6453 1.52269C17.6498 1.52527 18.611 1.58166 19.5939 1.80457C19.6893 1.8258 19.6893 1.8258 19.7866 1.84746C21.976 2.34789 24.0256 3.29781 25.7814 4.70496C25.8441 4.75456 25.9069 4.80416 25.9715 4.85526C26.9365 5.63524 27.8286 6.53259 28.5529 7.54089C28.602 7.60794 28.6511 7.67499 28.7017 7.74407C30.0613 9.6504 30.9451 11.8036 31.3244 14.1151C31.3422 14.22 31.3422 14.22 31.3603 14.327C31.4688 15.0364 31.479 15.7392 31.4775 16.4556C31.4774 16.5493 31.4774 16.5493 31.4774 16.645C31.4748 17.6495 31.4184 18.6107 31.1955 19.5936C31.1813 19.6572 31.1672 19.7208 31.1526 19.7863C30.6522 21.9757 29.7022 24.0253 28.2951 25.7811C28.2455 25.8439 28.1959 25.9066 28.1448 25.9712C27.3648 26.9362 26.4675 27.8283 25.4592 28.5526C25.3921 28.6017 25.3251 28.6508 25.256 28.7014C23.3496 30.061 21.1964 30.9448 18.8849 31.3241C18.815 31.336 18.7451 31.3478 18.673 31.36C17.9637 31.4685 17.2608 31.4787 16.5445 31.4772C16.482 31.4771 16.4194 31.4771 16.355 31.4771C15.3503 31.4745 14.3897 31.4173 13.4064 31.1952C13.3435 31.1814 13.2806 31.1676 13.2158 31.1533C11.0318 30.6617 8.96737 29.696 7.21892 28.2948C7.15619 28.2452 7.09346 28.1956 7.02883 28.1445C6.06285 27.3637 5.17547 26.4655 4.44743 25.4589C4.40631 25.403 4.36518 25.3472 4.32281 25.2897C2.67854 23.0045 1.55733 20.1447 1.53168 17.306C1.53105 17.2483 1.53042 17.1907 1.52977 17.1312C1.5188 15.8674 1.52497 14.645 1.80485 13.4061C1.81867 13.3432 1.83248 13.2803 1.84671 13.2155C2.33833 11.0315 3.30404 8.96708 4.70525 7.21863C4.75485 7.1559 4.80445 7.09317 4.85555 7.02854C5.63631 6.06256 6.53451 5.17518 7.54118 4.44714C7.59701 4.40602 7.65285 4.36489 7.71037 4.32252C9.61859 2.94946 11.8005 2.06043 14.1154 1.67566C14.1836 1.66409 14.2518 1.65252 14.3221 1.6406C15.0334 1.53208 15.7375 1.52107 16.4559 1.52258ZM10.1838 4.70496C10.1447 4.72573 10.1057 4.7465 10.0654 4.7679C8.69465 5.50417 7.36452 6.52252 6.38103 7.73425C6.32381 7.80208 6.26657 7.86989 6.20932 7.93768C5.4412 8.85943 4.82027 9.86807 4.31853 10.9569C4.2843 11.03 4.25006 11.1031 4.2148 11.1785C3.57815 12.5962 3.15867 14.2103 3.14301 15.7685C3.14238 15.8206 3.14175 15.8728 3.1411 15.9265C3.1175 18.384 3.53969 20.6364 4.70525 22.8163C4.72602 22.8553 4.74679 22.8944 4.76819 22.9346C5.50446 24.3054 6.52281 25.6355 7.73454 26.619C7.80237 26.6762 7.87018 26.7335 7.93797 26.7907C8.85972 27.5588 9.86835 28.1798 10.9572 28.6815C11.0303 28.7157 11.1034 28.75 11.1788 28.7852C14.3843 30.2248 18.0186 30.2056 21.2898 29.0118C21.8174 28.811 22.3192 28.5607 22.8166 28.2948C22.8556 28.274 22.8947 28.2533 22.9349 28.2319C24.3057 27.4956 25.6358 26.4772 26.6193 25.2655C26.6765 25.1977 26.7338 25.1299 26.791 25.0621C27.5591 24.1403 28.1801 23.1317 28.6818 22.0428C28.716 21.9697 28.7503 21.8966 28.7855 21.8213C29.4222 20.4036 29.8417 18.7894 29.8573 17.2313C29.858 17.1791 29.8586 17.127 29.8592 17.0733C29.8828 14.6158 29.4606 12.3633 28.2951 10.1835C28.2743 10.1444 28.2535 10.1054 28.2321 10.0651C27.4959 8.69436 26.4775 7.36424 25.2658 6.38074C25.198 6.32352 25.1302 6.26628 25.0624 6.20903C24.1406 5.44091 23.132 4.81998 22.0431 4.31824C21.97 4.28401 21.8969 4.24978 21.8216 4.21451C18.1078 2.54674 13.7495 2.79838 10.1838 4.70496Z" fill="#97AFC5"/>
<path d="M16.4799 5.38596C16.5332 5.3862 16.5864 5.38644 16.6412 5.38669C19.3401 5.40385 22.1023 6.37627 24.0451 8.30649C24.1086 8.37329 24.1718 8.44038 24.2345 8.50791C24.3122 8.58568 24.3122 8.58568 24.3916 8.66501C24.4461 8.71952 24.5006 8.77402 24.5567 8.83018C24.5929 8.86333 24.629 8.89648 24.6662 8.93063C25.9212 10.1144 26.7459 11.8166 27.2235 13.4507C27.2381 13.5002 27.2527 13.5498 27.2677 13.6009C27.5157 14.5053 27.6187 15.4099 27.6112 16.3457C27.6102 16.5001 27.6112 16.6544 27.6125 16.8088C27.6138 17.7421 27.4874 18.6529 27.2235 19.5495C27.2073 19.605 27.1911 19.6605 27.1745 19.7177C26.5772 21.6857 25.4332 23.5541 23.8477 24.879C23.7645 24.9525 23.7645 24.9525 23.6796 25.0275C23.1692 25.4703 22.6257 25.8274 22.043 26.1681C22.0043 26.1912 21.9655 26.2143 21.9256 26.2381C20.5253 27.0651 18.8181 27.5842 17.1884 27.6014C17.1386 27.602 17.0888 27.6027 17.0375 27.6033C15.9534 27.6142 14.9126 27.6076 13.8575 27.3282C13.804 27.3148 13.7505 27.3013 13.6954 27.2874C11.9446 26.8393 10.3639 25.9828 9.03988 24.7529C8.93906 24.6615 8.83472 24.5739 8.72794 24.4895C8.49475 24.3005 8.31445 24.0764 8.12117 23.8478C8.07182 23.7919 8.02247 23.7361 7.97162 23.6786C6.93091 22.478 6.19382 21.0001 5.75655 19.477C5.74428 19.4352 5.73201 19.3933 5.71937 19.3502C5.47689 18.4617 5.38163 17.5725 5.38893 16.6545C5.38997 16.5001 5.38893 16.3458 5.38771 16.1914C5.38637 15.2545 5.51401 14.3422 5.78072 13.4426C5.7971 13.3867 5.81348 13.3307 5.83036 13.2731C6.39637 11.406 7.39552 9.87809 8.7657 8.50791C8.82727 8.44186 8.82727 8.44186 8.89008 8.37447C10.0943 7.10257 11.7885 6.26252 13.4506 5.77671C13.5002 5.76211 13.5498 5.74751 13.6009 5.73246C14.5507 5.47199 15.4981 5.37799 16.4799 5.38596ZM12.6329 7.79893C12.5856 7.82127 12.5382 7.8436 12.4895 7.86662C10.062 9.03384 8.32726 11.0378 7.42024 13.5675C7.37185 13.7278 7.32632 13.889 7.28328 14.0509C7.27083 14.0962 7.25838 14.1415 7.24555 14.1883C6.85112 15.6807 6.85973 17.4651 7.28328 18.9493C7.29815 19.0018 7.31303 19.0544 7.32835 19.1085C8.02194 21.4636 9.60145 23.5177 11.7305 24.7501C14.0827 26.0316 16.6622 26.37 19.2511 25.633C19.6357 25.5171 20.004 25.3732 20.3673 25.2013C20.4146 25.1789 20.4619 25.1566 20.5107 25.1336C22.9382 23.9664 24.6729 21.9624 25.5799 19.4327C25.6283 19.2724 25.6738 19.1112 25.7169 18.9493C25.7293 18.904 25.7418 18.8587 25.7546 18.8119C26.1516 17.3099 26.1289 15.546 25.7169 14.0509C25.7044 14.0032 25.692 13.9555 25.6792 13.9064C25.3317 12.6094 24.6479 11.3982 23.7833 10.3771C23.7354 10.3205 23.7354 10.3205 23.6866 10.2629C22.1655 8.49425 19.9345 7.24676 17.5958 7.02549C17.555 7.02126 17.5141 7.01703 17.4721 7.01268C15.8342 6.85087 14.1257 7.09244 12.6329 7.79893Z" fill="#D6A3B3"/>
<path d="M16.4716 9.25709C16.5353 9.25714 16.5353 9.25714 16.6003 9.25719C17.3081 9.25987 17.9536 9.3209 18.6267 9.53907C18.6707 9.55288 18.7146 9.5667 18.7599 9.58093C19.7132 9.88799 20.5128 10.3617 21.2693 11.0215C21.3133 11.0562 21.3574 11.0909 21.4027 11.1267C22.7082 12.1785 23.4803 13.9027 23.7185 15.5332C23.7772 16.5766 23.7839 17.6252 23.4607 18.627C23.4405 18.6923 23.4405 18.6923 23.4199 18.759C23.1209 19.7058 22.6229 20.5175 21.9783 21.2695C21.9284 21.3333 21.9284 21.3333 21.8776 21.3984C21.0191 22.463 19.7133 23.1277 18.4334 23.5254C18.3592 23.5487 18.285 23.5721 18.2085 23.5961C17.0019 23.901 15.5555 23.8443 14.3728 23.4609C14.3289 23.4471 14.285 23.4333 14.2397 23.4191C13.2863 23.112 12.4868 22.6384 11.7302 21.9785C11.6862 21.9438 11.6422 21.9091 11.5968 21.8733C10.2914 20.8215 9.51924 19.0974 9.28102 17.4668C9.22243 16.4241 9.21443 15.3739 9.53884 14.3731C9.55956 14.3072 9.55956 14.3072 9.58069 14.2399C9.88856 13.2841 10.3597 12.4878 11.0213 11.7305C11.0585 11.6832 11.0957 11.6359 11.1341 11.5872C12.4041 10.0252 14.5097 9.25434 16.4716 9.25709ZM12.3551 12.6487C11.2188 13.8536 10.8338 15.3236 10.8704 16.9298C10.9085 17.8458 11.2175 18.6102 11.6658 19.4004C11.6969 19.4553 11.7281 19.5102 11.7602 19.5668C12.5136 20.7788 13.7562 21.6151 15.1201 21.9949C16.6523 22.3305 18.044 22.1034 19.4002 21.334C19.4551 21.3028 19.51 21.2717 19.5666 21.2396C20.8573 20.4372 21.6795 19.1154 22.0427 17.6602C22.3671 16.2346 22.0381 14.8412 21.3338 13.5996C21.3026 13.5447 21.2714 13.4898 21.2393 13.4332C20.4846 12.219 19.2454 11.3918 17.8825 11.0049C15.7794 10.5528 13.8783 11.1642 12.3551 12.6487Z" fill="#97AFC5"/>
<path d="M17.5241 14.6142C18.0619 14.9349 18.3964 15.3788 18.5624 15.9843C18.6267 16.6997 18.5849 17.3207 18.1273 17.9058C17.7627 18.2962 17.3085 18.5361 16.7748 18.5841C16.0832 18.5996 15.5133 18.5189 14.9872 18.0277C14.5107 17.4976 14.3999 16.936 14.4172 16.2413C14.4478 15.7009 14.6807 15.2493 15.0819 14.8886C15.774 14.3681 16.7297 14.233 17.5241 14.6142Z" fill="#D6A3B3"/>
</svg>
