<svg width="55" height="49" viewBox="0 0 55 49" fill="none" xmlns="http://www.w3.org/2000/svg">
<g clip-path="url(#clip0_47_1465)">
<path d="M24.704 6.12477C24.704 5.35755 24.9315 4.60755 25.3578 3.96962C25.784 3.3317 26.3899 2.8345 27.0987 2.54089C27.8075 2.24729 28.5875 2.17047 29.34 2.32014C30.0925 2.46982 30.7837 2.83928 31.3262 3.38179C31.8687 3.9243 32.2382 4.6155 32.3878 5.36799C32.5375 6.12047 32.4607 6.90044 32.1671 7.60927C31.8735 8.31809 31.3763 8.92393 30.7384 9.35018C30.1004 9.77643 29.3504 10.0039 28.5832 10.0039C28.0736 10.0045 27.569 9.90451 27.0981 9.70975C26.6272 9.51499 26.1993 9.22928 25.839 8.86896C25.4787 8.50864 25.193 8.08079 24.9982 7.6099C24.8035 7.13902 24.7035 6.63434 24.704 6.12477ZM29.947 16.1146C30.4779 13.5381 27.0907 12.3151 24.0385 11.2453L14.4753 13.6994L15.6533 22.1804C15.6533 23.6259 18.9425 23.1788 18.8935 22.0804L18.0972 16.5475L23.4627 15.5675L21.4251 25.6125L28.7792 34.1446L25.78 43.2566C25.6573 43.482 25.5805 43.7295 25.5541 43.9848C25.5277 44.2401 25.5523 44.4981 25.6263 44.7438C25.7004 44.9896 25.8225 45.2182 25.9856 45.4164C26.1486 45.6146 26.3494 45.7784 26.5762 45.8985C27.644 46.2986 28.8711 45.4759 29.6102 44.014C29.7163 43.8017 33.4975 33.5464 33.4975 33.5464L27.7441 26.9396L29.9491 16.1126L29.947 16.1146ZM17.7501 34.1793L11.1474 35.2573C10.6449 35.3926 10.2101 35.7088 9.92667 36.1452C9.64325 36.5817 9.53119 37.1075 9.61204 37.6216C9.6835 38.722 11.1167 39.4182 12.2968 39.259L19.1568 37.9074L24.3427 32.1274L21.9457 29.3487L17.7501 34.1793ZM35.3187 18.3768L31.3292 19.5569L30.5657 23.3074L36.415 21.7129C36.7656 21.5033 37.0343 21.1805 37.1771 20.7979C37.3198 20.4152 37.3281 19.9953 37.2005 19.6073C37.0729 19.2193 36.817 18.8863 36.475 18.663C36.133 18.4398 35.7252 18.3375 35.3187 18.3768Z" fill="#97AFC5"/>
</g>
<g clip-path="url(#clip1_47_1465)">
<path fill-rule="evenodd" clip-rule="evenodd" d="M50.0418 43.1626V40.3486C51.9194 39.9298 53.7069 37.9373 53.7069 35.5359C53.7069 32.8306 51.6711 25.6758 49.4439 25.6758C47.2166 25.6758 45.1759 32.8306 45.1759 35.5359C45.1759 37.8842 47.0449 39.8458 48.862 40.3214V43.0514C47.8232 42.9946 46.3099 42.9625 45.1426 42.9625C43.7998 42.9625 42.5213 43.0551 41.3539 43.2058V39.9051C42.6609 39.521 43.7875 38.1535 43.7875 36.5081C43.7875 34.5687 42.4348 29.3668 40.7709 29.3668C39.1032 29.3668 37.7543 34.5687 37.7543 36.5081C37.7543 38.1807 38.8722 39.5716 40.2162 39.9286V43.3788C37.2577 43.889 35.2627 44.7537 35.2627 45.3145H55.0274C55.0262 44.7512 53.0176 43.4233 50.0418 43.1626Z" fill="#D6A3B3"/>
</g>
<defs>
<clipPath id="clip0_47_1465">
<rect width="49" height="49" fill="white"/>
</clipPath>
<clipPath id="clip1_47_1465">
<rect width="21" height="21" fill="white" transform="translate(34 25)"/>
</clipPath>
</defs>
</svg>
