<svg width="134" height="77" viewBox="0 0 134 77" fill="none" xmlns="http://www.w3.org/2000/svg">
<path d="M95.5 77C116.763 77 134 59.763 134 38.5C134 17.237 116.763 0 95.5 0C74.237 0 57 17.237 57 38.5C57 59.763 74.237 77 95.5 77Z" fill="url(#paint0_linear_20_2)"/>
<path d="M110.875 22H80.125C78.7662 22.0016 77.4636 22.5552 76.5028 23.5394C75.542 24.5236 75.0015 25.8581 75 27.25V49.75C75.0015 51.1419 75.542 52.4763 76.5028 53.4606C77.4635 54.4448 78.7662 54.9984 80.125 55H110.875C112.234 54.9984 113.536 54.4448 114.497 53.4606C115.458 52.4763 115.998 51.1419 116 49.75V27.25C115.998 25.8581 115.458 24.5236 114.497 23.5394C113.536 22.5552 112.234 22.0016 110.875 22ZM110.875 25C111.059 25.0008 111.241 25.0252 111.419 25.0727L95.5035 38.0782L79.6812 25.0462C79.8272 25.0154 79.9759 25 80.125 25H110.875ZM110.875 52H80.125C79.5427 51.9993 78.9844 51.762 78.5726 51.3402C78.1609 50.9184 77.9292 50.3465 77.9286 49.75V27.452L94.5825 41.169C94.8418 41.3826 95.1644 41.4993 95.4972 41.4999C95.8299 41.5006 96.153 41.3851 96.4131 41.1726L113.071 27.5598V49.7499C113.071 50.3465 112.839 50.9184 112.427 51.3402C112.016 51.762 111.457 51.9993 110.875 52Z" fill="white"/>
<path d="M45.3636 46.9067C40.8671 45.2498 35.6611 46.8724 32.6516 50.5353C31.1474 52.3921 30.2271 54.6538 30.0072 57.0344C29.7873 59.415 30.2778 61.8074 31.4164 63.9088C32.655 66.1728 34.6415 67.9351 37.0354 68.8937C39.2464 69.7461 41.6854 69.7978 43.9304 69.04C44.1342 69.2052 44.3738 69.3205 44.63 69.3765C44.8862 69.4325 45.152 69.4276 45.406 69.3624C45.715 69.2834 45.9956 69.1192 46.2161 68.8885C46.4365 68.6578 46.5878 68.3698 46.6528 68.0572C46.7178 67.7446 46.6939 67.4201 46.5838 67.1204C46.4737 66.8208 46.2818 66.5581 46.03 66.3623C45.7782 66.1664 45.4765 66.0452 45.1593 66.0124C44.8421 65.9797 44.522 66.0368 44.2356 66.1771C43.9492 66.3174 43.7078 66.5354 43.539 66.8063C43.3701 67.0771 43.2806 67.39 43.2806 67.7092C43.2833 67.7762 43.29 67.8431 43.3007 67.9093C39.7858 69.0099 35.9027 67.658 33.5528 64.8003C32.2895 63.2114 31.5019 61.2965 31.2813 59.2777C31.0608 57.2589 31.4163 55.2189 32.3068 53.3941C33.1736 51.6508 34.5044 50.1809 36.1526 49.1466C37.8007 48.1123 39.7021 47.5537 41.6472 47.5325C45.7254 47.5459 49.5843 50.2401 50.3991 54.3542C50.6036 55.4123 50.5768 56.5022 50.3205 57.5489C50.0643 58.5956 49.5847 59.5744 48.9147 60.4179C48.2344 61.2443 47.2616 62.0595 46.1356 62.0694C45.9423 62.0554 45.7586 61.9802 45.6109 61.8547C45.287 61.6024 45.0346 61.2698 44.8785 60.8898C44.7224 60.5099 44.668 60.0957 44.7207 59.6883C44.8488 58.5419 45.0581 56.6678 45.1842 55.5382C45.2246 54.8664 45.3416 54.2014 45.533 53.5563C45.6094 53.4557 45.6577 53.3365 45.6727 53.211C45.9276 52.726 46.4198 52.2139 46.9977 52.292C47.1609 52.331 47.3328 52.3066 47.4787 52.2237C47.6245 52.1408 47.7336 52.0055 47.7837 51.8452C47.8277 51.6817 47.8056 51.5073 47.722 51.36C47.6385 51.2127 47.5003 51.1043 47.3374 51.0584C46.918 50.9955 46.4896 51.038 46.0907 51.1819C45.6917 51.3259 45.3347 51.5669 45.0519 51.8832C44.9245 52.0239 44.8101 52.176 44.7103 52.3376C41.344 50.9638 37.0976 52.2574 35.3697 55.5723C34.4148 57.4042 34.2815 59.6553 35.3337 61.4768C36.2712 63.0996 38.0804 64.2824 39.9955 64.1254C41.1555 64.0229 42.2474 63.5329 43.0956 62.7341C43.2536 62.5895 43.458 62.5062 43.672 62.4993C43.8859 62.4925 44.0953 62.5624 44.2622 62.6966L44.2691 62.702C44.7151 63.0377 45.2409 63.2511 45.7945 63.3212C46.3481 63.3912 46.9105 63.3155 47.4259 63.1014C49.5767 62.2914 51.0195 60.0441 51.5458 57.8868C52.6886 53.2022 49.7757 48.5326 45.3636 46.9067ZM40.5119 61.9523C39.8344 62.11 39.1231 62.0259 38.501 61.7145C37.8788 61.403 37.3848 60.8838 37.1043 60.2465C36.2524 58.5408 36.8095 54.3974 39.8219 53.3992C41.2533 52.9105 42.8121 52.9516 44.2158 53.5149C44.1392 53.8107 44.0804 54.1107 44.0397 54.4136C43.7991 56.1609 43.3191 59.8336 43.2852 59.9479C42.959 61.3973 41.9553 61.6495 40.5119 61.9523Z" fill="#3F3D56"/>
<path d="M13.6037 16.2787C9.6337 14.8158 5.03723 16.2484 2.38003 19.4824C1.05192 21.1218 0.239396 23.1188 0.0452721 25.2206C-0.148851 27.3225 0.284158 29.4347 1.2895 31.2901C2.38304 33.2891 4.13692 34.845 6.2506 35.6914C8.2027 36.4439 10.3562 36.4896 12.3383 35.8205C12.5182 35.9664 12.7298 36.0682 12.956 36.1176C13.1822 36.167 13.4168 36.1628 13.6411 36.1052C13.9139 36.0354 14.1617 35.8905 14.3563 35.6868C14.5509 35.4831 14.6845 35.2288 14.7419 34.9528C14.7993 34.6768 14.7782 34.3903 14.681 34.1257C14.5838 33.8612 14.4144 33.6292 14.1921 33.4563C13.9697 33.2834 13.7034 33.1763 13.4233 33.1474C13.1432 33.1185 12.8607 33.1689 12.6078 33.2928C12.3549 33.4167 12.1418 33.6092 11.9927 33.8483C11.8436 34.0875 11.7646 34.3637 11.7646 34.6456C11.767 34.7047 11.7729 34.7637 11.7824 34.8222C8.67895 35.7939 5.25047 34.6003 3.17576 32.0772C2.06033 30.6744 1.36494 28.9837 1.17022 27.2012C0.975505 25.4188 1.28944 23.6176 2.07562 22.0065C2.84094 20.4673 4.01596 19.1695 5.47112 18.2563C6.92628 17.3431 8.60506 16.85 10.3224 16.8312C13.9231 16.843 17.3302 19.2218 18.0496 22.8542C18.2301 23.7884 18.2065 24.7507 17.9802 25.6748C17.754 26.599 17.3306 27.4632 16.739 28.2079C16.1383 28.9376 15.2794 29.6573 14.2853 29.6661C14.1147 29.6537 13.9524 29.5873 13.822 29.4765C13.5361 29.2538 13.3132 28.9601 13.1753 28.6246C13.0375 28.2892 12.9895 27.9235 13.0361 27.5638C13.1491 26.5516 13.3339 24.8969 13.4453 23.8996C13.4809 23.3064 13.5842 22.7193 13.7532 22.1497C13.8207 22.0609 13.8633 21.9556 13.8766 21.8448C14.1017 21.4166 14.5363 20.9645 15.0465 21.0335C15.1905 21.0679 15.3423 21.0464 15.4711 20.9732C15.5999 20.8999 15.6962 20.7805 15.7404 20.639C15.7793 20.4946 15.7597 20.3407 15.686 20.2106C15.6122 20.0805 15.4902 19.9849 15.3464 19.9443C14.9761 19.8888 14.5978 19.9263 14.2456 20.0534C13.8934 20.1805 13.5782 20.3932 13.3284 20.6725C13.216 20.7968 13.115 20.9311 13.0268 21.0737C10.0547 19.8607 6.30542 21.0029 4.77985 23.9297C4.33898 24.7265 4.10504 25.6214 4.0995 26.5323C4.09396 27.4431 4.31699 28.3408 4.74813 29.1429C5.57585 30.5757 7.17324 31.62 8.86405 31.4814C9.88824 31.3909 10.8523 30.9582 11.6012 30.253C11.7407 30.1253 11.9212 30.0518 12.1101 30.0457C12.299 30.0396 12.4838 30.1014 12.6312 30.2199L12.6373 30.2246C13.0311 30.521 13.4953 30.7095 13.9841 30.7713C14.4729 30.8332 14.9694 30.7663 15.4245 30.5773C17.3235 29.8621 18.5973 27.8779 19.062 25.9732C20.0711 21.8371 17.4992 17.7142 13.6037 16.2787ZM9.32007 29.5627C8.72187 29.7019 8.09386 29.6277 7.54454 29.3527C6.99521 29.0777 6.55907 28.6193 6.31145 28.0566C5.55929 26.5506 6.05116 22.8923 8.71088 22.011C9.97462 21.5795 11.3509 21.6158 12.5903 22.1132C12.5226 22.3743 12.4707 22.6392 12.4348 22.9066C12.2223 24.4493 11.7985 27.692 11.7686 27.7929C11.4807 29.0727 10.5944 29.2953 9.32007 29.5627Z" fill="#3F3D56"/>
<path d="M43.2815 5.4539C40.1387 4.29582 36.5001 5.42987 34.3966 7.98998C33.3453 9.28775 32.7021 10.8686 32.5484 12.5324C32.3947 14.1963 32.7375 15.8684 33.5333 17.3372C34.399 18.9195 35.7874 20.1512 37.4606 20.8212C39.0059 21.4169 40.7106 21.4531 42.2798 20.9234C42.4222 21.0389 42.5896 21.1195 42.7687 21.1586C42.9478 21.1978 43.1335 21.1944 43.3111 21.1488C43.527 21.0936 43.7232 20.9788 43.8772 20.8176C44.0313 20.6563 44.137 20.455 44.1825 20.2366C44.2279 20.0181 44.2112 19.7913 44.1343 19.5818C44.0573 19.3724 43.9232 19.1888 43.7472 19.0519C43.5712 18.915 43.3604 18.8303 43.1386 18.8074C42.9169 18.7845 42.6932 18.8244 42.493 18.9225C42.2928 19.0206 42.1242 19.1729 42.0062 19.3622C41.8882 19.5516 41.8256 19.7702 41.8256 19.9934C41.8275 20.0402 41.8322 20.0869 41.8396 20.1332C39.3829 20.9024 36.6689 19.9575 35.0265 17.9602C34.1436 16.8497 33.5931 15.5113 33.4389 14.1003C33.2848 12.6893 33.5333 11.2635 34.1557 9.98812C34.7615 8.76963 35.6917 7.74231 36.8436 7.0194C37.9955 6.2965 39.3245 5.9061 40.6839 5.89125C43.5343 5.9006 46.2314 7.78369 46.8009 10.6592C46.9438 11.3987 46.9251 12.1604 46.746 12.892C46.5669 13.6236 46.2317 14.3077 45.7634 14.8972C45.2879 15.4748 44.608 16.0446 43.821 16.0515C43.6859 16.0417 43.5575 15.9892 43.4543 15.9015C43.2279 15.7251 43.0515 15.4927 42.9424 15.2271C42.8332 14.9616 42.7953 14.6721 42.8321 14.3873C42.9216 13.5861 43.0679 12.2762 43.1561 11.4867C43.1843 11.0171 43.2661 10.5524 43.3998 10.1015C43.4533 10.0312 43.487 9.94785 43.4975 9.86012C43.6757 9.52116 44.0197 9.16324 44.4236 9.21783C44.5376 9.24511 44.6577 9.22804 44.7597 9.17008C44.8617 9.11212 44.9379 9.01759 44.9729 8.90557C45.0037 8.79125 44.9882 8.6694 44.9298 8.56644C44.8714 8.46349 44.7748 8.38773 44.661 8.35562C44.3679 8.31168 44.0684 8.34136 43.7896 8.44198C43.5108 8.54261 43.2613 8.71102 43.0636 8.93209C42.9745 9.03048 42.8946 9.13678 42.8248 9.24967C40.472 8.28948 37.5041 9.19363 36.2964 11.5105C35.9474 12.1413 35.7622 12.8497 35.7578 13.5707C35.7534 14.2918 35.93 15.0024 36.2713 15.6374C36.5893 16.2182 37.0625 16.699 37.638 17.0259C38.2134 17.3528 38.8683 17.513 39.5295 17.4885C40.3402 17.4169 41.1034 17.0744 41.6962 16.5161C41.8067 16.415 41.9496 16.3569 42.0991 16.3521C42.2486 16.3472 42.395 16.3961 42.5116 16.4899L42.5164 16.4937C42.8281 16.7283 43.1956 16.8775 43.5826 16.9264C43.9695 16.9754 44.3625 16.9225 44.7228 16.7728C46.2261 16.2067 47.2344 14.636 47.6023 13.1282C48.4011 9.85398 46.3651 6.59024 43.2815 5.4539ZM39.8905 15.9696C39.4169 16.0799 38.9198 16.0211 38.4849 15.8034C38.0501 15.5858 37.7048 15.2229 37.5088 14.7774C36.9134 13.5852 37.3028 10.6893 39.4082 9.99164C40.4086 9.6501 41.4981 9.6788 42.4792 10.0725C42.4256 10.2792 42.3846 10.489 42.3562 10.7006C42.188 11.9219 41.8524 14.4888 41.8288 14.5687C41.6008 15.5818 40.8993 15.758 39.8905 15.9696Z" fill="#242424"/>
<defs>
<linearGradient id="paint0_linear_20_2" x1="95.5" y1="0" x2="95.5" y2="77" gradientUnits="userSpaceOnUse">
<stop stop-color="#D5A0B0"/>
<stop offset="1" stop-color="#A2BCD3"/>
</linearGradient>
</defs>
</svg>
