<svg width="272" height="162" viewBox="0 0 272 162" fill="none" xmlns="http://www.w3.org/2000/svg">
<g clip-path="url(#clip0_9_273)">
<path d="M208.25 160.168C204.767 157.237 202.652 152.606 203.207 148.098C203.761 143.59 207.197 139.446 211.654 138.488C216.111 137.531 221.191 140.181 222.544 144.518C223.289 136.157 224.148 127.445 228.61 120.324C232.651 113.877 239.649 109.263 247.234 108.438C254.819 107.613 262.805 110.73 267.535 116.694C272.265 122.657 273.423 131.328 270.11 138.174C267.67 143.218 263.173 146.972 258.462 150.026C243.239 159.811 224.981 163.79 207.047 161.231L208.25 160.168Z" fill="#F2F2F2"/>
<path d="M260.034 110.903C253.776 115.981 248.035 121.66 242.893 127.859C234.847 137.527 228.336 148.366 223.587 159.999C223.239 160.848 224.623 161.218 224.966 160.378C232.737 141.472 245.142 124.808 261.046 111.91C261.76 111.331 260.743 110.328 260.034 110.903Z" fill="white"/>
<path d="M87.5612 159.372C92.3442 155.345 95.2494 148.985 94.4875 142.793C93.7257 136.602 89.0067 130.91 82.8854 129.595C76.7642 128.28 69.7865 131.92 67.9273 137.876C66.904 126.392 65.725 114.426 59.5958 104.646C54.046 95.7905 44.4336 89.454 34.016 88.3204C23.5984 87.1868 12.6299 91.4682 6.13284 99.6595C-0.36426 107.851 -1.95505 119.759 2.59535 129.163C5.94747 136.091 12.1233 141.247 18.5939 145.441C39.2377 158.823 64.8462 164.404 89.2131 160.832" fill="#F2F2F2"/>
<path d="M16.4347 91.7057C25.0305 98.6805 32.9163 106.481 39.9779 114.995C47.0407 123.5 53.2587 132.668 58.5446 142.369C61.4992 147.811 64.1534 153.41 66.4953 159.14C66.9728 160.306 65.0727 160.813 64.6005 159.66C60.4524 149.558 55.3205 139.885 49.2782 130.78C43.2653 121.708 36.3832 113.238 28.7285 105.49C24.399 101.11 19.831 96.9704 15.0453 93.0898C14.0643 92.2941 15.4618 90.9165 16.4347 91.7057Z" fill="white"/>
<path d="M195.246 161.645H81.131V45.0053C81.131 20.1893 101.397 0 126.308 0H150.069C174.98 0 195.246 20.1893 195.246 45.0053V161.645Z" fill="#F2F2F2"/>
<path d="M171.485 161.645H81.131V45.0053C81.1061 35.4964 84.1286 26.2278 89.7586 18.5489C89.9662 18.2671 90.1732 17.989 90.3867 17.7139C93.1099 14.1558 96.3505 11.0223 100.002 8.41676C100.208 8.26726 100.415 8.12036 100.625 7.97345C103.68 5.86721 106.985 4.1454 110.465 2.84721C110.671 2.76919 110.882 2.69102 111.092 2.61604C114.239 1.49732 117.501 0.730998 120.818 0.33123C121.024 0.303246 121.235 0.281348 121.446 0.259449C124.678 -0.0848555 127.938 -0.0848555 131.171 0.259449C131.381 0.281348 131.592 0.303243 131.801 0.331529C135.117 0.731323 138.378 1.49755 141.524 2.61606C141.734 2.69103 141.945 2.7692 142.152 2.84737C145.588 4.12918 148.854 5.8253 151.877 7.89787C152.087 8.04159 152.297 8.1885 152.504 8.3354C154.551 9.79075 156.473 11.4121 158.252 13.1829C159.678 14.6033 161.007 16.1173 162.23 17.7148C162.443 17.989 162.65 18.2672 162.857 18.5485C168.487 26.2274 171.51 35.4962 171.485 45.0053V161.645Z" fill="#CCCCCC"/>
<path d="M164.138 109.477C166.901 109.477 169.14 107.245 169.14 104.493C169.14 101.741 166.901 99.51 164.138 99.51C161.375 99.51 159.136 101.741 159.136 104.493C159.136 107.245 161.375 109.477 164.138 109.477Z" fill="#D5A0B0"/>
<path d="M185.898 158.152H182.065L180.241 143.424L185.898 143.424L185.898 158.152Z" fill="#FFB8B8"/>
<path d="M179.327 157.061H186.719V161.697H174.672C174.672 161.089 174.793 160.486 175.027 159.923C175.261 159.361 175.603 158.849 176.036 158.419C176.468 157.988 176.981 157.647 177.546 157.414C178.11 157.181 178.716 157.061 179.327 157.061Z" fill="#2F2E41"/>
<path d="M204.969 158.152H201.136L199.312 143.424L204.97 143.424L204.969 158.152Z" fill="#FFB8B8"/>
<path d="M198.398 157.061H205.79V161.697H193.744C193.744 161.089 193.864 160.486 194.098 159.923C194.332 159.361 194.675 158.849 195.107 158.419C195.539 157.988 196.052 157.647 196.617 157.414C197.182 157.181 197.787 157.061 198.398 157.061Z" fill="#2F2E41"/>
<path d="M166.67 105.481C166.394 105.076 166.211 104.616 166.133 104.133C166.055 103.65 166.084 103.156 166.218 102.685C166.353 102.215 166.589 101.78 166.911 101.41C167.232 101.04 167.631 100.745 168.08 100.546L181.109 64.7703L187.521 68.2559L172.644 102.445C172.93 103.217 172.922 104.068 172.621 104.834C172.32 105.601 171.747 106.232 171.01 106.606C170.274 106.98 169.425 107.072 168.625 106.865C167.825 106.657 167.129 106.165 166.67 105.481Z" fill="#FFB8B8"/>
<path d="M203.011 112.203C202.585 111.96 202.218 111.626 201.935 111.226C201.652 110.826 201.461 110.369 201.375 109.888C201.289 109.406 201.31 108.912 201.436 108.439C201.562 107.966 201.791 107.527 202.106 107.152L198.07 69.3074L205.366 69.6394L207.044 106.865C207.641 107.434 208.008 108.202 208.075 109.023C208.142 109.844 207.905 110.66 207.408 111.318C206.91 111.976 206.188 112.43 205.378 112.593C204.568 112.756 203.725 112.617 203.011 112.203Z" fill="#FFB8B8"/>
<path d="M191.371 58.1436C195.612 58.1436 199.05 54.7187 199.05 50.4939C199.05 46.2691 195.612 42.8442 191.371 42.8442C187.13 42.8442 183.692 46.2691 183.692 50.4939C183.692 54.7187 187.13 58.1436 191.371 58.1436Z" fill="#FFB8B8"/>
<path d="M202.962 103.596H179.812L179.839 103.416C179.881 103.148 183.965 76.4945 180.953 67.7747C180.651 66.9178 180.677 65.9797 181.028 65.1412C181.378 64.3026 182.027 63.6228 182.851 63.2325C187.156 61.2127 195.421 58.7254 202.397 64.7615C203.424 65.6644 204.225 66.7928 204.739 68.0575C205.252 69.3222 205.463 70.6885 205.355 72.0484L202.962 103.596Z" fill="#A2BCD3"/>
<path d="M184.258 80.4336L173.835 78.3272L178.721 66.794C179.013 65.677 179.738 64.7211 180.737 64.136C181.736 63.5508 182.927 63.3843 184.049 63.6728C185.171 63.9614 186.133 64.6815 186.722 65.6752C187.312 66.6689 187.482 67.855 187.195 68.9735L184.258 80.4336Z" fill="#A2BCD3"/>
<path d="M197.607 84.3447L196.98 70.036C196.505 67.3462 198.051 64.8035 200.428 64.3879C202.805 63.9738 205.127 65.8393 205.604 68.5489L207.96 81.9189L197.607 84.3447Z" fill="#A2BCD3"/>
<path d="M202.192 101.883C205.917 116.016 206.323 133.984 205.318 153.584L200.316 152.962L191.249 115.587L186.247 153.584L180.619 153.273C178.938 132.708 177.301 115.053 179.994 103.44L202.192 101.883Z" fill="#2F2E41"/>
<path d="M196.431 56.4059C194.998 57.926 192.338 57.11 192.151 55.0332C192.136 54.872 192.137 54.7097 192.154 54.5487C192.251 53.6288 192.784 52.7936 192.656 51.8223C192.627 51.5806 192.537 51.3502 192.394 51.153C191.252 49.6302 188.572 51.8342 187.495 50.4556C186.834 49.6103 187.611 48.2794 187.104 47.3347C186.435 46.0877 184.453 46.7028 183.21 46.02C181.828 45.2602 181.91 43.1467 182.821 41.8612C183.931 40.2935 185.877 39.4569 187.799 39.3363C189.721 39.2158 191.63 39.7334 193.424 40.43C195.463 41.2215 197.485 42.3154 198.739 44.1013C200.265 46.2731 200.412 49.1929 199.649 51.7325C199.185 53.2773 197.6 55.1645 196.431 56.4059Z" fill="#2F2E41"/>
<path d="M262.615 161.846H31.792C31.6934 161.845 31.599 161.806 31.5295 161.737C31.4599 161.667 31.4208 161.573 31.4208 161.475C31.4208 161.377 31.4599 161.283 31.5295 161.213C31.599 161.143 31.6934 161.104 31.792 161.104H262.615C262.713 161.104 262.808 161.143 262.877 161.213C262.947 161.283 262.986 161.377 262.986 161.475C262.986 161.573 262.947 161.667 262.877 161.737C262.808 161.806 262.713 161.845 262.615 161.846Z" fill="#3F3D56"/>
<path d="M146.63 127.852H105.986C105.451 127.855 104.936 127.647 104.555 127.272C104.174 126.897 103.958 126.388 103.954 125.854V35.4796C103.958 34.9463 104.174 34.4365 104.555 34.0619C104.936 33.6873 105.451 33.4786 105.986 33.4815H146.63C147.165 33.4786 147.68 33.6873 148.061 34.0619C148.442 34.4365 148.658 34.9463 148.662 35.4796V125.854C148.658 126.388 148.442 126.897 148.061 127.272C147.68 127.647 147.165 127.855 146.63 127.852Z" fill="white"/>
<path d="M148.662 62.7239H103.954V63.3468H148.662V62.7239Z" fill="#CCCCCC"/>
<path d="M148.818 98.2642H104.11V98.8871H148.818V98.2642Z" fill="#CCCCCC"/>
<path d="M118.648 33.4814H118.023V128.164H118.648V33.4814Z" fill="#CCCCCC"/>
<path d="M134.28 33.4814H133.655V128.164H134.28V33.4814Z" fill="#CCCCCC"/>
</g>
<defs>
<clipPath id="clip0_9_273">
<rect width="272" height="162" fill="white"/>
</clipPath>
</defs>
</svg>
