<svg id="visual" viewBox="0 0 900 600" width="900" height="600" xmlns="http://www.w3.org/2000/svg" xmlns:xlink="http://www.w3.org/1999/xlink" version="1.1"><path d="M0 67L11.5 65C23 63 46 59 69 52C92 45 115 35 138.2 36C161.3 37 184.7 49 207.8 55C231 61 254 61 277 58C300 55 323 49 346 43C369 37 392 31 415.2 34C438.3 37 461.7 49 484.8 53C508 57 531 53 554 52C577 51 600 53 623 52C646 51 669 47 692.2 42C715.3 37 738.7 31 761.8 33C785 35 808 45 831 52C854 59 877 63 888.5 65L900 67L900 0L888.5 0C877 0 854 0 831 0C808 0 785 0 761.8 0C738.7 0 715.3 0 692.2 0C669 0 646 0 623 0C600 0 577 0 554 0C531 0 508 0 484.8 0C461.7 0 438.3 0 415.2 0C392 0 369 0 346 0C323 0 300 0 277 0C254 0 231 0 207.8 0C184.7 0 161.3 0 138.2 0C115 0 92 0 69 0C46 0 23 0 11.5 0L0 0Z" fill="#bcbecd"></path><path d="M0 109L11.5 111C23 113 46 117 69 116C92 115 115 109 138.2 112C161.3 115 184.7 127 207.8 127C231 127 254 115 277 105C300 95 323 87 346 80C369 73 392 67 415.2 76C438.3 85 461.7 109 484.8 118C508 127 531 121 554 116C577 111 600 107 623 106C646 105 669 107 692.2 104C715.3 101 738.7 93 761.8 89C785 85 808 85 831 92C854 99 877 113 888.5 120L900 127L900 65L888.5 63C877 61 854 57 831 50C808 43 785 33 761.8 31C738.7 29 715.3 35 692.2 40C669 45 646 49 623 50C600 51 577 49 554 50C531 51 508 55 484.8 51C461.7 47 438.3 35 415.2 32C392 29 369 35 346 41C323 47 300 53 277 56C254 59 231 59 207.8 53C184.7 47 161.3 35 138.2 34C115 33 92 43 69 50C46 57 23 61 11.5 63L0 65Z" fill="#c5c1d0"></path><path d="M0 187L11.5 203C23 219 46 251 69 256C92 261 115 239 138.2 233C161.3 227 184.7 237 207.8 234C231 231 254 215 277 204C300 193 323 187 346 193C369 199 392 217 415.2 223C438.3 229 461.7 223 484.8 227C508 231 531 245 554 245C577 245 600 231 623 234C646 237 669 257 692.2 262C715.3 267 738.7 257 761.8 257C785 257 808 267 831 268C854 269 877 261 888.5 257L900 253L900 125L888.5 118C877 111 854 97 831 90C808 83 785 83 761.8 87C738.7 91 715.3 99 692.2 102C669 105 646 103 623 104C600 105 577 109 554 114C531 119 508 125 484.8 116C461.7 107 438.3 83 415.2 74C392 65 369 71 346 78C323 85 300 93 277 103C254 113 231 125 207.8 125C184.7 125 161.3 113 138.2 110C115 107 92 113 69 114C46 115 23 111 11.5 109L0 107Z" fill="#cec5d3"></path><path d="M0 217L11.5 233C23 249 46 281 69 284C92 287 115 261 138.2 253C161.3 245 184.7 255 207.8 254C231 253 254 241 277 230C300 219 323 209 346 213C369 217 392 235 415.2 245C438.3 255 461.7 257 484.8 261C508 265 531 271 554 270C577 269 600 261 623 264C646 267 669 281 692.2 287C715.3 293 738.7 291 761.8 291C785 291 808 293 831 290C854 287 877 279 888.5 275L900 271L900 251L888.5 255C877 259 854 267 831 266C808 265 785 255 761.8 255C738.7 255 715.3 265 692.2 260C669 255 646 235 623 232C600 229 577 243 554 243C531 243 508 229 484.8 225C461.7 221 438.3 227 415.2 221C392 215 369 197 346 191C323 185 300 191 277 202C254 213 231 229 207.8 232C184.7 235 161.3 225 138.2 231C115 237 92 259 69 254C46 249 23 217 11.5 201L0 185Z" fill="#d7c8d4"></path><path d="M0 247L11.5 263C23 279 46 311 69 316C92 321 115 299 138.2 292C161.3 285 184.7 293 207.8 288C231 283 254 265 277 254C300 243 323 239 346 246C369 253 392 271 415.2 283C438.3 295 461.7 301 484.8 305C508 309 531 311 554 310C577 309 600 305 623 305C646 305 669 309 692.2 315C715.3 321 738.7 329 761.8 329C785 329 808 321 831 315C854 309 877 305 888.5 303L900 301L900 269L888.5 273C877 277 854 285 831 288C808 291 785 289 761.8 289C738.7 289 715.3 291 692.2 285C669 279 646 265 623 262C600 259 577 267 554 268C531 269 508 263 484.8 259C461.7 255 438.3 253 415.2 243C392 233 369 215 346 211C323 207 300 217 277 228C254 239 231 251 207.8 252C184.7 253 161.3 243 138.2 251C115 259 92 285 69 282C46 279 23 247 11.5 231L0 215Z" fill="#dfccd5"></path><path d="M0 313L11.5 336C23 359 46 405 69 408C92 411 115 371 138.2 358C161.3 345 184.7 359 207.8 361C231 363 254 353 277 344C300 335 323 327 346 332C369 337 392 355 415.2 358C438.3 361 461.7 349 484.8 358C508 367 531 397 554 400C577 403 600 379 623 372C646 365 669 375 692.2 385C715.3 395 738.7 405 761.8 410C785 415 808 415 831 404C854 393 877 371 888.5 360L900 349L900 299L888.5 301C877 303 854 307 831 313C808 319 785 327 761.8 327C738.7 327 715.3 319 692.2 313C669 307 646 303 623 303C600 303 577 307 554 308C531 309 508 307 484.8 303C461.7 299 438.3 293 415.2 281C392 269 369 251 346 244C323 237 300 241 277 252C254 263 231 281 207.8 286C184.7 291 161.3 283 138.2 290C115 297 92 319 69 314C46 309 23 277 11.5 261L0 245Z" fill="#e6d0d5"></path><path d="M0 343L11.5 366C23 389 46 435 69 442C92 449 115 417 138.2 406C161.3 395 184.7 405 207.8 408C231 411 254 407 277 396C300 385 323 367 346 371C369 375 392 401 415.2 409C438.3 417 461.7 407 484.8 411C508 415 531 433 554 435C577 437 600 423 623 416C646 409 669 409 692.2 420C715.3 431 738.7 453 761.8 462C785 471 808 467 831 451C854 435 877 407 888.5 393L900 379L900 347L888.5 358C877 369 854 391 831 402C808 413 785 413 761.8 408C738.7 403 715.3 393 692.2 383C669 373 646 363 623 370C600 377 577 401 554 398C531 395 508 365 484.8 356C461.7 347 438.3 359 415.2 356C392 353 369 335 346 330C323 325 300 333 277 342C254 351 231 361 207.8 359C184.7 357 161.3 343 138.2 356C115 369 92 409 69 406C46 403 23 357 11.5 334L0 311Z" fill="#ecd5d6"></path><path d="M0 517L11.5 522C23 527 46 537 69 539C92 541 115 535 138.2 533C161.3 531 184.7 533 207.8 532C231 531 254 527 277 530C300 533 323 543 346 546C369 549 392 545 415.2 546C438.3 547 461.7 553 484.8 553C508 553 531 547 554 542C577 537 600 533 623 534C646 535 669 541 692.2 545C715.3 549 738.7 551 761.8 549C785 547 808 541 831 540C854 539 877 543 888.5 545L900 547L900 377L888.5 391C877 405 854 433 831 449C808 465 785 469 761.8 460C738.7 451 715.3 429 692.2 418C669 407 646 407 623 414C600 421 577 435 554 433C531 431 508 413 484.8 409C461.7 405 438.3 415 415.2 407C392 399 369 373 346 369C323 365 300 383 277 394C254 405 231 409 207.8 406C184.7 403 161.3 393 138.2 404C115 415 92 447 69 440C46 433 23 387 11.5 364L0 341Z" fill="#f1dad6"></path><path d="M0 559L11.5 564C23 569 46 579 69 579C92 579 115 569 138.2 567C161.3 565 184.7 571 207.8 575C231 579 254 581 277 583C300 585 323 587 346 587C369 587 392 585 415.2 584C438.3 583 461.7 583 484.8 579C508 575 531 567 554 566C577 565 600 571 623 574C646 577 669 577 692.2 577C715.3 577 738.7 577 761.8 578C785 579 808 581 831 582C854 583 877 583 888.5 583L900 583L900 545L888.5 543C877 541 854 537 831 538C808 539 785 545 761.8 547C738.7 549 715.3 547 692.2 543C669 539 646 533 623 532C600 531 577 535 554 540C531 545 508 551 484.8 551C461.7 551 438.3 545 415.2 544C392 543 369 547 346 544C323 541 300 531 277 528C254 525 231 529 207.8 530C184.7 531 161.3 529 138.2 531C115 533 92 539 69 537C46 535 23 525 11.5 520L0 515Z" fill="#f5dfd7"></path><path d="M0 601L11.5 601C23 601 46 601 69 601C92 601 115 601 138.2 601C161.3 601 184.7 601 207.8 601C231 601 254 601 277 601C300 601 323 601 346 601C369 601 392 601 415.2 601C438.3 601 461.7 601 484.8 601C508 601 531 601 554 601C577 601 600 601 623 601C646 601 669 601 692.2 601C715.3 601 738.7 601 761.8 601C785 601 808 601 831 601C854 601 877 601 888.5 601L900 601L900 581L888.5 581C877 581 854 581 831 580C808 579 785 577 761.8 576C738.7 575 715.3 575 692.2 575C669 575 646 575 623 572C600 569 577 563 554 564C531 565 508 573 484.8 577C461.7 581 438.3 581 415.2 582C392 583 369 585 346 585C323 585 300 583 277 581C254 579 231 577 207.8 573C184.7 569 161.3 563 138.2 565C115 567 92 577 69 577C46 577 23 567 11.5 562L0 557Z" fill="#f7e5d9"></path></svg>