<svg width="23" height="24" viewBox="0 0 23 24" fill="none" xmlns="http://www.w3.org/2000/svg">
<path d="M21.9192 12.6317C22.5165 12.2173 22.908 11.5269 22.908 10.7448C22.908 10.1332 22.6683 9.57788 22.2785 9.16641C22.4148 8.82635 22.4906 8.45543 22.4906 8.06665C22.4906 6.43385 21.167 5.11024 19.5343 5.11024C19.5141 5.11024 19.4943 5.1114 19.4742 5.11173C19.2871 3.65908 18.0466 2.53637 16.543 2.53637C16.2908 2.53637 16.046 2.56815 15.8122 2.62764C15.1813 1.534 14.0008 0.797363 12.6475 0.797363C12.2463 0.797363 11.8608 0.862977 11.4997 0.982473C11.1386 0.862977 10.7531 0.797363 10.3519 0.797363C8.9986 0.797363 7.81814 1.534 7.18721 2.62764C6.9535 2.56821 6.70864 2.53637 6.45644 2.53637C4.95287 2.53637 3.71241 3.65908 3.5253 5.11173C3.50526 5.11134 3.4854 5.11024 3.46523 5.11024C1.83244 5.11024 0.508829 6.43385 0.508829 8.06665C0.508829 8.45549 0.584626 8.82642 0.721009 9.16641C0.331067 9.57788 0.0914307 10.1332 0.0914307 10.7448C0.0914307 11.5269 0.482854 12.2173 1.08021 12.6317C1.01163 12.6777 0.946272 12.7306 0.885687 12.7912C0.383145 13.2938 0.383145 14.1085 0.885687 14.6112C1.30051 15.0259 1.92751 15.0974 2.41658 14.8275C3.2136 19.1066 6.96652 22.3462 11.4766 22.3462C15.9953 22.3462 19.7541 19.0943 20.5414 14.8032C21.036 15.1007 21.6869 15.0376 22.1135 14.6111C22.6161 14.1085 22.6161 13.2937 22.1135 12.7911C22.0531 12.7306 21.9878 12.6777 21.9192 12.6317Z" fill="#96914B"/>
<path d="M11.4999 17.7623C12.7869 17.7623 13.8303 16.719 13.8303 15.4319C13.8303 14.1449 12.7869 13.1016 11.4999 13.1016C10.2129 13.1016 9.16956 14.1449 9.16956 15.4319C9.16956 16.719 10.2129 17.7623 11.4999 17.7623Z" fill="#FFF2DC"/>
<path d="M11.4999 17.7623C12.7869 17.7623 13.8303 16.719 13.8303 15.4319C13.8303 14.1449 12.7869 13.1016 11.4999 13.1016C10.2129 13.1016 9.16956 14.1449 9.16956 15.4319C9.16956 16.719 10.2129 17.7623 11.4999 17.7623Z" fill="#FFF2DC"/>
<path d="M2.61711 17.7623C3.90414 17.7623 4.94748 16.719 4.94748 15.4319C4.94748 14.1449 3.90414 13.1016 2.61711 13.1016C1.33008 13.1016 0.286743 14.1449 0.286743 15.4319C0.286743 16.719 1.33008 17.7623 2.61711 17.7623Z" fill="#FFBF94"/>
<path d="M2.61717 16.8582C1.48492 16.8582 0.541584 16.0505 0.33108 14.98C0.302269 15.1263 0.286865 15.2774 0.286865 15.4322C0.286865 16.7192 1.33023 17.7625 2.61717 17.7625C3.90417 17.7625 4.94754 16.7191 4.94754 15.4322C4.94754 15.2774 4.93207 15.1263 4.90332 14.98C4.69275 16.0505 3.74942 16.8582 2.61717 16.8582Z" fill="#ED9572"/>
<path d="M20.3827 17.7627C21.6697 17.7627 22.713 16.7193 22.713 15.4324C22.713 14.1454 21.6697 13.1021 20.3827 13.1021C19.0957 13.1021 18.0524 14.1454 18.0524 15.4324C18.0524 16.7193 19.0957 17.7627 20.3827 17.7627Z" fill="#FFBF94"/>
<path d="M20.3825 16.8582C19.2504 16.8582 18.307 16.0505 18.0965 14.98C18.0676 15.1263 18.0522 15.2774 18.0522 15.4322C18.0522 16.7192 19.0955 17.7625 20.3825 17.7625C21.6695 17.7625 22.7129 16.7191 22.7129 15.4322C22.7129 15.2774 22.6974 15.1263 22.6685 14.98C22.4582 16.0505 21.5149 16.8582 20.3825 16.8582Z" fill="#ED9572"/>
<path d="M19.6637 11.9542C19.4814 7.6027 16.1065 4.13042 11.5019 4.12848C11.5012 4.12848 11.5005 4.12842 11.4999 4.12842C11.4993 4.12842 11.4986 4.12842 11.4981 4.12842C6.89346 4.13035 3.51844 7.6027 3.33623 11.9542H3.32837V16.9626H3.33623C3.51851 21.3141 7.17139 23.3959 11.4981 23.3971V23.3972C11.4987 23.3972 11.4993 23.3971 11.4999 23.3971C11.5005 23.3971 11.5012 23.3972 11.5019 23.3972V23.3971C15.8285 23.3958 19.4814 21.3141 19.6637 16.9626H19.6715V11.9542H19.6637Z" fill="#FFF2DC"/>
<path d="M19.6637 11.9542C19.4814 7.6027 16.1065 4.13042 11.5019 4.12848C11.5012 4.12848 11.5005 4.12842 11.4999 4.12842C11.4993 4.12842 11.4986 4.12842 11.4981 4.12842C6.89346 4.13035 3.51844 7.6027 3.33623 11.9542H3.32837V16.9626H3.33623C3.51851 21.3141 7.17139 23.3959 11.4981 23.3971V23.3972C11.4987 23.3972 11.4993 23.3971 11.4999 23.3971C11.5005 23.3971 11.5012 23.3972 11.5019 23.3972V23.3971C15.8285 23.3958 19.4814 21.3141 19.6637 16.9626H19.6715V11.9542H19.6637Z" fill="#FFBF94"/>
<path d="M19.6387 15.3256C18.5455 15.3256 17.6561 14.4363 17.6561 13.3431C17.6561 13.1322 17.6891 12.9265 17.7519 12.7322C16.9923 12.385 16.4325 11.674 16.2967 10.8233C16.1028 10.8567 15.9059 10.8736 15.7083 10.8736C14.1515 10.8736 12.8211 9.84526 12.3831 8.41736C12.2638 8.43173 12.1432 8.43895 12.0215 8.43895H10.9781C10.8564 8.43895 10.7358 8.43173 10.6165 8.41736C10.1786 9.84532 8.84821 10.8736 7.29134 10.8736C7.09379 10.8736 6.89682 10.8567 6.70308 10.8233C6.56727 11.674 6.00737 12.385 5.24779 12.7322C5.31057 12.9265 5.34357 13.1322 5.34357 13.3431C5.34357 14.4362 4.45424 15.3256 3.36105 15.3256C2.26786 15.3256 1.37854 14.4363 1.37854 13.3431C1.37854 12.7398 1.65279 12.1962 2.08308 11.8315C1.8096 11.4222 1.65678 10.9345 1.65678 10.4214C1.65678 9.13827 2.61353 8.07441 3.85109 7.90573C3.82602 7.73706 3.81326 7.56632 3.81326 7.39546C3.81326 5.47759 5.37354 3.91737 7.29134 3.91737C7.64242 3.91737 7.98956 3.97029 8.3213 4.07309C8.82455 3.10204 9.83937 2.45654 10.9781 2.45654H12.0215C13.1604 2.45654 14.1751 3.10198 14.6784 4.07309C15.0101 3.97035 15.3572 3.91737 15.7083 3.91737C17.6262 3.91737 19.1866 5.47765 19.1866 7.39546C19.1866 7.56632 19.1737 7.73699 19.1487 7.90573C20.3862 8.07441 21.343 9.13833 21.343 10.4214C21.343 10.9345 21.1901 11.4222 20.9166 11.8315C21.347 12.1961 21.6212 12.7398 21.6212 13.3431C21.6211 14.4362 20.7317 15.3256 19.6387 15.3256Z" fill="#B2AF79"/>
<path d="M6.01246 19.4351C7.0995 19.4351 7.98073 18.5539 7.98073 17.4668C7.98073 16.3798 7.0995 15.4985 6.01246 15.4985C4.92541 15.4985 4.04419 16.3798 4.04419 17.4668C4.04419 18.5539 4.92541 19.4351 6.01246 19.4351Z" fill="#F97A7A"/>
<path d="M16.5568 19.4351C17.6438 19.4351 18.525 18.5539 18.525 17.4668C18.525 16.3798 17.6438 15.4985 16.5568 15.4985C15.4697 15.4985 14.5885 16.3798 14.5885 17.4668C14.5885 18.5539 15.4697 19.4351 16.5568 19.4351Z" fill="#F97A7A"/>
<path d="M8.21882 15.1474C8.83998 15.1474 9.34353 14.6438 9.34353 14.0227C9.34353 13.4015 8.83998 12.8979 8.21882 12.8979C7.59766 12.8979 7.09412 13.4015 7.09412 14.0227C7.09412 14.6438 7.59766 15.1474 8.21882 15.1474Z" fill="#493E2F"/>
<path d="M14.3483 15.1474C14.9695 15.1474 15.473 14.6438 15.473 14.0227C15.473 13.4015 14.9695 12.8979 14.3483 12.8979C13.7272 12.8979 13.2236 13.4015 13.2236 14.0227C13.2236 14.6438 13.7272 15.1474 14.3483 15.1474Z" fill="#493E2F"/>
<path d="M11.3197 19.006C10.7347 19.006 10.1496 18.7833 9.7042 18.3379C9.55319 18.1868 9.55319 17.942 9.7042 17.7909C9.85515 17.64 10.1001 17.64 10.2511 17.7909C10.8404 18.3804 11.7991 18.3802 12.3884 17.7909C12.5394 17.64 12.7844 17.64 12.9352 17.7909C13.0863 17.942 13.0863 18.1869 12.9352 18.3379C12.4898 18.7833 11.9047 19.006 11.3197 19.006Z" fill="#F97A7A"/>
</svg>
